{
.appVersion = "1075";
copyright = "Copyright © 2018 by Cadson Demak Co.,Ltd.. All rights reserved.";
customParameters = (
{
name = vendorID;
value = CDK;
},
{
name = description;
value = "Copyright (c) 2018, Cadson Demak (info@cadsondemak.com)";
},
{
name = license;

glyphs = (
{
glyphname = A;
layers = (
{
anchors = (
{
name = bottom;
position = "{292, 0}";
},
{
name = ogonek;
position = "{525, 10}";
},
{
name = top;
position = "{292, 700}";
}
);
layerId = "45309390-7B6A-4DA2-8B07-FED7B2950A7C";
paths = (
{
closed = 1;
nodes = (
"60 -6 OFFCURVE",
"69 2 OFFCURVE",
"76 23 CURVE SMOOTH",
"148 227 LINE",
"443 227 LINE",
"525 -6 LINE",
"550 -6 OFFCURVE",
"559 7 OFFCURVE",
"550 31 CURVE SMOOTH",
"315 703 LINE",
"310 705 OFFCURVE",
"305 706 OFFCURVE",
"300 706 CURVE SMOOTH",
"284 706 OFFCURVE",
"273 696 OFFCURVE",
"265 671 CURVE SMOOTH",
"30 0 LINE",
"36 -4 OFFCURVE",
"42 -6 OFFCURVE",
"48 -6 CURVE SMOOTH"
);
},
{
closed = 1;
nodes = (
"295 649 LINE",
"432 259 LINE",
"159 259 LINE"
);
}
);
width = 583;
}
);
leftKerningGroup = A;
note = A;
rightKerningGroup = A;
unicode = 0041;
},
{
glyphname = AE;
layers = (
{
anchors = (
{
name = bottom;
position = "{397, 0}";
},
{
name = top;
position = "{397, 700}";
}
);
layerId = "45309390-7B6A-4DA2-8B07-FED7B2950A7C";
paths = (
{
closed = 1;
nodes = (
"60 -6 OFFCURVE",
"69 2 OFFCURVE",
"76 23 CURVE SMOOTH",
"148 227 LINE",
"383 227 LINE",
"383 188 LINE SMOOTH",
"383 100 OFFCURVE",
"377 54 OFFCURVE",
"357 13 CURVE",
"363 0 LINE",
"730 0 LINE SMOOTH",
"748 0 OFFCURVE",
"759 7 OFFCURVE",
"759 20 CURVE SMOOTH",
"759 24 OFFCURVE",
"758 28 OFFCURVE",
"756 32 CURVE",
"403 32 LINE",
"419 74 OFFCURVE",
"421 136 OFFCURVE",
"421 188 CURVE SMOOTH",
"421 355 LINE",
"682 355 LINE SMOOTH",
"700 355 OFFCURVE",
"711 361 OFFCURVE",
"711 374 CURVE SMOOTH",
"711 378 OFFCURVE",
"710 382 OFFCURVE",
"708 386 CURVE",
"421 386 LINE",
"421 668 LINE",
"714 668 LINE SMOOTH",
"732 668 OFFCURVE",
"743 675 OFFCURVE",
"743 688 CURVE SMOOTH",
"743 692 OFFCURVE",
"742 696 OFFCURVE",
"740 700 CURVE",
"314 700 LINE SMOOTH",
"289 700 OFFCURVE",
"271 686 OFFCURVE",
"262 662 CURVE SMOOTH",
"30 0 LINE",
"36 -4 OFFCURVE",
"42 -6 OFFCURVE",
"48 -6 CURVE SMOOTH"
);
},
{
closed = 1;
nodes = (
"302 668 LINE",
"383 668 LINE",
"383 259 LINE",
"159 259 LINE"
);
}
);
width = 793;
}
);
leftMetricsKey = A;
note = AE;
rightMetricsKey = E;
unicode = 00C6;
},
{
glyphname = B;
layers = (
{
anchors = (
{
name = bottom;
position = "{275, 0}";
},
{
name = top;
position = "{275, 700}";
}
);
layerId = "45309390-7B6A-4DA2-8B07-FED7B2950A7C";
paths = (
{
closed = 1;
nodes = (
"407 -10 OFFCURVE",
"504 68 OFFCURVE",
"504 192 CURVE SMOOTH",
"504 280 OFFCURVE",
"450 346 OFFCURVE",
"365 362 CURVE",
"429 380 OFFCURVE",
"470 440 OFFCURVE",
"470 515 CURVE SMOOTH",
"470 634 OFFCURVE",
"380 710 OFFCURVE",
"239 710 CURVE SMOOTH",
"179 710 OFFCURVE",
"126 704 OFFCURVE",
"70 704 CURVE",
"64 691 LINE",
"84 650 OFFCURVE",
"90 602 OFFCURVE",
"90 514 CURVE SMOOTH",
"90 188 LINE SMOOTH",
"90 100 OFFCURVE",
"84 52 OFFCURVE",
"64 11 CURVE",
"70 -2 LINE",
"125 -2 OFFCURVE",
"190 -10 OFFCURVE",
"254 -10 CURVE SMOOTH"
);
},
{
closed = 1;
nodes = (
"125 59 OFFCURVE",
"128 129 OFFCURVE",
"128 188 CURVE SMOOTH",
"128 345 LINE",
"301 345 LINE SMOOTH",
"401 345 OFFCURVE",
"465 288 OFFCURVE",
"465 198 CURVE SMOOTH",
"465 90 OFFCURVE",
"387 22 OFFCURVE",
"264 22 CURVE SMOOTH",
"217 22 OFFCURVE",
"132 28 OFFCURVE",
"99 28 CURVE",
"104 17 LINE"
);
},
{
closed = 1;
nodes = (
"128 514 LINE SMOOTH",
"128 573 OFFCURVE",
"125 641 OFFCURVE",
"104 683 CURVE",
"99 672 LINE",
"135 672 OFFCURVE",
"210 678 OFFCURVE",
"255 678 CURVE SMOOTH",
"363 678 OFFCURVE",
"431 614 OFFCURVE",
"431 514 CURVE SMOOTH",
"431 430 OFFCURVE",
"379 376 OFFCURVE",
"296 376 CURVE SMOOTH",
"128 376 LINE"
);
}
);
width = 550;
}
);
leftKerningGroup = E;
leftMetricsKey = E;
note = B;
rightKerningGroup = B;
unicode = 0042;
},
{
glyphname = C;
layers = (
{
anchors = (
{
name = bottom;
position = "{353, 0}";
},
{
name = top;
position = "{361, 700}";
}
);
layerId = "45309390-7B6A-4DA2-8B07-FED7B2950A7C";
paths = (
{
closed = 1;
nodes = (
"489 -10 OFFCURVE",
"575 62 OFFCURVE",
"575 82 CURVE SMOOTH",
"575 94 OFFCURVE",
"568 100 OFFCURVE",
"555 100 CURVE",
"508 50 OFFCURVE",
"441 21 OFFCURVE",
"360 21 CURVE SMOOTH",
"194 21 OFFCURVE",
"89 149 OFFCURVE",
"89 350 CURVE SMOOTH",
"89 551 OFFCURVE",
"194 679 OFFCURVE",
"360 679 CURVE SMOOTH",
"441 679 OFFCURVE",
"508 650 OFFCURVE",
"555 600 CURVE",
"568 600 OFFCURVE",
"575 606 OFFCURVE",
"575 618 CURVE SMOOTH",
"575 638 OFFCURVE",
"489 710 OFFCURVE",
"368 710 CURVE SMOOTH",
"174 710 OFFCURVE",
"50 570 OFFCURVE",
"50 350 CURVE SMOOTH",
"50 130 OFFCURVE",
"174 -10 OFFCURVE",
"368 -10 CURVE SMOOTH"
);
}
);
width = 625;
}
);
leftKerningGroup = O;
leftMetricsKey = O;
note = C;
rightKerningGroup = C;
unicode = 0043;
},
{
glyphname = D;
layers = (
{
anchors = (
{
name = bottom;
position = "{310, 0}";
},
{
name = center;
position = "{310, 350}";
},
{
name = top;
position = "{310, 700}";
}
);
layerId = "45309390-7B6A-4DA2-8B07-FED7B2950A7C";
paths = (
{
closed = 1;
nodes = (
"443 -10 OFFCURVE",
"570 130 OFFCURVE",
"570 351 CURVE SMOOTH",
"570 571 OFFCURVE",
"443 710 OFFCURVE",
"243 710 CURVE SMOOTH",
"186 710 OFFCURVE",
"122 704 OFFCURVE",
"70 704 CURVE",
"64 691 LINE",
"84 650 OFFCURVE",
"90 602 OFFCURVE",
"90 514 CURVE SMOOTH",
"90 188 LINE SMOOTH",
"90 100 OFFCURVE",
"84 52 OFFCURVE",
"64 11 CURVE",
"70 -2 LINE",
"122 -2 OFFCURVE",
"186 -10 OFFCURVE",
"243 -10 CURVE SMOOTH"
);
},
{
closed = 1;
nodes = (
"125 59 OFFCURVE",
"128 129 OFFCURVE",
"128 188 CURVE SMOOTH",
"128 514 LINE SMOOTH",
"128 573 OFFCURVE",
"125 641 OFFCURVE",
"104 683 CURVE",
"99 672 LINE",
"135 672 OFFCURVE",
"200 678 OFFCURVE",
"245 678 CURVE SMOOTH",
"420 678 OFFCURVE",
"531 551 OFFCURVE",
"531 351 CURVE SMOOTH",
"531 150 OFFCURVE",
"420 22 OFFCURVE",
"245 22 CURVE SMOOTH",
"200 22 OFFCURVE",
"135 28 OFFCURVE",
"99 28 CURVE",
"104 17 LINE"
);
}
);
width = 620;
}
);
leftKerningGroup = E;
leftMetricsKey = E;
note = D;
rightKerningGroup = O;
rightMetricsKey = O;
unicode = 0044;
},
{
glyphname = Eth;
layers = (
{
components = (
{
name = D;
}
);
layerId = "45309390-7B6A-4DA2-8B07-FED7B2950A7C";
paths = (
{
closed = 1;
nodes = (
"350 334 LINE",
"350 366 LINE",
"0 366 LINE",
"0 334 LINE"
);
}
);
width = 620;
}
);
note = Eth;
rightMetricsKey = D;
unicode = 00D0;
},
{
glyphname = E;
layers = (
{
anchors = (
{
name = bottom;
position = "{270, 0}";
},
{
name = ogonek;
position = "{440, 10}";
},
{
name = top;
position = "{250, 700}";
},
{
name = topleft;
position = "{20, 700}";
}
);
layerId = "45309390-7B6A-4DA2-8B07-FED7B2950A7C";
paths = (
{
closed = 1;
nodes = (
"437 0 LINE SMOOTH",
"455 0 OFFCURVE",
"466 7 OFFCURVE",
"466 20 CURVE SMOOTH",
"466 24 OFFCURVE",
"465 28 OFFCURVE",
"463 32 CURVE",
"99 32 LINE",
"104 17 LINE",
"125 59 OFFCURVE",
"128 129 OFFCURVE",
"128 188 CURVE SMOOTH",
"128 355 LINE",
"389 355 LINE SMOOTH",
"407 355 OFFCURVE",
"418 361 OFFCURVE",
"418 374 CURVE SMOOTH",
"418 378 OFFCURVE",
"417 382 OFFCURVE",
"415 386 CURVE",
"128 386 LINE",
"128 514 LINE SMOOTH",
"128 573 OFFCURVE",
"125 641 OFFCURVE",
"104 683 CURVE",
"99 668 LINE",
"421 668 LINE SMOOTH",
"439 668 OFFCURVE",
"450 675 OFFCURVE",
"450 688 CURVE SMOOTH",
"450 692 OFFCURVE",
"449 696 OFFCURVE",
"447 700 CURVE",
"70 700 LINE",
"64 687 LINE",
"84 646 OFFCURVE",
"90 602 OFFCURVE",
"90 514 CURVE SMOOTH",
"90 188 LINE SMOOTH",
"90 100 OFFCURVE",
"84 54 OFFCURVE",
"64 13 CURVE",
"70 0 LINE"
);
}
);
width = 500;
}
);
leftKerningGroup = E;
note = E;
rightKerningGroup = E;
unicode = 0045;
},
{
glyphname = F;
layers = (
{
anchors = (
{
name = bottom;
position = "{239, 0}";
},
{
name = top;
position = "{239, 700}";
}
);
layerId = "45309390-7B6A-4DA2-8B07-FED7B2950A7C";
paths = (
{
closed = 1;
nodes = (
"118 -4 OFFCURVE",
"126 9 OFFCURVE",
"126 31 CURVE SMOOTH",
"126 345 LINE",
"371 345 LINE SMOOTH",
"389 345 OFFCURVE",
"400 351 OFFCURVE",
"400 364 CURVE SMOOTH",
"400 368 OFFCURVE",
"399 372 OFFCURVE",
"397 376 CURVE",
"126 376 LINE",
"126 514 LINE SMOOTH",
"126 573 OFFCURVE",
"123 641 OFFCURVE",
"102 683 CURVE",
"97 668 LINE",
"419 668 LINE SMOOTH",
"437 668 OFFCURVE",
"448 675 OFFCURVE",
"448 688 CURVE SMOOTH",
"448 692 OFFCURVE",
"447 696 OFFCURVE",
"445 700 CURVE",
"68 700 LINE",
"62 687 LINE",
"82 646 OFFCURVE",
"88 602 OFFCURVE",
"88 514 CURVE SMOOTH",
"88 0 LINE",
"93 -3 OFFCURVE",
"97 -4 OFFCURVE",
"101 -4 CURVE SMOOTH"
);
}
);
width = 478;
}
);
leftKerningGroup = F;
note = F;
rightKerningGroup = F;
unicode = 0046;
},
{
glyphname = G;
layers = (
{
anchors = (
{
name = bottom;
position = "{334, 0}";
},
{
name = top;
position = "{374, 700}";
}
);
layerId = "45309390-7B6A-4DA2-8B07-FED7B2950A7C";
paths = (
{
closed = 1;
nodes = (
"523 -10 OFFCURVE",
"617 100 OFFCURVE",
"617 305 CURVE SMOOTH",
"617 325 OFFCURVE",
"616 335 OFFCURVE",
"613 346 CURVE",
"387 346 LINE SMOOTH",
"369 346 OFFCURVE",
"358 340 OFFCURVE",
"358 327 CURVE SMOOTH",
"358 323 OFFCURVE",
"359 319 OFFCURVE",
"361 315 CURVE",
"578 315 LINE",
"578 117 OFFCURVE",
"502 21 OFFCURVE",
"360 21 CURVE SMOOTH",
"194 21 OFFCURVE",
"89 149 OFFCURVE",
"89 350 CURVE SMOOTH",
"89 551 OFFCURVE",
"194 679 OFFCURVE",
"366 679 CURVE SMOOTH",
"451 679 OFFCURVE",
"518 650 OFFCURVE",
"565 600 CURVE",
"578 600 OFFCURVE",
"585 606 OFFCURVE",
"585 618 CURVE SMOOTH",
"585 638 OFFCURVE",
"499 710 OFFCURVE",
"374 710 CURVE SMOOTH",
"174 710 OFFCURVE",
"50 570 OFFCURVE",
"50 350 CURVE SMOOTH",
"50 130 OFFCURVE",
"174 -10 OFFCURVE",
"360 -10 CURVE SMOOTH"
);
}
);
width = 667;
}
);
leftKerningGroup = O;
leftMetricsKey = O;
note = G;
rightKerningGroup = G;
unicode = 0047;
},
{
glyphname = H;
layers = (
{
anchors = (
{
name = bottom;
position = "{324, 0}";
},
{
name = center;
position = "{324, 350}";
},
{
name = top;
position = "{324, 700}";
},
{
name = topleft;
position = "{20, 700}";
}
);
layerId = "45309390-7B6A-4DA2-8B07-FED7B2950A7C";
paths = (
{
closed = 1;
nodes = (
"556 -4 OFFCURVE",
"564 9 OFFCURVE",
"564 31 CURVE SMOOTH",
"564 700 LINE",
"559 703 OFFCURVE",
"555 704 OFFCURVE",
"551 704 CURVE SMOOTH",
"534 704 OFFCURVE",
"526 691 OFFCURVE",
"526 669 CURVE SMOOTH",
"526 0 LINE",
"531 -3 OFFCURVE",
"535 -4 OFFCURVE",
"539 -4 CURVE SMOOTH"
);
},
{
closed = 1;
nodes = (
"114 -4 OFFCURVE",
"122 9 OFFCURVE",
"122 31 CURVE SMOOTH",
"122 700 LINE",
"117 703 OFFCURVE",
"113 704 OFFCURVE",
"109 704 CURVE SMOOTH",
"92 704 OFFCURVE",
"84 691 OFFCURVE",
"84 669 CURVE SMOOTH",
"84 0 LINE",
"89 -3 OFFCURVE",
"93 -4 OFFCURVE",
"97 -4 CURVE SMOOTH"
);
},
{
closed = 1;
nodes = (
"537 340 LINE",
"537 372 LINE",
"112 372 LINE",
"112 340 LINE"
);
}
);
width = 648;
}
);
leftKerningGroup = H;
leftMetricsKey = "=|";
note = H;
rightKerningGroup = H;
unicode = 0048;
},
{
glyphname = Hbar;
layers = (
{
components = (
{
name = H;
}
);
layerId = "45309390-7B6A-4DA2-8B07-FED7B2950A7C";
paths = (
{
closed = 1;
nodes = (
"628 522 LINE",
"628 554 LINE",
"20 554 LINE",
"20 522 LINE"
);
}
);
width = 648;
}
);
note = Hbar;
unicode = 0126;
},
{
glyphname = I;
layers = (
{
anchors = (
{
name = bottom;
position = "{109, 0}";
},
{
name = ogonek;
position = "{106, 5}";
},
{
name = top;
position = "{109, 700}";
},
{
name = topleft;
position = "{20, 700}";
}
);
layerId = "45309390-7B6A-4DA2-8B07-FED7B2950A7C";
paths = (
{
closed = 1;
nodes = (
"120 -4 OFFCURVE",
"128 9 OFFCURVE",
"128 31 CURVE SMOOTH",
"128 700 LINE",
"123 703 OFFCURVE",
"119 704 OFFCURVE",
"115 704 CURVE SMOOTH",
"98 704 OFFCURVE",
"90 691 OFFCURVE",
"90 669 CURVE SMOOTH",
"90 0 LINE",
"95 -3 OFFCURVE",
"99 -4 OFFCURVE",
"103 -4 CURVE SMOOTH"
);
}
);
width = 218;
}
);
leftKerningGroup = I;
leftMetricsKey = "=|";
note = I;
rightKerningGroup = I;
unicode = 0049;
},
{
glyphname = J;
layers = (
{
anchors = (
{
name = bottom;
position = "{179, 0}";
},
{
name = top;
position = "{263, 700}";
}
);
layerId = "45309390-7B6A-4DA2-8B07-FED7B2950A7C";
paths = (
{
closed = 1;
nodes = (
"227 -10 OFFCURVE",
"278 46 OFFCURVE",
"278 147 CURVE SMOOTH",
"278 700 LINE",
"273 703 OFFCURVE",
"269 704 OFFCURVE",
"265 704 CURVE SMOOTH",
"248 704 OFFCURVE",
"240 691 OFFCURVE",
"240 669 CURVE SMOOTH",
"240 147 LINE SMOOTH",
"240 66 OFFCURVE",
"205 21 OFFCURVE",
"140 21 CURVE SMOOTH",
"99 21 OFFCURVE",
"71 39 OFFCURVE",
"50 57 CURVE",
"38 57 OFFCURVE",
"32 50 OFFCURVE",
"32 37 CURVE SMOOTH",
"32 16 OFFCURVE",
"79 -10 OFFCURVE",
"139 -10 CURVE SMOOTH"
);
}
);
width = 358;
}
);
leftKerningGroup = J;
note = J;
rightKerningGroup = J;
unicode = 004A;
},
{
glyphname = K;
layers = (
{
anchors = (
{
name = bottom;
position = "{265, 0}";
},
{
name = top;
position = "{265, 700}";
}
);
layerId = "45309390-7B6A-4DA2-8B07-FED7B2950A7C";
paths = (
{
closed = 1;
nodes = (
"501 700 LINE",
"495 702 OFFCURVE",
"489 703 OFFCURVE",
"482 703 CURVE SMOOTH",
"464 703 OFFCURVE",
"453 696 OFFCURVE",
"443 684 CURVE SMOOTH",
"108 278 LINE",
"108 224 LINE"
);
},
{
closed = 1;
nodes = (
"114 -4 OFFCURVE",
"122 9 OFFCURVE",
"122 31 CURVE SMOOTH",
"122 700 LINE",
"117 703 OFFCURVE",
"113 704 OFFCURVE",
"109 704 CURVE SMOOTH",
"92 704 OFFCURVE",
"84 691 OFFCURVE",
"84 669 CURVE SMOOTH",
"84 0 LINE",
"89 -3 OFFCURVE",
"93 -4 OFFCURVE",
"97 -4 CURVE SMOOTH"
);
},
{
closed = 1;
nodes = (
"503 -4 OFFCURVE",
"510 -3 OFFCURVE",
"517 0 CURVE",
"517 6 LINE",
"509 9 OFFCURVE",
"501 19 OFFCURVE",
"488 38 CURVE SMOOTH",
"268 339 LINE SMOOTH",
"256 355 OFFCURVE",
"246 363 OFFCURVE",
"232 363 CURVE SMOOTH",
"224 363 OFFCURVE",
"217 361 OFFCURVE",
"209 358 CURVE",
"465 12 LINE SMOOTH",
"472 2 OFFCURVE",
"480 -4 OFFCURVE",
"496 -4 CURVE SMOOTH"
);
}
);
width = 529;
}
);
leftKerningGroup = H;
leftMetricsKey = H;
note = K;
rightKerningGroup = K;
unicode = 004B;
},
{
glyphname = L;
layers = (
{
anchors = (
{
name = bottom;
position = "{257, 0}";
},
{
name = center;
position = "{287, 350}";
},
{
name = top;
position = "{109, 700}";
},
{
name = topright;
position = "{454, 700}";
}
);
layerId = "45309390-7B6A-4DA2-8B07-FED7B2950A7C";
paths = (
{
closed = 1;
nodes = (
"419 0 LINE SMOOTH",
"437 0 OFFCURVE",
"448 7 OFFCURVE",
"448 20 CURVE SMOOTH",
"448 24 OFFCURVE",
"447 28 OFFCURVE",
"445 32 CURVE",
"97 32 LINE",
"102 17 LINE",
"123 59 OFFCURVE",
"126 129 OFFCURVE",
"126 188 CURVE SMOOTH",
"126 700 LINE",
"121 703 OFFCURVE",
"117 704 OFFCURVE",
"113 704 CURVE SMOOTH",
"96 704 OFFCURVE",
"88 691 OFFCURVE",
"88 669 CURVE SMOOTH",
"88 188 LINE SMOOTH",
"88 100 OFFCURVE",
"82 54 OFFCURVE",
"62 13 CURVE",
"68 0 LINE"
);
}
);
width = 474;
}
);
leftKerningGroup = F;
leftMetricsKey = F;
note = L;
rightKerningGroup = L;
unicode = 004C;
},
{
glyphname = Lslash;
layers = (
{
components = (
{
name = L;
}
);
layerId = "45309390-7B6A-4DA2-8B07-FED7B2950A7C";
paths = (
{
closed = 1;
nodes = (
"350 464 LINE",
"350 496 LINE",
"0 356 LINE",
"0 324 LINE"
);
}
);
width = 474;
}
);
note = Lslash;
rightMetricsKey = L;
unicode = 0141;
},
{
glyphname = M;
layers = (
{
anchors = (
{
name = bottom;
position = "{388, 0}";
},
{
name = top;
position = "{388, 700}";
}
);
layerId = "45309390-7B6A-4DA2-8B07-FED7B2950A7C";
paths = (
{
closed = 1;
nodes = (
"114 -4 OFFCURVE",
"122 9 OFFCURVE",
"122 31 CURVE SMOOTH",
"122 640 LINE",
"380 70 LINE",
"396 70 LINE",
"626 578 LINE SMOOTH",
"646 626 OFFCURVE",
"657 650 OFFCURVE",
"666 665 CURVE",
"661 673 LINE",
"655 647 OFFCURVE",
"654 619 OFFCURVE",
"654 581 CURVE SMOOTH",
"654 0 LINE",
"659 -3 OFFCURVE",
"663 -4 OFFCURVE",
"667 -4 CURVE SMOOTH",
"684 -4 OFFCURVE",
"692 9 OFFCURVE",
"692 31 CURVE SMOOTH",
"692 581 LINE SMOOTH",
"692 637 OFFCURVE",
"697 660 OFFCURVE",
"714 687 CURVE",
"708 700 LINE",
"697 700 OFFCURVE",
"681 704 OFFCURVE",
"671 704 CURVE SMOOTH",
"650 704 OFFCURVE",
"640 696 OFFCURVE",
"627 666 CURVE SMOOTH",
"388 134 LINE",
"134 700 LINE",
"128 703 OFFCURVE",
"121 704 OFFCURVE",
"117 704 CURVE SMOOTH",
"95 704 OFFCURVE",
"84 690 OFFCURVE",
"84 664 CURVE SMOOTH",
"84 0 LINE",
"89 -3 OFFCURVE",
"93 -4 OFFCURVE",
"97 -4 CURVE SMOOTH"
);
}
);
width = 776;
}
);
leftKerningGroup = H;
leftMetricsKey = H;
note = M;
rightKerningGroup = M;
unicode = 004D;
},
{
glyphname = N;
layers = (
{
anchors = (
{
name = bottom;
position = "{320, 0}";
},
{
name = top;
position = "{320, 700}";
}
);
layerId = "45309390-7B6A-4DA2-8B07-FED7B2950A7C";
paths = (
{
closed = 1;
nodes = (
"114 -4 OFFCURVE",
"122 9 OFFCURVE",
"122 31 CURVE SMOOTH",
"122 647 LINE",
"506 0 LINE",
"512 -3 OFFCURVE",
"519 -4 OFFCURVE",
"523 -4 CURVE SMOOTH",
"545 -4 OFFCURVE",
"556 10 OFFCURVE",
"556 36 CURVE SMOOTH",
"556 700 LINE",
"551 703 OFFCURVE",
"547 704 OFFCURVE",
"543 704 CURVE SMOOTH",
"526 704 OFFCURVE",
"518 691 OFFCURVE",
"518 669 CURVE SMOOTH",
"518 53 LINE",
"134 700 LINE",
"128 703 OFFCURVE",
"121 704 OFFCURVE",
"117 704 CURVE SMOOTH",
"95 704 OFFCURVE",
"84 690 OFFCURVE",
"84 664 CURVE SMOOTH",
"84 0 LINE",
"89 -3 OFFCURVE",
"93 -4 OFFCURVE",
"97 -4 CURVE SMOOTH"
);
}
);
width = 640;
}
);
leftKerningGroup = H;
leftMetricsKey = "=|";
note = N;
rightKerningGroup = H;
rightMetricsKey = H;
unicode = 004E;
},
{
glyphname = Eng;
lastChange = "2018-03-12 19:44:15 +0000";
layers = (
{
anchors = (
{
name = bottom;
position = "{320, 0}";
},
{
name = top;
position = "{320, 700}";
}
);
layerId = "45309390-7B6A-4DA2-8B07-FED7B2950A7C";
paths = (
{
closed = 1;
nodes = (
"505 -170 OFFCURVE",
"556 -114 OFFCURVE",
"556 -13 CURVE SMOOTH",
"556 700 LINE",
"551 703 OFFCURVE",
"547 704 OFFCURVE",
"543 704 CURVE SMOOTH",
"526 704 OFFCURVE",
"518 691 OFFCURVE",
"518 669 CURVE SMOOTH",
"518 53 LINE",
"134 700 LINE",
"128 703 OFFCURVE",
"121 704 OFFCURVE",
"117 704 CURVE SMOOTH",
"95 704 OFFCURVE",
"84 690 OFFCURVE",
"84 664 CURVE SMOOTH",
"84 0 LINE",
"89 -3 OFFCURVE",
"93 -4 OFFCURVE",
"97 -4 CURVE SMOOTH",
"114 -4 OFFCURVE",
"122 9 OFFCURVE",
"122 31 CURVE SMOOTH",
"122 647 LINE",
"506 0 LINE",
"510 -2 OFFCURVE",
"514 -3 OFFCURVE",
"518 -4 CURVE",
"518 -13 LINE SMOOTH",
"518 -94 OFFCURVE",
"483 -139 OFFCURVE",
"418 -139 CURVE SMOOTH",
"377 -139 OFFCURVE",
"349 -121 OFFCURVE",
"328 -103 CURVE",
"316 -103 OFFCURVE",
"310 -110 OFFCURVE",
"310 -123 CURVE SMOOTH",
"310 -144 OFFCURVE",
"357 -170 OFFCURVE",
"417 -170 CURVE SMOOTH"
);
}
);
width = 640;
}
);
leftMetricsKey = N;
note = Eng;
rightMetricsKey = N;
unicode = 014A;
},
{
glyphname = O;
layers = (
{
anchors = (
{
name = bottom;
position = "{361, 0}";
},
{
name = center;
position = "{361, 350}";
},
{
name = ogonek;
position = "{650, 10}";
},
{
name = top;
position = "{361, 700}";
},
{
name = topleft;
position = "{20, 700}";
},
{
name = topright;
position = "{623, 510}";
}
);
layerId = "45309390-7B6A-4DA2-8B07-FED7B2950A7C";
paths = (
{
closed = 1;
nodes = (
"551 -10 OFFCURVE",
"672 130 OFFCURVE",
"672 351 CURVE SMOOTH",
"672 571 OFFCURVE",
"551 710 OFFCURVE",
"360 710 CURVE SMOOTH",
"170 710 OFFCURVE",
"50 571 OFFCURVE",
"50 351 CURVE SMOOTH",
"50 130 OFFCURVE",
"170 -10 OFFCURVE",
"360 -10 CURVE SMOOTH"
);
},
{
closed = 1;
nodes = (
"194 21 OFFCURVE",
"89 149 OFFCURVE",
"89 351 CURVE SMOOTH",
"89 552 OFFCURVE",
"194 679 OFFCURVE",
"360 679 CURVE SMOOTH",
"527 679 OFFCURVE",
"633 552 OFFCURVE",
"633 351 CURVE SMOOTH",
"633 149 OFFCURVE",
"527 21 OFFCURVE",
"360 21 CURVE SMOOTH"
);
}
);
width = 722;
}
);
leftKerningGroup = O;
note = O;
rightKerningGroup = O;
unicode = 004F;
},
{
glyphname = Oslash;
layers = (
{
components = (
{
name = O;
}
);
layerId = "45309390-7B6A-4DA2-8B07-FED7B2950A7C";
paths = (
{
closed = 1;
nodes = (
"162 -60 LINE",
"599 760 LINE",
"560 760 LINE",
"123 -60 LINE"
);
}
);
width = 722;
}
);
leftMetricsKey = O;
note = Oslash;
rightMetricsKey = O;
unicode = 00D8;
},
{
glyphname = OE;
lastChange = "2018-03-12 19:44:15 +0000";
layers = (
{
anchors = (
{
name = bottom;
position = "{527, 0}";
},
{
name = top;
position = "{527, 700}";
}
);
layerId = "45309390-7B6A-4DA2-8B07-FED7B2950A7C";
paths = (
{
closed = 1;
nodes = (
"489 -10 OFFCURVE",
"587 54 OFFCURVE",
"636 164 CURVE",
"635 91 OFFCURVE",
"628 50 OFFCURVE",
"610 13 CURVE",
"616 0 LINE",
"983 0 LINE SMOOTH",
"1001 0 OFFCURVE",
"1012 7 OFFCURVE",
"1012 20 CURVE SMOOTH",
"1012 24 OFFCURVE",
"1011 28 OFFCURVE",
"1009 32 CURVE",
"656 32 LINE",
"672 74 OFFCURVE",
"674 136 OFFCURVE",
"674 188 CURVE SMOOTH",
"674 355 LINE",
"935 355 LINE SMOOTH",
"953 355 OFFCURVE",
"964 361 OFFCURVE",
"964 374 CURVE SMOOTH",
"964 378 OFFCURVE",
"963 382 OFFCURVE",
"961 386 CURVE",
"674 386 LINE",
"674 514 LINE SMOOTH",
"674 566 OFFCURVE",
"672 626 OFFCURVE",
"656 668 CURVE",
"967 668 LINE SMOOTH",
"985 668 OFFCURVE",
"996 675 OFFCURVE",
"996 688 CURVE SMOOTH",
"996 692 OFFCURVE",
"995 696 OFFCURVE",
"993 700 CURVE",
"616 700 LINE",
"610 687 LINE",
"628 650 OFFCURVE",
"635 610 OFFCURVE",
"636 537 CURVE",
"587 646 OFFCURVE",
"489 710 OFFCURVE",
"360 710 CURVE SMOOTH",
"170 710 OFFCURVE",
"50 571 OFFCURVE",
"50 351 CURVE SMOOTH",
"50 130 OFFCURVE",
"170 -10 OFFCURVE",
"360 -10 CURVE SMOOTH"
);
},
{
closed = 1;
nodes = (
"194 21 OFFCURVE",
"89 149 OFFCURVE",
"89 351 CURVE SMOOTH",
"89 552 OFFCURVE",
"194 679 OFFCURVE",
"360 679 CURVE SMOOTH",
"527 679 OFFCURVE",
"633 552 OFFCURVE",
"633 351 CURVE SMOOTH",
"633 149 OFFCURVE",
"527 21 OFFCURVE",
"360 21 CURVE SMOOTH"
);
}
);
width = 1046;
}
);
leftMetricsKey = O;
note = OE;
rightMetricsKey = E;
unicode = 0152;
},
{
glyphname = P;
layers = (
{
anchors = (
{
name = bottom;
position = "{107, 0}";
},
{
name = top;
position = "{261, 700}";
}
);
layerId = "45309390-7B6A-4DA2-8B07-FED7B2950A7C";
paths = (
{
closed = 1;
nodes = (
"118 -4 OFFCURVE",
"126 9 OFFCURVE",
"126 31 CURVE SMOOTH",
"126 514 LINE SMOOTH",
"126 573 OFFCURVE",
"123 641 OFFCURVE",
"102 683 CURVE",
"97 672 LINE",
"133 672 OFFCURVE",
"208 678 OFFCURVE",
"253 678 CURVE SMOOTH",
"374 678 OFFCURVE",
"451 613 OFFCURVE",
"451 512 CURVE SMOOTH",
"451 411 OFFCURVE",
"374 346 OFFCURVE",
"253 346 CURVE SMOOTH",
"116 346 LINE",
"116 315 LINE",
"237 315 LINE SMOOTH",
"392 315 OFFCURVE",
"490 392 OFFCURVE",
"490 512 CURVE SMOOTH",
"490 633 OFFCURVE",
"392 710 OFFCURVE",
"237 710 CURVE SMOOTH",
"177 710 OFFCURVE",
"124 704 OFFCURVE",
"68 704 CURVE",
"62 691 LINE",
"82 650 OFFCURVE",
"88 602 OFFCURVE",
"88 514 CURVE SMOOTH",
"88 0 LINE",
"93 -3 OFFCURVE",
"97 -4 OFFCURVE",
"101 -4 CURVE SMOOTH"
);
}
);
width = 522;
}
);
leftKerningGroup = F;
leftMetricsKey = F;
note = P;
rightKerningGroup = P;
unicode = 0050;
},
{
glyphname = Thorn;
layers = (
{
layerId = "45309390-7B6A-4DA2-8B07-FED7B2950A7C";
paths = (
{
closed = 1;
nodes = (
"259 192 LINE SMOOTH",
"395 192 OFFCURVE",
"482 263 OFFCURVE",
"482 376 CURVE SMOOTH",
"482 489 OFFCURVE",
"395 560 OFFCURVE",
"259 560 CURVE SMOOTH",
"110 560 LINE",
"110 529 LINE",
"275 529 LINE SMOOTH",
"378 529 OFFCURVE",
"443 470 OFFCURVE",
"443 376 CURVE SMOOTH",
"443 282 OFFCURVE",
"378 223 OFFCURVE",
"275 223 CURVE SMOOTH",
"110 223 LINE",
"110 192 LINE"
);
},
{
closed = 1;
nodes = (
"114 -4 OFFCURVE",
"122 9 OFFCURVE",
"122 31 CURVE SMOOTH",
"122 716 LINE",
"117 719 OFFCURVE",
"113 720 OFFCURVE",
"109 720 CURVE SMOOTH",
"92 720 OFFCURVE",
"84 707 OFFCURVE",
"84 685 CURVE SMOOTH",
"84 0 LINE",
"89 -3 OFFCURVE",
"93 -4 OFFCURVE",
"97 -4 CURVE SMOOTH"
);
}
);
width = 514;
}
);
leftMetricsKey = H;
note = Thorn;
rightMetricsKey = P;
unicode = 00DE;
},
{
glyphname = Q;
layers = (
{
anchors = (
{
name = bottom;
position = "{361, -150}";
},
{
name = top;
position = "{361, 700}";
}
);
layerId = "45309390-7B6A-4DA2-8B07-FED7B2950A7C";
paths = (
{
closed = 1;
nodes = (
"551 -10 OFFCURVE",
"672 130 OFFCURVE",
"672 351 CURVE SMOOTH",
"672 571 OFFCURVE",
"551 710 OFFCURVE",
"360 710 CURVE SMOOTH",
"170 710 OFFCURVE",
"50 571 OFFCURVE",
"50 351 CURVE SMOOTH",
"50 130 OFFCURVE",
"170 -10 OFFCURVE",
"360 -10 CURVE SMOOTH"
);
},
{
closed = 1;
nodes = (
"194 21 OFFCURVE",
"89 149 OFFCURVE",
"89 351 CURVE SMOOTH",
"89 552 OFFCURVE",
"194 679 OFFCURVE",
"360 679 CURVE SMOOTH",
"527 679 OFFCURVE",
"633 552 OFFCURVE",
"633 351 CURVE SMOOTH",
"633 149 OFFCURVE",
"527 21 OFFCURVE",
"360 21 CURVE SMOOTH"
);
},
{
closed = 1;
nodes = (
"600 -150 OFFCURVE",
"618 -141 OFFCURVE",
"618 -120 CURVE",
"498 -120 OFFCURVE",
"447 -96 OFFCURVE",
"211 51 CURVE",
"172 51 LINE",
"389 -109 OFFCURVE",
"482 -150 OFFCURVE",
"572 -150 CURVE SMOOTH"
);
}
);
width = 722;
}
);
leftKerningGroup = O;
leftMetricsKey = O;
note = Q;
rightKerningGroup = O;
rightMetricsKey = O;
unicode = 0051;
},
{
glyphname = R;
layers = (
{
anchors = (
{
name = bottom;
position = "{279, 0}";
},
{
name = top;
position = "{249, 700}";
}
);
layerId = "45309390-7B6A-4DA2-8B07-FED7B2950A7C";
paths = (
{
closed = 1;
nodes = (
"118 -4 OFFCURVE",
"126 9 OFFCURVE",
"126 31 CURVE SMOOTH",
"126 514 LINE SMOOTH",
"126 573 OFFCURVE",
"123 641 OFFCURVE",
"102 683 CURVE",
"97 672 LINE",
"133 672 OFFCURVE",
"208 678 OFFCURVE",
"253 678 CURVE SMOOTH",
"369 678 OFFCURVE",
"443 618 OFFCURVE",
"443 523 CURVE SMOOTH",
"443 425 OFFCURVE",
"369 362 OFFCURVE",
"253 362 CURVE SMOOTH",
"116 362 LINE",
"116 331 LINE",
"237 331 LINE SMOOTH",
"387 331 OFFCURVE",
"482 406 OFFCURVE",
"482 523 CURVE SMOOTH",
"482 637 OFFCURVE",
"387 710 OFFCURVE",
"237 710 CURVE SMOOTH",
"177 710 OFFCURVE",
"124 704 OFFCURVE",
"68 704 CURVE",
"62 691 LINE",
"82 650 OFFCURVE",
"88 602 OFFCURVE",
"88 514 CURVE SMOOTH",
"88 0 LINE",
"93 -3 OFFCURVE",
"97 -4 OFFCURVE",
"101 -4 CURVE SMOOTH"
);
},
{
closed = 1;
nodes = (
"516 -4 OFFCURVE",
"524 -2 OFFCURVE",
"531 1 CURVE",
"531 7 LINE",
"509 20 OFFCURVE",
"488 52 OFFCURVE",
"433 172 CURVE SMOOTH",
"373 304 OFFCURVE",
"342 343 OFFCURVE",
"273 356 CURVE",
"234 347 LINE",
"312 325 OFFCURVE",
"342 286 OFFCURVE",
"401 154 CURVE SMOOTH",
"466 8 OFFCURVE",
"482 -4 OFFCURVE",
"506 -4 CURVE SMOOTH"
);
}
);
width = 557;
}
);
leftKerningGroup = F;
leftMetricsKey = F;
note = R;
rightKerningGroup = R;
unicode = 0052;
},
{
glyphname = S;
layers = (
{
anchors = (
{
name = bottom;
position = "{274, 0}";
},
{
name = top;
position = "{268, 700}";
}
);
layerId = "45309390-7B6A-4DA2-8B07-FED7B2950A7C";
paths = (
{
closed = 1;
nodes = (
"413 -10 OFFCURVE",
"492 58 OFFCURVE",
"492 180 CURVE SMOOTH",
"492 280 OFFCURVE",
"437 336 OFFCURVE",
"282 392 CURVE SMOOTH",
"151 439 OFFCURVE",
"104 481 OFFCURVE",
"104 551 CURVE SMOOTH",
"104 630 OFFCURVE",
"160 679 OFFCURVE",
"263 679 CURVE SMOOTH",
"342 679 OFFCURVE",
"409 650 OFFCURVE",
"456 600 CURVE",
"469 600 OFFCURVE",
"476 606 OFFCURVE",
"476 618 CURVE SMOOTH",
"476 638 OFFCURVE",
"390 710 OFFCURVE",
"258 710 CURVE SMOOTH",
"137 710 OFFCURVE",
"66 654 OFFCURVE",
"66 549 CURVE SMOOTH",
"66 462 OFFCURVE",
"116 410 OFFCURVE",
"256 361 CURVE SMOOTH",
"402 311 OFFCURVE",
"454 262 OFFCURVE",
"454 175 CURVE SMOOTH",
"454 78 OFFCURVE",
"390 21 OFFCURVE",
"265 21 CURVE SMOOTH",
"176 21 OFFCURVE",
"109 50 OFFCURVE",
"62 100 CURVE",
"49 100 OFFCURVE",
"42 94 OFFCURVE",
"42 82 CURVE SMOOTH",
"42 62 OFFCURVE",
"128 -10 OFFCURVE",
"272 -10 CURVE SMOOTH"
);
}
);
width = 536;
}
);
leftKerningGroup = S;
note = S;
rightKerningGroup = S;
unicode = 0053;
},
{
glyphname = Germandbls;
layers = (
{
layerId = "45309390-7B6A-4DA2-8B07-FED7B2950A7C";
paths = (
{
closed = 1;
nodes = (
"433 -10 OFFCURVE",
"513 67 OFFCURVE",
"513 185 CURVE SMOOTH",
"513 309 OFFCURVE",
"427 385 OFFCURVE",
"291 385 CURVE",
"468 537 LINE",
"442 654 OFFCURVE",
"376 710 OFFCURVE",
"266 710 CURVE SMOOTH",
"151 710 OFFCURVE",
"78 647 OFFCURVE",
"78 547 CURVE SMOOTH",
"78 0 LINE",
"83 -3 OFFCURVE",
"87 -4 OFFCURVE",
"91 -4 CURVE SMOOTH",
"108 -4 OFFCURVE",
"116 9 OFFCURVE",
"116 31 CURVE SMOOTH",
"116 547 LINE SMOOTH",
"116 628 OFFCURVE",
"174 679 OFFCURVE",
"266 679 CURVE SMOOTH",
"352 679 OFFCURVE",
"405 635 OFFCURVE",
"424 545 CURVE",
"226 373 LINE",
"226 353 LINE",
"288 353 LINE SMOOTH",
"402 353 OFFCURVE",
"474 289 OFFCURVE",
"474 185 CURVE SMOOTH",
"474 86 OFFCURVE",
"409 21 OFFCURVE",
"309 21 CURVE SMOOTH",
"255 21 OFFCURVE",
"228 40 OFFCURVE",
"207 58 CURVE",
"195 58 OFFCURVE",
"189 51 OFFCURVE",
"189 38 CURVE SMOOTH",
"189 17 OFFCURVE",
"236 -10 OFFCURVE",
"309 -10 CURVE SMOOTH"
);
}
);
width = 559;
}
);
note = uni1E9E;
rightMetricsKey = B;
unicode = 1E9E;
},
{
glyphname = Schwa;
layers = (
{
layerId = "45309390-7B6A-4DA2-8B07-FED7B2950A7C";
paths = (
{
closed = 1;
nodes = (
"499 -10 OFFCURVE",
"610 130 OFFCURVE",
"610 350 CURVE SMOOTH",
"610 570 OFFCURVE",
"492 710 OFFCURVE",
"301 710 CURVE SMOOTH",
"164 710 OFFCURVE",
"68 638 OFFCURVE",
"68 618 CURVE SMOOTH",
"68 606 OFFCURVE",
"76 600 OFFCURVE",
"90 600 CURVE",
"142 650 OFFCURVE",
"217 679 OFFCURVE",
"298 679 CURVE SMOOTH",
"465 679 OFFCURVE",
"568 556 OFFCURVE",
"571 362 CURVE",
"52 362 LINE",
"49 350 OFFCURVE",
"48 339 OFFCURVE",
"48 325 CURVE SMOOTH",
"48 120 OFFCURVE",
"146 -10 OFFCURVE",
"325 -10 CURVE SMOOTH"
);
},
{
closed = 1;
nodes = (
"168 21 OFFCURVE",
"91 131 OFFCURVE",
"87 328 CURVE",
"571 334 LINE",
"568 143 OFFCURVE",
"472 21 OFFCURVE",
"325 21 CURVE SMOOTH"
);
}
);
width = 660;
}
);
note = uni018F;
unicode = 018F;
},
{
glyphname = T;
layers = (
{
anchors = (
{
name = bottom;
position = "{252, 0}";
},
{
name = center;
position = "{252, 350}";
},
{
name = top;
position = "{252, 700}";
}
);
layerId = "45309390-7B6A-4DA2-8B07-FED7B2950A7C";
paths = (
{
closed = 1;
nodes = (
"263 -4 OFFCURVE",
"271 9 OFFCURVE",
"271 31 CURVE SMOOTH",
"271 684 LINE",
"233 684 LINE",
"233 0 LINE",
"238 -3 OFFCURVE",
"242 -4 OFFCURVE",
"246 -4 CURVE SMOOTH"
);
},
{
closed = 1;
nodes = (
"449 668 LINE SMOOTH",
"467 668 OFFCURVE",
"478 675 OFFCURVE",
"478 688 CURVE SMOOTH",
"478 692 OFFCURVE",
"477 696 OFFCURVE",
"475 700 CURVE",
"55 700 LINE SMOOTH",
"37 700 OFFCURVE",
"26 693 OFFCURVE",
"26 680 CURVE SMOOTH",
"26 676 OFFCURVE",
"27 672 OFFCURVE",
"29 668 CURVE"
);
}
);
width = 504;
}
);
leftKerningGroup = T;
note = T;
rightKerningGroup = T;
unicode = 0054;
},
{
glyphname = Tbar;
layers = (
{
components = (
{
name = T;
}
);
layerId = "45309390-7B6A-4DA2-8B07-FED7B2950A7C";
paths = (
{
closed = 1;
nodes = (
"434 344 LINE",
"434 374 LINE",
"70 374 LINE",
"70 344 LINE"
);
}
);
width = 504;
}
);
leftKerningGroup = T;
note = Tbar;
rightKerningGroup = T;
unicode = 0166;
},
{
glyphname = U;
layers = (
{
anchors = (
{
name = bottom;
position = "{308, 0}";
},
{
name = ogonek;
position = "{340, 4}";
},
{
name = top;
position = "{308, 700}";
},
{
name = topright;
position = "{539, 510}";
}
);
layerId = "45309390-7B6A-4DA2-8B07-FED7B2950A7C";
paths = (
{
closed = 1;
nodes = (
"449 -10 OFFCURVE",
"538 95 OFFCURVE",
"538 261 CURVE SMOOTH",
"538 700 LINE",
"533 703 OFFCURVE",
"529 704 OFFCURVE",
"525 704 CURVE SMOOTH",
"508 704 OFFCURVE",
"500 691 OFFCURVE",
"500 669 CURVE SMOOTH",
"500 277 LINE SMOOTH",
"500 112 OFFCURVE",
"431 21 OFFCURVE",
"308 21 CURVE SMOOTH",
"185 21 OFFCURVE",
"116 112 OFFCURVE",
"116 277 CURVE SMOOTH",
"116 700 LINE",
"111 703 OFFCURVE",
"107 704 OFFCURVE",
"103 704 CURVE SMOOTH",
"86 704 OFFCURVE",
"78 691 OFFCURVE",
"78 669 CURVE SMOOTH",
"78 261 LINE SMOOTH",
"78 95 OFFCURVE",
"167 -10 OFFCURVE",
"308 -10 CURVE SMOOTH"
);
}
);
width = 616;
}
);
leftKerningGroup = U;
leftMetricsKey = "=|";
note = U;
rightKerningGroup = U;
unicode = 0055;
},
{
glyphname = V;
layers = (
{
anchors = (
{
name = bottom;
position = "{282, 0}";
},
{
name = top;
position = "{282, 700}";
}
);
layerId = "45309390-7B6A-4DA2-8B07-FED7B2950A7C";
paths = (
{
closed = 1;
nodes = (
"285 0 LINE",
"538 700 LINE",
"532 703 OFFCURVE",
"525 704 OFFCURVE",
"520 704 CURVE SMOOTH",
"508 704 OFFCURVE",
"499 697 OFFCURVE",
"494 683 CURVE SMOOTH",
"277 83 LINE",
"53 704 LINE",
"33 704 OFFCURVE",
"21 689 OFFCURVE",
"28 669 CURVE SMOOTH",
"269 0 LINE"
);
}
);
width = 564;
}
);
leftKerningGroup = V;
note = V;
rightKerningGroup = V;
unicode = 0056;
},
{
glyphname = W;
layers = (
{
anchors = (
{
name = bottom;
position = "{419, 0}";
},
{
name = top;
position = "{419, 700}";
}
);
layerId = "45309390-7B6A-4DA2-8B07-FED7B2950A7C";
paths = (
{
closed = 1;
nodes = (
"234 0 LINE",
"415 646 LINE",
"596 0 LINE",
"612 0 LINE",
"810 700 LINE",
"804 703 OFFCURVE",
"797 704 OFFCURVE",
"792 704 CURVE SMOOTH",
"780 704 OFFCURVE",
"770 698 OFFCURVE",
"766 683 CURVE SMOOTH",
"604 99 LINE",
"438 700 LINE",
"432 703 OFFCURVE",
"427 704 OFFCURVE",
"421 704 CURVE SMOOTH",
"403 704 OFFCURVE",
"391 695 OFFCURVE",
"385 674 CURVE SMOOTH",
"226 100 LINE",
"58 704 LINE",
"33 704 OFFCURVE",
"23 690 OFFCURVE",
"30 665 CURVE SMOOTH",
"218 0 LINE"
);
}
);
width = 838;
}
);
leftKerningGroup = V;
note = W;
rightKerningGroup = V;
unicode = 0057;
},
{
glyphname = X;
layers = (
{
anchors = (
{
name = bottom;
position = "{287, 0}";
},
{
name = top;
position = "{287, 700}";
}
);
layerId = "45309390-7B6A-4DA2-8B07-FED7B2950A7C";
paths = (
{
closed = 1;
nodes = (
"76 -4 OFFCURVE",
"84 4 OFFCURVE",
"94 21 CURVE SMOOTH",
"505 700 LINE",
"497 703 OFFCURVE",
"488 704 OFFCURVE",
"483 704 CURVE SMOOTH",
"470 704 OFFCURVE",
"461 696 OFFCURVE",
"450 677 CURVE SMOOTH",
"40 0 LINE",
"45 -2 OFFCURVE",
"54 -4 OFFCURVE",
"61 -4 CURVE SMOOTH"
);
},
{
closed = 1;
nodes = (
"532 -4 OFFCURVE",
"542 11 OFFCURVE",
"527 33 CURVE SMOOTH",
"83 704 LINE",
"60 704 OFFCURVE",
"52 690 OFFCURVE",
"64 671 CURVE SMOOTH",
"511 -4 LINE"
);
}
);
width = 574;
}
);
leftKerningGroup = X;
note = X;
rightKerningGroup = X;
unicode = 0058;
},
{
glyphname = Y;
layers = (
{
anchors = (
{
name = bottom;
position = "{255, 0}";
},
{
name = top;
position = "{261, 700}";
},
{
name = topleft;
position = "{20, 700}";
}
);
layerId = "45309390-7B6A-4DA2-8B07-FED7B2950A7C";
paths = (
{
closed = 1;
nodes = (
"266 -4 OFFCURVE",
"274 9 OFFCURVE",
"274 31 CURVE SMOOTH",
"274 288 LINE",
"503 700 LINE",
"497 703 OFFCURVE",
"489 704 OFFCURVE",
"484 704 CURVE SMOOTH",
"471 704 OFFCURVE",
"464 698 OFFCURVE",
"454 680 CURVE SMOOTH",
"255 321 LINE",
"43 704 LINE",
"18 704 OFFCURVE",
"12 691 OFFCURVE",
"25 668 CURVE SMOOTH",
"236 288 LINE",
"236 0 LINE",
"241 -3 OFFCURVE",
"245 -4 OFFCURVE",
"249 -4 CURVE SMOOTH"
);
}
);
width = 521;
}
);
leftKerningGroup = Y;
note = Y;
rightKerningGroup = Y;
unicode = 0059;
},
{
glyphname = Z;
layers = (
{
anchors = (
{
name = bottom;
position = "{253, 0}";
},
{
name = top;
position = "{253, 700}";
}
);
layerId = "45309390-7B6A-4DA2-8B07-FED7B2950A7C";
paths = (
{
closed = 1;
nodes = (
"451 0 LINE SMOOTH",
"469 0 OFFCURVE",
"480 7 OFFCURVE",
"480 20 CURVE SMOOTH",
"480 24 OFFCURVE",
"479 28 OFFCURVE",
"477 32 CURVE",
"74 32 LINE",
"472 688 LINE",
"472 700 LINE",
"67 700 LINE SMOOTH",
"49 700 OFFCURVE",
"38 693 OFFCURVE",
"38 680 CURVE SMOOTH",
"38 676 OFFCURVE",
"39 672 OFFCURVE",
"41 668 CURVE",
"422 668 LINE",
"22 12 LINE",
"22 0 LINE"
);
}
);
width = 506;
}
);
leftKerningGroup = Z;
note = Z;
rightKerningGroup = Z;
unicode = 005A;
},
{
glyphname = a;
layers = (
{
anchors = (
{
name = bottom;
position = "{233, 0}";
},
{
name = ogonek;
position = "{379, 10}";
},
{
name = top;
position = "{233, 510}";
}
);
layerId = "45309390-7B6A-4DA2-8B07-FED7B2950A7C";
paths = (
{
closed = 1;
nodes = (
"271 -10 OFFCURVE",
"329 21 OFFCURVE",
"365 64 CURVE",
"365 0 LINE",
"370 -3 OFFCURVE",
"374 -4 OFFCURVE",
"378 -4 CURVE SMOOTH",
"395 -4 OFFCURVE",
"402 9 OFFCURVE",
"402 31 CURVE SMOOTH",
"402 330 LINE SMOOTH",
"402 446 OFFCURVE",
"331 520 OFFCURVE",
"227 520 CURVE SMOOTH",
"135 520 OFFCURVE",
"66 464 OFFCURVE",
"66 444 CURVE SMOOTH",
"66 432 OFFCURVE",
"73 426 OFFCURVE",
"86 426 CURVE",
"132 474 OFFCURVE",
"178 490 OFFCURVE",
"223 490 CURVE SMOOTH",
"309 490 OFFCURVE",
"365 428 OFFCURVE",
"365 330 CURVE SMOOTH",
"365 254 LINE",
"337 283 OFFCURVE",
"289 303 OFFCURVE",
"225 303 CURVE SMOOTH",
"118 303 OFFCURVE",
"50 242 OFFCURVE",
"50 145 CURVE SMOOTH",
"50 50 OFFCURVE",
"110 -10 OFFCURVE",
"205 -10 CURVE SMOOTH"
);
},
{
closed = 1;
nodes = (
"132 20 OFFCURVE",
"88 68 OFFCURVE",
"88 144 CURVE SMOOTH",
"88 223 OFFCURVE",
"139 273 OFFCURVE",
"220 273 CURVE SMOOTH",
"293 273 OFFCURVE",
"365 246 OFFCURVE",
"365 185 CURVE SMOOTH",
"365 152 LINE SMOOTH",
"365 70 OFFCURVE",
"278 20 OFFCURVE",
"201 20 CURVE SMOOTH"
);
}
);
width = 466;
}
);
leftKerningGroup = a;
note = a;
rightKerningGroup = n;
rightMetricsKey = n;
unicode = 0061;
},
{
glyphname = "alpha-latin";
layers = (
{
layerId = "45309390-7B6A-4DA2-8B07-FED7B2950A7C";
paths = (
{
closed = 1;
nodes = (
"308 -10 OFFCURVE",
"367 31 OFFCURVE",
"405 96 CURVE",
"405 0 LINE",
"410 -3 OFFCURVE",
"414 -4 OFFCURVE",
"418 -4 CURVE SMOOTH",
"435 -4 OFFCURVE",
"442 9 OFFCURVE",
"442 31 CURVE SMOOTH",
"442 341 LINE SMOOTH",
"442 450 OFFCURVE",
"367 520 OFFCURVE",
"255 520 CURVE SMOOTH",
"120 520 OFFCURVE",
"40 408 OFFCURVE",
"40 242 CURVE SMOOTH",
"40 84 OFFCURVE",
"112 -10 OFFCURVE",
"233 -10 CURVE SMOOTH"
);
},
{
closed = 1;
nodes = (
"132 20 OFFCURVE",
"78 102 OFFCURVE",
"78 242 CURVE SMOOTH",
"78 390 OFFCURVE",
"140 490 OFFCURVE",
"255 490 CURVE SMOOTH",
"336 490 OFFCURVE",
"405 434 OFFCURVE",
"405 341 CURVE SMOOTH",
"405 225 LINE SMOOTH",
"405 106 OFFCURVE",
"331 20 OFFCURVE",
"233 20 CURVE SMOOTH"
);
}
);
width = 506;
}
);
leftKerningGroup = a;
note = ascript;
rightKerningGroup = a;
unicode = 0251;
},
{
glyphname = ae;
lastChange = "2018-03-12 19:44:15 +0000";
layers = (
{
anchors = (
{
name = bottom;
position = "{396, 0}";
},
{
name = top;
position = "{396, 510}";
}
);
layerId = "45309390-7B6A-4DA2-8B07-FED7B2950A7C";
paths = (
{
closed = 1;
nodes = (
"301 -10 OFFCURVE",
"370 38 OFFCURVE",
"393 119 CURVE",
"429 37 OFFCURVE",
"498 -10 OFFCURVE",
"591 -10 CURVE SMOOTH",
"693 -10 OFFCURVE",
"767 48 OFFCURVE",
"767 68 CURVE SMOOTH",
"767 80 OFFCURVE",
"760 86 OFFCURVE",
"747 86 CURVE",
"703 43 OFFCURVE",
"650 20 OFFCURVE",
"591 20 CURVE SMOOTH",
"477 20 OFFCURVE",
"408 108 OFFCURVE",
"406 246 CURVE",
"778 246 LINE",
"781 256 OFFCURVE",
"782 264 OFFCURVE",
"782 274 CURVE SMOOTH",
"782 425 OFFCURVE",
"709 520 OFFCURVE",
"578 520 CURVE SMOOTH",
"492 520 OFFCURVE",
"427 473 OFFCURVE",
"394 395 CURVE",
"372 473 OFFCURVE",
"310 520 OFFCURVE",
"227 520 CURVE SMOOTH",
"135 520 OFFCURVE",
"66 464 OFFCURVE",
"66 444 CURVE SMOOTH",
"66 432 OFFCURVE",
"73 426 OFFCURVE",
"86 426 CURVE",
"132 474 OFFCURVE",
"178 490 OFFCURVE",
"223 490 CURVE SMOOTH",
"309 490 OFFCURVE",
"365 428 OFFCURVE",
"365 330 CURVE SMOOTH",
"365 254 LINE",
"337 283 OFFCURVE",
"289 303 OFFCURVE",
"225 303 CURVE SMOOTH",
"118 303 OFFCURVE",
"50 242 OFFCURVE",
"50 145 CURVE SMOOTH",
"50 50 OFFCURVE",
"110 -10 OFFCURVE",
"205 -10 CURVE SMOOTH"
);
},
{
closed = 1;
nodes = (
"132 20 OFFCURVE",
"88 68 OFFCURVE",
"88 144 CURVE SMOOTH",
"88 223 OFFCURVE",
"139 273 OFFCURVE",
"220 273 CURVE SMOOTH",
"293 273 OFFCURVE",
"365 246 OFFCURVE",
"365 185 CURVE SMOOTH",
"365 152 LINE SMOOTH",
"365 70 OFFCURVE",
"278 20 OFFCURVE",
"201 20 CURVE SMOOTH"
);
},
{
closed = 1;
nodes = (
"409 406 OFFCURVE",
"476 490 OFFCURVE",
"579 490 CURVE SMOOTH",
"686 490 OFFCURVE",
"740 408 OFFCURVE",
"745 280 CURVE",
"407 274 LINE"
);
}
);
width = 820;
}
);
leftMetricsKey = a;
note = ae;
rightMetricsKey = e;
unicode = 00E6;
},
{
glyphname = b;
layers = (
{
anchors = (
{
name = bottom;
position = "{268, 0}";
},
{
name = top;
position = "{103, 720}";
}
);
layerId = "45309390-7B6A-4DA2-8B07-FED7B2950A7C";
paths = (
{
closed = 1;
nodes = (
"415 -10 OFFCURVE",
"496 103 OFFCURVE",
"496 267 CURVE SMOOTH",
"496 427 OFFCURVE",
"419 520 OFFCURVE",
"298 520 CURVE SMOOTH",
"218 520 OFFCURVE",
"159 479 OFFCURVE",
"121 414 CURVE",
"121 716 LINE",
"116 719 OFFCURVE",
"112 720 OFFCURVE",
"108 720 CURVE SMOOTH",
"91 720 OFFCURVE",
"84 707 OFFCURVE",
"84 685 CURVE SMOOTH",
"84 188 LINE SMOOTH",
"84 100 OFFCURVE",
"76 72 OFFCURVE",
"54 31 CURVE",
"60 18 LINE",
"135 18 OFFCURVE",
"188 -10 OFFCURVE",
"264 -10 CURVE SMOOTH"
);
},
{
closed = 1;
nodes = (
"211 20 OFFCURVE",
"152 48 OFFCURVE",
"89 48 CURVE",
"93 37 LINE",
"116 79 OFFCURVE",
"121 129 OFFCURVE",
"121 188 CURVE SMOOTH",
"121 285 LINE SMOOTH",
"121 404 OFFCURVE",
"195 490 OFFCURVE",
"298 490 CURVE SMOOTH",
"399 490 OFFCURVE",
"458 408 OFFCURVE",
"458 266 CURVE SMOOTH",
"458 120 OFFCURVE",
"395 20 OFFCURVE",
"275 20 CURVE SMOOTH"
);
}
);
width = 536;
}
);
leftKerningGroup = b;
note = b;
rightKerningGroup = o;
rightMetricsKey = o;
unicode = 0062;
},
{
glyphname = c;
layers = (
{
anchors = (
{
name = bottom;
position = "{267, 0}";
},
{
name = top;
position = "{261, 510}";
}
);
layerId = "45309390-7B6A-4DA2-8B07-FED7B2950A7C";
paths = (
{
closed = 1;
nodes = (
"357 -10 OFFCURVE",
"431 46 OFFCURVE",
"431 66 CURVE SMOOTH",
"431 78 OFFCURVE",
"424 84 OFFCURVE",
"411 84 CURVE",
"367 41 OFFCURVE",
"317 20 OFFCURVE",
"261 20 CURVE SMOOTH",
"145 20 OFFCURVE",
"78 111 OFFCURVE",
"78 255 CURVE SMOOTH",
"78 399 OFFCURVE",
"145 490 OFFCURVE",
"261 490 CURVE SMOOTH",
"317 490 OFFCURVE",
"367 469 OFFCURVE",
"411 426 CURVE",
"424 426 OFFCURVE",
"431 432 OFFCURVE",
"431 444 CURVE SMOOTH",
"431 464 OFFCURVE",
"357 520 OFFCURVE",
"261 520 CURVE SMOOTH",
"131 520 OFFCURVE",
"40 417 OFFCURVE",
"40 255 CURVE SMOOTH",
"40 93 OFFCURVE",
"131 -10 OFFCURVE",
"261 -10 CURVE SMOOTH"
);
}
);
width = 471;
}
);
leftKerningGroup = o;
leftMetricsKey = o;
note = c;
rightKerningGroup = c;
unicode = 0063;
},
{
glyphname = d;
lastChange = "2018-03-12 19:44:15 +0000";
layers = (
{
anchors = (
{
name = bottom;
position = "{265, 0}";
},
{
name = center;
position = "{265, 255}";
},
{
name = top;
position = "{439, 724}";
},
{
name = topright;
position = "{447, 510}";
}
);
layerId = "45309390-7B6A-4DA2-8B07-FED7B2950A7C";
paths = (
{
closed = 1;
nodes = (
"318 -10 OFFCURVE",
"377 31 OFFCURVE",
"415 96 CURVE",
"415 0 LINE",
"420 -3 OFFCURVE",
"424 -4 OFFCURVE",
"428 -4 CURVE SMOOTH",
"445 -4 OFFCURVE",
"452 9 OFFCURVE",
"452 31 CURVE SMOOTH",
"452 720 LINE",
"447 723 OFFCURVE",
"443 724 OFFCURVE",
"439 724 CURVE SMOOTH",
"422 724 OFFCURVE",
"415 711 OFFCURVE",
"415 689 CURVE SMOOTH",
"415 449 LINE",
"383 489 OFFCURVE",
"331 520 OFFCURVE",
"260 520 CURVE SMOOTH",
"125 520 OFFCURVE",
"40 408 OFFCURVE",
"40 242 CURVE SMOOTH",
"40 84 OFFCURVE",
"117 -10 OFFCURVE",
"238 -10 CURVE SMOOTH"
);
},
{
closed = 1;
nodes = (
"137 20 OFFCURVE",
"78 102 OFFCURVE",
"78 242 CURVE SMOOTH",
"78 390 OFFCURVE",
"145 490 OFFCURVE",
"260 490 CURVE SMOOTH",
"346 490 OFFCURVE",
"415 434 OFFCURVE",
"415 341 CURVE SMOOTH",
"415 225 LINE SMOOTH",
"415 106 OFFCURVE",
"341 20 OFFCURVE",
"238 20 CURVE SMOOTH"
);
}
);
width = 530;
}
);
leftKerningGroup = o;
leftMetricsKey = o;
note = d;
rightKerningGroup = u;
rightMetricsKey = u;
unicode = 0064;
},
{
glyphname = eth;
layers = (
{
layerId = "45309390-7B6A-4DA2-8B07-FED7B2950A7C";
paths = (
{
closed = 1;
nodes = (
"369 -10 OFFCURVE",
"454 92 OFFCURVE",
"454 252 CURVE SMOOTH",
"454 400 LINE SMOOTH",
"454 599 OFFCURVE",
"374 710 OFFCURVE",
"230 710 CURVE SMOOTH",
"185 710 OFFCURVE",
"155 689 OFFCURVE",
"155 669 CURVE SMOOTH",
"155 657 OFFCURVE",
"160 651 OFFCURVE",
"171 651 CURVE",
"186 673 OFFCURVE",
"207 680 OFFCURVE",
"229 680 CURVE SMOOTH",
"349 680 OFFCURVE",
"416 586 OFFCURVE",
"416 416 CURVE",
"389 462 OFFCURVE",
"327 497 OFFCURVE",
"255 497 CURVE SMOOTH",
"124 497 OFFCURVE",
"40 394 OFFCURVE",
"40 231 CURVE SMOOTH",
"40 84 OFFCURVE",
"115 -10 OFFCURVE",
"234 -10 CURVE SMOOTH"
);
},
{
closed = 1;
nodes = (
"139 20 OFFCURVE",
"78 102 OFFCURVE",
"78 231 CURVE SMOOTH",
"78 375 OFFCURVE",
"148 467 OFFCURVE",
"257 467 CURVE SMOOTH",
"353 467 OFFCURVE",
"414 404 OFFCURVE",
"414 304 CURVE SMOOTH",
"414 244 LINE SMOOTH",
"414 107 OFFCURVE",
"344 20 OFFCURVE",
"234 20 CURVE SMOOTH"
);
},
{
closed = 1;
nodes = (
"518 645 LINE",
"518 675 LINE",
"266 575 LINE",
"266 545 LINE"
);
}
);
width = 518;
}
);
leftMetricsKey = d;
note = eth;
unicode = 00F0;
},
{
glyphname = dcroat;
layers = (
{
components = (
{
name = d;
}
);
layerId = "45309390-7B6A-4DA2-8B07-FED7B2950A7C";
paths = (
{
closed = 1;
nodes = (
"530 600 LINE",
"530 630 LINE",
"300 630 LINE",
"300 600 LINE"
);
}
);
width = 530;
}
);
note = dslash;
unicode = 0111;
},
{
glyphname = e;
layers = (
{
anchors = (
{
name = bottom;
position = "{266, 0}";
},
{
name = ogonek;
position = "{404, 42}";
},
{
name = top;
position = "{258, 510}";
}
);
layerId = "45309390-7B6A-4DA2-8B07-FED7B2950A7C";
paths = (
{
closed = 1;
nodes = (
"366 -10 OFFCURVE",
"439 47 OFFCURVE",
"439 71 CURVE SMOOTH",
"439 78 OFFCURVE",
"433 86 OFFCURVE",
"419 86 CURVE",
"375 43 OFFCURVE",
"322 20 OFFCURVE",
"263 20 CURVE SMOOTH",
"149 20 OFFCURVE",
"80 108 OFFCURVE",
"78 246 CURVE",
"450 246 LINE",
"453 256 OFFCURVE",
"454 263 OFFCURVE",
"454 280 CURVE SMOOTH",
"454 424 OFFCURVE",
"379 520 OFFCURVE",
"253 520 CURVE SMOOTH",
"121 520 OFFCURVE",
"40 416 OFFCURVE",
"40 256 CURVE SMOOTH",
"40 91 OFFCURVE",
"127 -10 OFFCURVE",
"263 -10 CURVE SMOOTH"
);
},
{
closed = 1;
nodes = (
"80 402 OFFCURVE",
"143 490 OFFCURVE",
"251 490 CURVE SMOOTH",
"356 490 OFFCURVE",
"411 408 OFFCURVE",
"416 280 CURVE",
"78 274 LINE"
);
}
);
width = 492;
}
);
leftKerningGroup = o;
leftMetricsKey = o;
note = e;
rightKerningGroup = e;
unicode = 0065;
},
{
glyphname = f;
layers = (
{
anchors = (
{
name = bottom;
position = "{127, 0}";
},
{
name = top;
position = "{205, 730}";
}
);
layerId = "45309390-7B6A-4DA2-8B07-FED7B2950A7C";
paths = (
{
closed = 1;
nodes = (
"136 -4 OFFCURVE",
"143 9 OFFCURVE",
"143 31 CURVE SMOOTH",
"143 620 LINE SMOOTH",
"143 669 OFFCURVE",
"160 700 OFFCURVE",
"206 700 CURVE SMOOTH",
"228 700 OFFCURVE",
"249 693 OFFCURVE",
"264 671 CURVE",
"275 671 OFFCURVE",
"280 677 OFFCURVE",
"280 689 CURVE SMOOTH",
"280 709 OFFCURVE",
"250 730 OFFCURVE",
"205 730 CURVE SMOOTH",
"142 730 OFFCURVE",
"106 691 OFFCURVE",
"106 624 CURVE SMOOTH",
"106 0 LINE",
"111 -3 OFFCURVE",
"115 -4 OFFCURVE",
"119 -4 CURVE SMOOTH"
);
},
{
closed = 1;
nodes = (
"251 480 LINE SMOOTH",
"269 480 OFFCURVE",
"280 487 OFFCURVE",
"280 499 CURVE SMOOTH",
"280 503 OFFCURVE",
"279 506 OFFCURVE",
"277 510 CURVE",
"43 510 LINE SMOOTH",
"25 510 OFFCURVE",
"14 503 OFFCURVE",
"14 491 CURVE SMOOTH",
"14 488 OFFCURVE",
"15 484 OFFCURVE",
"17 480 CURVE"
);
}
);
width = 292;
}
);
leftKerningGroup = f;
note = f;
rightKerningGroup = f;
unicode = 0066;
},
{
glyphname = g;
layers = (
{
anchors = (
{
name = bottom;
position = "{255, -150}";
},
{
name = top;
position = "{268, 510}";
}
);
layerId = "45309390-7B6A-4DA2-8B07-FED7B2950A7C";
paths = (
{
closed = 1;
nodes = (
"378 -150 OFFCURVE",
"452 -68 OFFCURVE",
"452 54 CURVE SMOOTH",
"452 322 LINE SMOOTH",
"452 410 OFFCURVE",
"460 438 OFFCURVE",
"482 479 CURVE",
"476 492 LINE",
"401 492 OFFCURVE",
"348 520 OFFCURVE",
"272 520 CURVE SMOOTH",
"121 520 OFFCURVE",
"40 408 OFFCURVE",
"40 262 CURVE SMOOTH",
"40 124 OFFCURVE",
"117 30 OFFCURVE",
"238 30 CURVE SMOOTH",
"318 30 OFFCURVE",
"377 71 OFFCURVE",
"415 136 CURVE",
"415 54 LINE SMOOTH",
"415 -52 OFFCURVE",
"363 -120 OFFCURVE",
"255 -120 CURVE SMOOTH",
"190 -120 OFFCURVE",
"141 -96 OFFCURVE",
"94 -46 CURVE",
"81 -46 OFFCURVE",
"74 -52 OFFCURVE",
"74 -64 CURVE SMOOTH",
"74 -84 OFFCURVE",
"145 -150 OFFCURVE",
"255 -150 CURVE SMOOTH"
);
},
{
closed = 1;
nodes = (
"137 60 OFFCURVE",
"78 142 OFFCURVE",
"78 262 CURVE SMOOTH",
"78 390 OFFCURVE",
"141 490 OFFCURVE",
"261 490 CURVE SMOOTH",
"325 490 OFFCURVE",
"384 462 OFFCURVE",
"447 462 CURVE",
"443 473 LINE",
"420 431 OFFCURVE",
"415 381 OFFCURVE",
"415 322 CURVE SMOOTH",
"415 265 LINE SMOOTH",
"415 146 OFFCURVE",
"341 60 OFFCURVE",
"238 60 CURVE SMOOTH"
);
}
);
width = 536;
}
);
leftKerningGroup = o;
leftMetricsKey = o;
note = g;
rightKerningGroup = g;
rightMetricsKey = q;
unicode = 0067;
},
{
glyphname = h;
lastChange = "2018-03-12 19:44:15 +0000";
layers = (
{
anchors = (
{
name = bottom;
position = "{255, 0}";
},
{
name = center;
position = "{255, 260}";
},
{
name = top;
position = "{202, 724}";
}
);
layerId = "45309390-7B6A-4DA2-8B07-FED7B2950A7C";
paths = (
{
closed = 1;
nodes = (
"108 -4 OFFCURVE",
"115 9 OFFCURVE",
"115 31 CURVE SMOOTH",
"115 263 LINE SMOOTH",
"115 398 OFFCURVE",
"179 489 OFFCURVE",
"278 489 CURVE SMOOTH",
"358 489 OFFCURVE",
"409 429 OFFCURVE",
"409 335 CURVE SMOOTH",
"409 0 LINE",
"414 -3 OFFCURVE",
"418 -4 OFFCURVE",
"422 -4 CURVE SMOOTH",
"439 -4 OFFCURVE",
"446 9 OFFCURVE",
"446 31 CURVE SMOOTH",
"446 335 LINE SMOOTH",
"446 448 OFFCURVE",
"381 520 OFFCURVE",
"278 520 CURVE SMOOTH",
"197 520 OFFCURVE",
"141 471 OFFCURVE",
"115 408 CURVE",
"115 720 LINE",
"110 723 OFFCURVE",
"106 724 OFFCURVE",
"102 724 CURVE SMOOTH",
"85 724 OFFCURVE",
"78 711 OFFCURVE",
"78 689 CURVE SMOOTH",
"78 0 LINE",
"83 -3 OFFCURVE",
"87 -4 OFFCURVE",
"91 -4 CURVE SMOOTH"
);
}
);
width = 510;
}
);
leftKerningGroup = n;
leftMetricsKey = n;
note = h;
rightKerningGroup = n;
rightMetricsKey = n;
unicode = 0068;
},
{
glyphname = hbar;
layers = (
{
components = (
{
name = h;
}
);
layerId = "45309390-7B6A-4DA2-8B07-FED7B2950A7C";
paths = (
{
closed = 1;
nodes = (
"280 599 LINE",
"280 629 LINE",
"0 629 LINE",
"0 599 LINE"
);
}
);
width = 510;
}
);
note = hbar;
rightKerningGroup = h;
rightMetricsKey = h;
unicode = 0127;
},
{
glyphname = i;
layers = (
{
anchors = (
{
name = bottom;
position = "{99, 0}";
}
);
layerId = "45309390-7B6A-4DA2-8B07-FED7B2950A7C";
paths = (
{
closed = 1;
nodes = (
"110 -4 OFFCURVE",
"117 9 OFFCURVE",
"117 31 CURVE SMOOTH",
"117 510 LINE",
"112 513 OFFCURVE",
"108 514 OFFCURVE",
"104 514 CURVE SMOOTH",
"87 514 OFFCURVE",
"80 501 OFFCURVE",
"80 479 CURVE SMOOTH",
"80 0 LINE",
"85 -3 OFFCURVE",
"89 -4 OFFCURVE",
"93 -4 CURVE SMOOTH"
);
},
{
closed = 1;
nodes = (
"114 611 OFFCURVE",
"126 622 OFFCURVE",
"126 638 CURVE SMOOTH",
"126 654 OFFCURVE",
"114 665 OFFCURVE",
"98 665 CURVE SMOOTH",
"82 665 OFFCURVE",
"71 654 OFFCURVE",
"71 638 CURVE SMOOTH",
"71 622 OFFCURVE",
"82 611 OFFCURVE",
"98 611 CURVE SMOOTH"
);
}
);
width = 197;
}
);
leftKerningGroup = i;
leftMetricsKey = "=|";
note = i;
rightKerningGroup = i;
unicode = 0069;
},
{
glyphname = idotless;
layers = (
{
anchors = (
{
name = bottom;
position = "{99, 0}";
},
{
name = ogonek;
position = "{99, 10}";
},
{
name = top;
position = "{99, 510}";
}
);
layerId = "45309390-7B6A-4DA2-8B07-FED7B2950A7C";
paths = (
{
closed = 1;
nodes = (
"110 -4 OFFCURVE",
"117 9 OFFCURVE",
"117 31 CURVE SMOOTH",
"117 510 LINE",
"112 513 OFFCURVE",
"108 514 OFFCURVE",
"104 514 CURVE SMOOTH",
"87 514 OFFCURVE",
"80 501 OFFCURVE",
"80 479 CURVE SMOOTH",
"80 0 LINE",
"85 -3 OFFCURVE",
"89 -4 OFFCURVE",
"93 -4 CURVE SMOOTH"
);
}
);
width = 197;
}
);
note = dotlessi;
unicode = 0131;
},
{
glyphname = j;
layers = (
{
layerId = "45309390-7B6A-4DA2-8B07-FED7B2950A7C";
paths = (
{
closed = 1;
nodes = (
"81 -150 OFFCURVE",
"117 -111 OFFCURVE",
"117 -44 CURVE SMOOTH",
"117 510 LINE",
"112 513 OFFCURVE",
"108 514 OFFCURVE",
"104 514 CURVE SMOOTH",
"87 514 OFFCURVE",
"80 501 OFFCURVE",
"80 479 CURVE SMOOTH",
"80 -40 LINE SMOOTH",
"80 -89 OFFCURVE",
"63 -120 OFFCURVE",
"17 -120 CURVE SMOOTH",
"-5 -120 OFFCURVE",
"-26 -113 OFFCURVE",
"-41 -91 CURVE",
"-52 -91 OFFCURVE",
"-57 -97 OFFCURVE",
"-57 -109 CURVE SMOOTH",
"-57 -129 OFFCURVE",
"-27 -150 OFFCURVE",
"18 -150 CURVE SMOOTH"
);
},
{
closed = 1;
nodes = (
"114 611 OFFCURVE",
"126 622 OFFCURVE",
"126 638 CURVE SMOOTH",
"126 654 OFFCURVE",
"114 665 OFFCURVE",
"98 665 CURVE SMOOTH",
"82 665 OFFCURVE",
"71 654 OFFCURVE",
"71 638 CURVE SMOOTH",
"71 622 OFFCURVE",
"82 611 OFFCURVE",
"98 611 CURVE SMOOTH"
);
}
);
width = 197;
}
);
leftKerningGroup = j;
note = j;
rightKerningGroup = j;
rightMetricsKey = i;
unicode = 006A;
},
{
glyphname = jdotless;
layers = (
{
anchors = (
{
name = bottom;
position = "{18, -150}";
},
{
name = top;
position = "{99, 510}";
}
);
layerId = "45309390-7B6A-4DA2-8B07-FED7B2950A7C";
paths = (
{
closed = 1;
nodes = (
"81 -150 OFFCURVE",
"117 -111 OFFCURVE",
"117 -44 CURVE SMOOTH",
"117 510 LINE",
"112 513 OFFCURVE",
"108 514 OFFCURVE",
"104 514 CURVE SMOOTH",
"87 514 OFFCURVE",
"80 501 OFFCURVE",
"80 479 CURVE SMOOTH",
"80 -40 LINE SMOOTH",
"80 -89 OFFCURVE",
"63 -120 OFFCURVE",
"17 -120 CURVE SMOOTH",
"-5 -120 OFFCURVE",
"-26 -113 OFFCURVE",
"-41 -91 CURVE",
"-52 -91 OFFCURVE",
"-57 -97 OFFCURVE",
"-57 -109 CURVE SMOOTH",
"-57 -129 OFFCURVE",
"-27 -150 OFFCURVE",
"18 -150 CURVE SMOOTH"
);
}
);
width = 197;
}
);
leftKerningGroup = j;
note = dotlessj;
unicode = 0237;
},
{
glyphname = k;
layers = (
{
anchors = (
{
name = bottom;
position = "{224, 0}";
},
{
name = top;
position = "{102, 724}";
}
);
layerId = "45309390-7B6A-4DA2-8B07-FED7B2950A7C";
paths = (
{
closed = 1;
nodes = (
"418 511 LINE",
"411 513 OFFCURVE",
"405 514 OFFCURVE",
"398 514 CURVE SMOOTH",
"381 514 OFFCURVE",
"369 508 OFFCURVE",
"359 496 CURVE SMOOTH",
"98 207 LINE",
"98 156 LINE"
);
},
{
closed = 1;
nodes = (
"420 -4 OFFCURVE",
"427 -3 OFFCURVE",
"434 0 CURVE",
"434 6 LINE",
"426 9 OFFCURVE",
"414 20 OFFCURVE",
"399 38 CURVE SMOOTH",
"231 231 LINE SMOOTH",
"219 247 OFFCURVE",
"208 255 OFFCURVE",
"195 255 CURVE SMOOTH",
"187 255 OFFCURVE",
"179 253 OFFCURVE",
"170 248 CURVE",
"376 12 LINE SMOOTH",
"384 2 OFFCURVE",
"396 -4 OFFCURVE",
"413 -4 CURVE SMOOTH"
);
},
{
closed = 1;
nodes = (
"108 -4 OFFCURVE",
"115 9 OFFCURVE",
"115 31 CURVE SMOOTH",
"115 720 LINE",
"110 723 OFFCURVE",
"106 724 OFFCURVE",
"102 724 CURVE SMOOTH",
"85 724 OFFCURVE",
"78 711 OFFCURVE",
"78 689 CURVE SMOOTH",
"78 0 LINE",
"83 -3 OFFCURVE",
"87 -4 OFFCURVE",
"91 -4 CURVE SMOOTH"
);
}
);
width = 448;
}
);
leftKerningGroup = n;
leftMetricsKey = n;
note = k;
rightKerningGroup = k;
unicode = 006B;
},
{
glyphname = kgreenlandic;
layers = (
{
anchors = (
{
name = bottom;
position = "{224, 0}";
},
{
name = top;
position = "{224, 510}";
}
);
layerId = "45309390-7B6A-4DA2-8B07-FED7B2950A7C";
paths = (
{
closed = 1;
nodes = (
"418 511 LINE",
"411 513 OFFCURVE",
"405 514 OFFCURVE",
"398 514 CURVE SMOOTH",
"381 514 OFFCURVE",
"369 508 OFFCURVE",
"359 496 CURVE SMOOTH",
"98 207 LINE",
"98 156 LINE"
);
},
{
closed = 1;
nodes = (
"108 -4 OFFCURVE",
"115 9 OFFCURVE",
"115 31 CURVE SMOOTH",
"115 510 LINE",
"110 513 OFFCURVE",
"106 514 OFFCURVE",
"102 514 CURVE SMOOTH",
"85 514 OFFCURVE",
"78 501 OFFCURVE",
"78 479 CURVE SMOOTH",
"78 0 LINE",
"83 -3 OFFCURVE",
"87 -4 OFFCURVE",
"91 -4 CURVE SMOOTH"
);
},
{
closed = 1;
nodes = (
"420 -4 OFFCURVE",
"427 -3 OFFCURVE",
"434 0 CURVE",
"434 6 LINE",
"426 9 OFFCURVE",
"414 20 OFFCURVE",
"399 38 CURVE SMOOTH",
"231 231 LINE SMOOTH",
"217 247 OFFCURVE",
"208 255 OFFCURVE",
"195 255 CURVE SMOOTH",
"187 255 OFFCURVE",
"179 253 OFFCURVE",
"170 248 CURVE",
"376 12 LINE SMOOTH",
"384 2 OFFCURVE",
"396 -4 OFFCURVE",
"413 -4 CURVE SMOOTH"
);
}
);
width = 448;
}
);
note = kgreenlandic;
rightKerningGroup = k;
unicode = 0138;
},
{
glyphname = l;
layers = (
{
anchors = (
{
name = bottom;
position = "{99, 0}";
},
{
name = center;
position = "{184, 280}";
},
{
name = top;
position = "{104, 724}";
}
);
layerId = "45309390-7B6A-4DA2-8B07-FED7B2950A7C";
paths = (
{
closed = 1;
nodes = (
"110 -4 OFFCURVE",
"117 9 OFFCURVE",
"117 31 CURVE SMOOTH",
"117 720 LINE",
"112 723 OFFCURVE",
"108 724 OFFCURVE",
"104 724 CURVE SMOOTH",
"87 724 OFFCURVE",
"80 711 OFFCURVE",
"80 689 CURVE SMOOTH",
"80 0 LINE",
"85 -3 OFFCURVE",
"89 -4 OFFCURVE",
"93 -4 CURVE SMOOTH"
);
}
);
width = 197;
}
);
leftKerningGroup = l;
leftMetricsKey = "=|";
note = l;
rightKerningGroup = l;
unicode = 006C;
},
{
glyphname = lslash;
layers = (
{
components = (
{
name = l;
}
);
layerId = "45309390-7B6A-4DA2-8B07-FED7B2950A7C";
paths = (
{
closed = 1;
nodes = (
"197 401 LINE",
"197 431 LINE",
"0 339 LINE",
"0 309 LINE"
);
}
);
width = 197;
}
);
note = lslash;
unicode = 0142;
},
{
glyphname = m;
layers = (
{
anchors = (
{
name = bottom;
position = "{409, 0}";
},
{
name = top;
position = "{409, 510}";
}
);
layerId = "45309390-7B6A-4DA2-8B07-FED7B2950A7C";
paths = (
{
closed = 1;
nodes = (
"108 -4 OFFCURVE",
"115 9 OFFCURVE",
"115 31 CURVE SMOOTH",
"115 263 LINE SMOOTH",
"115 398 OFFCURVE",
"179 489 OFFCURVE",
"272 489 CURVE SMOOTH",
"346 489 OFFCURVE",
"397 429 OFFCURVE",
"397 335 CURVE SMOOTH",
"397 0 LINE",
"402 -3 OFFCURVE",
"406 -4 OFFCURVE",
"410 -4 CURVE SMOOTH",
"427 -4 OFFCURVE",
"434 9 OFFCURVE",
"434 31 CURVE SMOOTH",
"434 335 LINE SMOOTH",
"434 448 OFFCURVE",
"369 520 OFFCURVE",
"272 520 CURVE SMOOTH",
"197 520 OFFCURVE",
"141 471 OFFCURVE",
"115 408 CURVE",
"115 510 LINE",
"110 513 OFFCURVE",
"106 514 OFFCURVE",
"102 514 CURVE SMOOTH",
"85 514 OFFCURVE",
"78 501 OFFCURVE",
"78 479 CURVE SMOOTH",
"78 0 LINE",
"83 -3 OFFCURVE",
"87 -4 OFFCURVE",
"91 -4 CURVE SMOOTH"
);
},
{
closed = 1;
nodes = (
"746 -4 OFFCURVE",
"753 9 OFFCURVE",
"753 31 CURVE SMOOTH",
"753 335 LINE SMOOTH",
"753 448 OFFCURVE",
"688 520 OFFCURVE",
"591 520 CURVE SMOOTH",
"506 520 OFFCURVE",
"443 462 OFFCURVE",
"417 369 CURVE",
"417 263 LINE",
"434 263 LINE",
"434 398 OFFCURVE",
"498 489 OFFCURVE",
"591 489 CURVE SMOOTH",
"665 489 OFFCURVE",
"716 429 OFFCURVE",
"716 335 CURVE SMOOTH",
"716 0 LINE",
"721 -3 OFFCURVE",
"725 -4 OFFCURVE",
"729 -4 CURVE SMOOTH"
);
}
);
width = 817;
}
);
leftKerningGroup = n;
leftMetricsKey = n;
note = m;
rightKerningGroup = n;
rightMetricsKey = n;
unicode = 006D;
},
{
glyphname = n;
layers = (
{
anchors = (
{
name = bottom;
position = "{255, 0}";
},
{
name = top;
position = "{255, 510}";
}
);
layerId = "45309390-7B6A-4DA2-8B07-FED7B2950A7C";
paths = (
{
closed = 1;
nodes = (
"108 -4 OFFCURVE",
"115 9 OFFCURVE",
"115 31 CURVE SMOOTH",
"115 263 LINE SMOOTH",
"115 398 OFFCURVE",
"179 489 OFFCURVE",
"278 489 CURVE SMOOTH",
"358 489 OFFCURVE",
"409 429 OFFCURVE",
"409 335 CURVE SMOOTH",
"409 0 LINE",
"414 -3 OFFCURVE",
"418 -4 OFFCURVE",
"422 -4 CURVE SMOOTH",
"439 -4 OFFCURVE",
"446 9 OFFCURVE",
"446 31 CURVE SMOOTH",
"446 335 LINE SMOOTH",
"446 448 OFFCURVE",
"381 520 OFFCURVE",
"278 520 CURVE SMOOTH",
"197 520 OFFCURVE",
"141 471 OFFCURVE",
"115 408 CURVE",
"115 510 LINE",
"110 513 OFFCURVE",
"106 514 OFFCURVE",
"102 514 CURVE SMOOTH",
"85 514 OFFCURVE",
"78 501 OFFCURVE",
"78 479 CURVE SMOOTH",
"78 0 LINE",
"83 -3 OFFCURVE",
"87 -4 OFFCURVE",
"91 -4 CURVE SMOOTH"
);
}
);
width = 510;
}
);
leftKerningGroup = n;
note = n;
rightKerningGroup = n;
unicode = 006E;
},
{
glyphname = eng;
layers = (
{
layerId = "45309390-7B6A-4DA2-8B07-FED7B2950A7C";
paths = (
{
closed = 1;
nodes = (
"410 -150 OFFCURVE",
"446 -111 OFFCURVE",
"446 -44 CURVE SMOOTH",
"446 335 LINE SMOOTH",
"446 448 OFFCURVE",
"381 520 OFFCURVE",
"278 520 CURVE SMOOTH",
"197 520 OFFCURVE",
"141 471 OFFCURVE",
"115 408 CURVE",
"115 510 LINE",
"110 513 OFFCURVE",
"106 514 OFFCURVE",
"102 514 CURVE SMOOTH",
"85 514 OFFCURVE",
"78 501 OFFCURVE",
"78 479 CURVE SMOOTH",
"78 0 LINE",
"83 -3 OFFCURVE",
"87 -4 OFFCURVE",
"91 -4 CURVE SMOOTH",
"108 -4 OFFCURVE",
"115 9 OFFCURVE",
"115 31 CURVE SMOOTH",
"115 263 LINE SMOOTH",
"115 398 OFFCURVE",
"179 489 OFFCURVE",
"278 489 CURVE SMOOTH",
"358 489 OFFCURVE",
"409 429 OFFCURVE",
"409 335 CURVE SMOOTH",
"409 -40 LINE SMOOTH",
"409 -89 OFFCURVE",
"392 -120 OFFCURVE",
"346 -120 CURVE SMOOTH",
"324 -120 OFFCURVE",
"303 -113 OFFCURVE",
"288 -91 CURVE",
"277 -91 OFFCURVE",
"272 -97 OFFCURVE",
"272 -109 CURVE SMOOTH",
"272 -129 OFFCURVE",
"302 -150 OFFCURVE",
"347 -150 CURVE SMOOTH"
);
}
);
width = 510;
}
);
leftKerningGroup = m;
note = eng;
rightKerningGroup = m;
rightMetricsKey = n;
unicode = 014B;
},
{
glyphname = o;
layers = (
{
anchors = (
{
name = bottom;
position = "{254, 0}";
},
{
name = center;
position = "{254, 255}";
},
{
name = ogonek;
position = "{457, 10}";
},
{
name = top;
position = "{254, 510}";
},
{
name = topright;
position = "{440, 327}";
}
);
layerId = "45309390-7B6A-4DA2-8B07-FED7B2950A7C";
paths = (
{
closed = 1;
nodes = (
"385 -10 OFFCURVE",
"468 93 OFFCURVE",
"468 255 CURVE SMOOTH",
"468 417 OFFCURVE",
"385 520 OFFCURVE",
"254 520 CURVE SMOOTH",
"123 520 OFFCURVE",
"40 417 OFFCURVE",
"40 255 CURVE SMOOTH",
"40 93 OFFCURVE",
"123 -10 OFFCURVE",
"254 -10 CURVE SMOOTH"
);
},
{
closed = 1;
nodes = (
"146 20 OFFCURVE",
"78 111 OFFCURVE",
"78 255 CURVE SMOOTH",
"78 399 OFFCURVE",
"146 490 OFFCURVE",
"254 490 CURVE SMOOTH",
"362 490 OFFCURVE",
"430 399 OFFCURVE",
"430 255 CURVE SMOOTH",
"430 111 OFFCURVE",
"362 20 OFFCURVE",
"254 20 CURVE SMOOTH"
);
}
);
width = 508;
}
);
leftKerningGroup = o;
leftMetricsKey = "=|";
note = o;
rightKerningGroup = o;
unicode = 006F;
},
{
glyphname = oslash;
layers = (
{
components = (
{
name = o;
}
);
layerId = "45309390-7B6A-4DA2-8B07-FED7B2950A7C";
paths = (
{
closed = 1;
nodes = (
"113 -60 LINE",
"433 570 LINE",
"395 570 LINE",
"75 -60 LINE"
);
}
);
width = 508;
}
);
leftMetricsKey = o;
note = oslash;
rightMetricsKey = o;
unicode = 00F8;
},
{
glyphname = oe;
lastChange = "2018-03-12 19:44:15 +0000";
layers = (
{
layerId = "45309390-7B6A-4DA2-8B07-FED7B2950A7C";
paths = (
{
closed = 1;
nodes = (
"350 -10 OFFCURVE",
"420 45 OFFCURVE",
"451 139 CURVE",
"483 45 OFFCURVE",
"556 -10 OFFCURVE",
"656 -10 CURVE SMOOTH",
"758 -10 OFFCURVE",
"832 40 OFFCURVE",
"832 72 CURVE SMOOTH",
"832 80 OFFCURVE",
"825 87 OFFCURVE",
"815 89 CURVE",
"774 39 OFFCURVE",
"715 20 OFFCURVE",
"656 20 CURVE SMOOTH",
"542 20 OFFCURVE",
"473 108 OFFCURVE",
"471 246 CURVE",
"843 246 LINE",
"846 256 OFFCURVE",
"847 264 OFFCURVE",
"847 274 CURVE SMOOTH",
"847 425 OFFCURVE",
"774 520 OFFCURVE",
"643 520 CURVE SMOOTH",
"550 520 OFFCURVE",
"481 465 OFFCURVE",
"450 373 CURVE",
"419 465 OFFCURVE",
"349 520 OFFCURVE",
"254 520 CURVE SMOOTH",
"123 520 OFFCURVE",
"40 417 OFFCURVE",
"40 255 CURVE SMOOTH",
"40 93 OFFCURVE",
"123 -10 OFFCURVE",
"254 -10 CURVE SMOOTH"
);
},
{
closed = 1;
nodes = (
"146 20 OFFCURVE",
"78 111 OFFCURVE",
"78 255 CURVE SMOOTH",
"78 399 OFFCURVE",
"146 490 OFFCURVE",
"254 490 CURVE SMOOTH",
"362 490 OFFCURVE",
"430 399 OFFCURVE",
"430 255 CURVE SMOOTH",
"430 111 OFFCURVE",
"362 20 OFFCURVE",
"254 20 CURVE SMOOTH"
);
},
{
closed = 1;
nodes = (
"473 406 OFFCURVE",
"540 490 OFFCURVE",
"643 490 CURVE SMOOTH",
"750 490 OFFCURVE",
"804 408 OFFCURVE",
"809 280 CURVE",
"471 274 LINE"
);
}
);
width = 885;
}
);
leftMetricsKey = o;
note = oe;
rightMetricsKey = e;
unicode = 0153;
},
{
glyphname = p;
layers = (
{
anchors = (
{
name = bottom;
position = "{91, -144}";
},
{
name = top;
position = "{265, 510}";
}
);
layerId = "45309390-7B6A-4DA2-8B07-FED7B2950A7C";
paths = (
{
closed = 1;
nodes = (
"108 -144 OFFCURVE",
"115 -131 OFFCURVE",
"115 -109 CURVE SMOOTH",
"115 61 LINE",
"147 21 OFFCURVE",
"199 -10 OFFCURVE",
"270 -10 CURVE SMOOTH",
"405 -10 OFFCURVE",
"490 102 OFFCURVE",
"490 268 CURVE SMOOTH",
"490 426 OFFCURVE",
"413 520 OFFCURVE",
"292 520 CURVE SMOOTH",
"212 520 OFFCURVE",
"153 479 OFFCURVE",
"115 414 CURVE",
"115 510 LINE",
"110 513 OFFCURVE",
"106 514 OFFCURVE",
"102 514 CURVE SMOOTH",
"85 514 OFFCURVE",
"78 501 OFFCURVE",
"78 479 CURVE SMOOTH",
"78 -140 LINE",
"83 -143 OFFCURVE",
"87 -144 OFFCURVE",
"91 -144 CURVE SMOOTH"
);
},
{
closed = 1;
nodes = (
"184 20 OFFCURVE",
"115 76 OFFCURVE",
"115 169 CURVE SMOOTH",
"115 285 LINE SMOOTH",
"115 404 OFFCURVE",
"189 490 OFFCURVE",
"292 490 CURVE SMOOTH",
"393 490 OFFCURVE",
"452 408 OFFCURVE",
"452 268 CURVE SMOOTH",
"452 120 OFFCURVE",
"385 20 OFFCURVE",
"270 20 CURVE SMOOTH"
);
}
);
width = 530;
}
);
leftKerningGroup = n;
leftMetricsKey = n;
note = p;
rightKerningGroup = o;
rightMetricsKey = o;
unicode = 0070;
},
{
glyphname = thorn;
layers = (
{
layerId = "45309390-7B6A-4DA2-8B07-FED7B2950A7C";
paths = (
{
closed = 1;
nodes = (
"108 -144 OFFCURVE",
"115 -131 OFFCURVE",
"115 -109 CURVE SMOOTH",
"115 61 LINE",
"147 21 OFFCURVE",
"199 -10 OFFCURVE",
"270 -10 CURVE SMOOTH",
"405 -10 OFFCURVE",
"490 102 OFFCURVE",
"490 268 CURVE SMOOTH",
"490 426 OFFCURVE",
"413 520 OFFCURVE",
"292 520 CURVE SMOOTH",
"212 520 OFFCURVE",
"153 479 OFFCURVE",
"115 414 CURVE",
"115 720 LINE",
"110 723 OFFCURVE",
"106 724 OFFCURVE",
"102 724 CURVE SMOOTH",
"85 724 OFFCURVE",
"78 711 OFFCURVE",
"78 689 CURVE SMOOTH",
"78 -140 LINE",
"83 -143 OFFCURVE",
"87 -144 OFFCURVE",
"91 -144 CURVE SMOOTH"
);
},
{
closed = 1;
nodes = (
"184 20 OFFCURVE",
"115 76 OFFCURVE",
"115 169 CURVE SMOOTH",
"115 285 LINE SMOOTH",
"115 404 OFFCURVE",
"189 490 OFFCURVE",
"292 490 CURVE SMOOTH",
"393 490 OFFCURVE",
"452 408 OFFCURVE",
"452 268 CURVE SMOOTH",
"452 120 OFFCURVE",
"385 20 OFFCURVE",
"270 20 CURVE SMOOTH"
);
}
);
width = 530;
}
);
leftMetricsKey = p;
note = thorn;
rightMetricsKey = p;
unicode = 00FE;
},
{
glyphname = q;
layers = (
{
anchors = (
{
name = bottom;
position = "{432, -140}";
},
{
name = top;
position = "{268, 510}";
}
);
layerId = "45309390-7B6A-4DA2-8B07-FED7B2950A7C";
paths = (
{
closed = 1;
nodes = (
"445 -144 OFFCURVE",
"452 -131 OFFCURVE",
"452 -109 CURVE SMOOTH",
"452 322 LINE SMOOTH",
"452 410 OFFCURVE",
"460 438 OFFCURVE",
"482 479 CURVE",
"476 492 LINE",
"401 492 OFFCURVE",
"348 520 OFFCURVE",
"272 520 CURVE SMOOTH",
"121 520 OFFCURVE",
"40 408 OFFCURVE",
"40 242 CURVE SMOOTH",
"40 84 OFFCURVE",
"117 -10 OFFCURVE",
"238 -10 CURVE SMOOTH",
"318 -10 OFFCURVE",
"377 31 OFFCURVE",
"415 96 CURVE",
"415 -140 LINE",
"420 -143 OFFCURVE",
"424 -144 OFFCURVE",
"428 -144 CURVE SMOOTH"
);
},
{
closed = 1;
nodes = (
"137 20 OFFCURVE",
"78 102 OFFCURVE",
"78 242 CURVE SMOOTH",
"78 390 OFFCURVE",
"141 490 OFFCURVE",
"261 490 CURVE SMOOTH",
"325 490 OFFCURVE",
"384 462 OFFCURVE",
"447 462 CURVE",
"443 473 LINE",
"420 431 OFFCURVE",
"415 381 OFFCURVE",
"415 322 CURVE SMOOTH",
"415 225 LINE SMOOTH",
"415 106 OFFCURVE",
"341 20 OFFCURVE",
"238 20 CURVE SMOOTH"
);
}
);
width = 536;
}
);
leftKerningGroup = o;
leftMetricsKey = o;
note = q;
rightKerningGroup = q;
unicode = 0071;
},
{
glyphname = r;
lastChange = "2018-03-12 19:44:15 +0000";
layers = (
{
anchors = (
{
name = bottom;
position = "{98, 0}";
},
{
name = top;
position = "{151, 510}";
}
);
layerId = "45309390-7B6A-4DA2-8B07-FED7B2950A7C";
paths = (
{
closed = 1;
nodes = (
"108 -4 OFFCURVE",
"115 9 OFFCURVE",
"115 31 CURVE SMOOTH",
"115 288 LINE SMOOTH",
"115 406 OFFCURVE",
"167 489 OFFCURVE",
"231 489 CURVE SMOOTH",
"244 489 OFFCURVE",
"255 487 OFFCURVE",
"263 485 CURVE",
"270 485 OFFCURVE",
"275 490 OFFCURVE",
"275 498 CURVE SMOOTH",
"275 514 OFFCURVE",
"252 520 OFFCURVE",
"231 520 CURVE SMOOTH",
"177 520 OFFCURVE",
"137 480 OFFCURVE",
"115 422 CURVE",
"115 510 LINE",
"110 513 OFFCURVE",
"106 514 OFFCURVE",
"102 514 CURVE SMOOTH",
"85 514 OFFCURVE",
"78 501 OFFCURVE",
"78 479 CURVE SMOOTH",
"78 0 LINE",
"83 -3 OFFCURVE",
"87 -4 OFFCURVE",
"91 -4 CURVE SMOOTH"
);
}
);
width = 301;
}
);
leftKerningGroup = r;
leftMetricsKey = h;
note = r;
rightKerningGroup = r;
unicode = 0072;
},
{
glyphname = s;
layers = (
{
anchors = (
{
name = bottom;
position = "{198, 0}";
},
{
name = top;
position = "{198, 510}";
}
);
layerId = "45309390-7B6A-4DA2-8B07-FED7B2950A7C";
paths = (
{
closed = 1;
nodes = (
"299 -10 OFFCURVE",
"360 42 OFFCURVE",
"360 132 CURVE SMOOTH",
"360 203 OFFCURVE",
"322 245 OFFCURVE",
"220 281 CURVE SMOOTH",
"117 317 OFFCURVE",
"80 346 OFFCURVE",
"80 398 CURVE SMOOTH",
"80 453 OFFCURVE",
"121 490 OFFCURVE",
"192 490 CURVE SMOOTH",
"247 490 OFFCURVE",
"288 468 OFFCURVE",
"324 427 CURVE",
"337 427 OFFCURVE",
"344 433 OFFCURVE",
"344 445 CURVE SMOOTH",
"344 465 OFFCURVE",
"284 520 OFFCURVE",
"189 520 CURVE SMOOTH",
"100 520 OFFCURVE",
"42 472 OFFCURVE",
"42 394 CURVE SMOOTH",
"42 330 OFFCURVE",
"80 291 OFFCURVE",
"186 255 CURVE SMOOTH",
"286 221 OFFCURVE",
"322 187 OFFCURVE",
"322 130 CURVE SMOOTH",
"322 63 OFFCURVE",
"272 20 OFFCURVE",
"196 20 CURVE SMOOTH",
"142 20 OFFCURVE",
"90 42 OFFCURVE",
"54 83 CURVE",
"41 83 OFFCURVE",
"34 77 OFFCURVE",
"34 65 CURVE SMOOTH",
"34 45 OFFCURVE",
"95 -10 OFFCURVE",
"198 -10 CURVE SMOOTH"
);
}
);
width = 396;
}
);
leftKerningGroup = s;
note = s;
rightKerningGroup = s;
unicode = 0073;
},
{
glyphname = germandbls;
layers = (
{
layerId = "45309390-7B6A-4DA2-8B07-FED7B2950A7C";
paths = (
{
closed = 1;
nodes = (
"417 -10 OFFCURVE",
"497 69 OFFCURVE",
"497 194 CURVE SMOOTH",
"497 286 OFFCURVE",
"421 361 OFFCURVE",
"316 373 CURVE",
"397 388 OFFCURVE",
"449 447 OFFCURVE",
"449 527 CURVE SMOOTH",
"449 639 OFFCURVE",
"374 710 OFFCURVE",
"256 710 CURVE SMOOTH",
"139 710 OFFCURVE",
"64 647 OFFCURVE",
"64 547 CURVE SMOOTH",
"64 0 LINE",
"69 -3 OFFCURVE",
"73 -4 OFFCURVE",
"77 -4 CURVE SMOOTH",
"94 -4 OFFCURVE",
"101 9 OFFCURVE",
"101 31 CURVE SMOOTH",
"101 547 LINE SMOOTH",
"101 628 OFFCURVE",
"161 680 OFFCURVE",
"256 680 CURVE SMOOTH",
"351 680 OFFCURVE",
"411 621 OFFCURVE",
"411 527 CURVE SMOOTH",
"411 441 OFFCURVE",
"346 387 OFFCURVE",
"245 387 CURVE SMOOTH",
"161 387 LINE",
"161 357 LINE",
"243 357 LINE SMOOTH",
"375 357 OFFCURVE",
"459 277 OFFCURVE",
"459 194 CURVE SMOOTH",
"459 88 OFFCURVE",
"394 20 OFFCURVE",
"291 20 CURVE SMOOTH",
"240 20 OFFCURVE",
"213 39 OFFCURVE",
"192 57 CURVE",
"180 57 OFFCURVE",
"174 50 OFFCURVE",
"174 37 CURVE SMOOTH",
"174 16 OFFCURVE",
"221 -10 OFFCURVE",
"291 -10 CURVE SMOOTH"
);
}
);
width = 543;
}
);
note = uni00DF;
unicode = 00DF;
},
{
glyphname = t;
layers = (
{
anchors = (
{
name = bottom;
position = "{196, 0}";
},
{
name = center;
position = "{145, 255}";
},
{
name = top;
position = "{129, 640}";
},
{
name = topright;
position = "{249, 496}";
}
);
layerId = "45309390-7B6A-4DA2-8B07-FED7B2950A7C";
paths = (
{
closed = 1;
nodes = (
"233 -4 OFFCURVE",
"265 17 OFFCURVE",
"265 39 CURVE SMOOTH",
"265 49 OFFCURVE",
"259 55 OFFCURVE",
"249 55 CURVE",
"235 33 OFFCURVE",
"213 26 OFFCURVE",
"195 26 CURVE SMOOTH",
"162 26 OFFCURVE",
"145 50 OFFCURVE",
"145 94 CURVE SMOOTH",
"145 636 LINE",
"140 639 OFFCURVE",
"136 640 OFFCURVE",
"132 640 CURVE SMOOTH",
"115 640 OFFCURVE",
"108 627 OFFCURVE",
"108 605 CURVE SMOOTH",
"108 90 LINE SMOOTH",
"108 30 OFFCURVE",
"137 -4 OFFCURVE",
"191 -4 CURVE SMOOTH"
);
},
{
closed = 1;
nodes = (
"236 480 LINE SMOOTH",
"254 480 OFFCURVE",
"265 487 OFFCURVE",
"265 499 CURVE SMOOTH",
"265 502 OFFCURVE",
"264 506 OFFCURVE",
"262 510 CURVE",
"61 510 LINE SMOOTH",
"43 510 OFFCURVE",
"32 503 OFFCURVE",
"32 491 CURVE SMOOTH",
"32 487 OFFCURVE",
"33 484 OFFCURVE",
"35 480 CURVE"
);
}
);
width = 289;
}
);
leftKerningGroup = t;
note = t;
rightKerningGroup = t;
unicode = 0074;
},
{
glyphname = tbar;
layers = (
{
components = (
{
name = t;
}
);
layerId = "45309390-7B6A-4DA2-8B07-FED7B2950A7C";
paths = (
{
closed = 1;
nodes = (
"261 280 LINE",
"261 310 LINE",
"36 310 LINE",
"36 280 LINE"
);
}
);
width = 289;
}
);
leftKerningGroup = t;
note = tbar;
rightKerningGroup = t;
rightMetricsKey = t;
unicode = 0167;
},
{
glyphname = u;
layers = (
{
anchors = (
{
name = bottom;
position = "{253, 0}";
},
{
name = ogonek;
position = "{408, 11}";
},
{
name = top;
position = "{253, 510}";
},
{
name = topright;
position = "{423, 310}";
}
);
layerId = "45309390-7B6A-4DA2-8B07-FED7B2950A7C";
paths = (
{
closed = 1;
nodes = (
"309 -10 OFFCURVE",
"365 39 OFFCURVE",
"391 102 CURVE",
"391 0 LINE",
"396 -3 OFFCURVE",
"400 -4 OFFCURVE",
"404 -4 CURVE SMOOTH",
"421 -4 OFFCURVE",
"428 9 OFFCURVE",
"428 31 CURVE SMOOTH",
"428 510 LINE",
"423 513 OFFCURVE",
"419 514 OFFCURVE",
"415 514 CURVE SMOOTH",
"398 514 OFFCURVE",
"391 501 OFFCURVE",
"391 479 CURVE SMOOTH",
"391 247 LINE SMOOTH",
"391 112 OFFCURVE",
"327 21 OFFCURVE",
"230 21 CURVE SMOOTH",
"152 21 OFFCURVE",
"101 79 OFFCURVE",
"101 173 CURVE SMOOTH",
"101 510 LINE",
"96 513 OFFCURVE",
"92 514 OFFCURVE",
"88 514 CURVE SMOOTH",
"71 514 OFFCURVE",
"64 501 OFFCURVE",
"64 479 CURVE SMOOTH",
"64 173 LINE SMOOTH",
"64 60 OFFCURVE",
"129 -10 OFFCURVE",
"230 -10 CURVE SMOOTH"
);
}
);
width = 506;
}
);
leftKerningGroup = u;
note = u;
rightKerningGroup = u;
unicode = 0075;
},
{
glyphname = v;
layers = (
{
anchors = (
{
name = bottom;
position = "{213, 0}";
},
{
name = top;
position = "{218, 510}";
}
);
layerId = "45309390-7B6A-4DA2-8B07-FED7B2950A7C";
paths = (
{
closed = 1;
nodes = (
"223 0 LINE",
"417 510 LINE",
"411 513 OFFCURVE",
"404 514 OFFCURVE",
"399 514 CURVE SMOOTH",
"387 514 OFFCURVE",
"378 505 OFFCURVE",
"373 491 CURVE SMOOTH",
"213 67 LINE",
"45 514 LINE",
"25 514 OFFCURVE",
"13 499 OFFCURVE",
"21 478 CURVE SMOOTH",
"203 0 LINE"
);
}
);
width = 435;
}
);
leftKerningGroup = v;
note = v;
rightKerningGroup = v;
unicode = 0076;
},
{
glyphname = w;
layers = (
{
anchors = (
{
name = bottom;
position = "{336, 0}";
},
{
name = top;
position = "{340, 510}";
}
);
layerId = "45309390-7B6A-4DA2-8B07-FED7B2950A7C";
paths = (
{
closed = 1;
nodes = (
"206 0 LINE",
"335 466 LINE",
"464 0 LINE",
"484 0 LINE",
"657 510 LINE",
"651 513 OFFCURVE",
"644 514 OFFCURVE",
"639 514 CURVE SMOOTH",
"627 514 OFFCURVE",
"618 506 OFFCURVE",
"613 491 CURVE SMOOTH",
"477 91 LINE",
"361 510 LINE",
"354 513 OFFCURVE",
"348 514 OFFCURVE",
"342 514 CURVE SMOOTH",
"321 514 OFFCURVE",
"308 504 OFFCURVE",
"301 480 CURVE SMOOTH",
"193 91 LINE",
"50 514 LINE",
"30 514 OFFCURVE",
"16 502 OFFCURVE",
"24 478 CURVE SMOOTH",
"186 0 LINE"
);
}
);
width = 679;
}
);
leftKerningGroup = w;
note = w;
rightKerningGroup = w;
unicode = 0077;
},
{
glyphname = x;
layers = (
{
anchors = (
{
name = bottom;
position = "{225, 0}";
},
{
name = top;
position = "{225, 510}";
}
);
layerId = "45309390-7B6A-4DA2-8B07-FED7B2950A7C";
paths = (
{
closed = 1;
nodes = (
"54 -4 OFFCURVE",
"62 0 OFFCURVE",
"74 17 CURVE SMOOTH",
"418 510 LINE",
"411 513 OFFCURVE",
"405 514 OFFCURVE",
"399 514 CURVE SMOOTH",
"386 514 OFFCURVE",
"376 507 OFFCURVE",
"362 487 CURVE SMOOTH",
"22 0 LINE",
"27 -3 OFFCURVE",
"35 -4 OFFCURVE",
"41 -4 CURVE SMOOTH"
);
},
{
closed = 1;
nodes = (
"428 -4 OFFCURVE",
"434 10 OFFCURVE",
"420 29 CURVE SMOOTH",
"73 514 LINE",
"56 514 OFFCURVE",
"42 502 OFFCURVE",
"55 484 CURVE SMOOTH",
"405 -4 LINE"
);
}
);
width = 449;
}
);
leftKerningGroup = x;
note = x;
rightKerningGroup = x;
unicode = 0078;
},
{
glyphname = y;
layers = (
{
anchors = (
{
name = bottom;
position = "{284, 0}";
},
{
name = top;
position = "{218, 510}";
}
);
layerId = "45309390-7B6A-4DA2-8B07-FED7B2950A7C";
paths = (
{
closed = 1;
nodes = (
"143 -150 OFFCURVE",
"175 -125 OFFCURVE",
"195 -73 CURVE SMOOTH",
"417 510 LINE",
"411 513 OFFCURVE",
"404 514 OFFCURVE",
"399 514 CURVE SMOOTH",
"387 514 OFFCURVE",
"378 505 OFFCURVE",
"373 491 CURVE SMOOTH",
"213 67 LINE",
"45 514 LINE",
"25 514 OFFCURVE",
"13 499 OFFCURVE",
"21 478 CURVE SMOOTH",
"195 21 LINE",
"160 -69 LINE SMOOTH",
"147 -102 OFFCURVE",
"124 -120 OFFCURVE",
"94 -120 CURVE SMOOTH",
"73 -120 OFFCURVE",
"52 -111 OFFCURVE",
"37 -91 CURVE",
"26 -91 OFFCURVE",
"21 -97 OFFCURVE",
"21 -109 CURVE SMOOTH",
"21 -128 OFFCURVE",
"52 -150 OFFCURVE",
"96 -150 CURVE SMOOTH"
);
}
);
width = 435;
}
);
leftKerningGroup = y;
note = y;
rightKerningGroup = v;
rightMetricsKey = v;
unicode = 0079;
},
{
glyphname = z;
layers = (
{
anchors = (
{
name = bottom;
position = "{201, 0}";
},
{
name = top;
position = "{201, 510}";
}
);
layerId = "45309390-7B6A-4DA2-8B07-FED7B2950A7C";
paths = (
{
closed = 1;
nodes = (
"354 0 LINE SMOOTH",
"372 0 OFFCURVE",
"383 7 OFFCURVE",
"383 19 CURVE SMOOTH",
"383 23 OFFCURVE",
"382 26 OFFCURVE",
"380 30 CURVE",
"63 30 LINE",
"367 494 LINE",
"367 510 LINE",
"69 510 LINE SMOOTH",
"51 510 OFFCURVE",
"40 503 OFFCURVE",
"40 491 CURVE SMOOTH",
"40 487 OFFCURVE",
"41 484 OFFCURVE",
"43 480 CURVE",
"320 480 LINE",
"16 16 LINE",
"16 0 LINE"
);
}
);
width = 401;
}
);
leftKerningGroup = z;
note = z;
rightKerningGroup = z;
unicode = 007A;
},
{
glyphname = ordfeminine;
layers = (
{
layerId = "45309390-7B6A-4DA2-8B07-FED7B2950A7C";
paths = (
{
closed = 1;
nodes = (
"193 394 OFFCURVE",
"223 410 OFFCURVE",
"243 436 CURVE",
"243 400 LINE",
"248 399 OFFCURVE",
"251 398 OFFCURVE",
"255 398 CURVE SMOOTH",
"270 398 OFFCURVE",
"277 409 OFFCURVE",
"277 426 CURVE SMOOTH",
"277 599 LINE SMOOTH",
"277 669 OFFCURVE",
"236 713 OFFCURVE",
"166 713 CURVE SMOOTH",
"113 713 OFFCURVE",
"66 686 OFFCURVE",
"66 663 CURVE SMOOTH",
"66 655 OFFCURVE",
"70 647 OFFCURVE",
"81 645 CURVE",
"106 673 OFFCURVE",
"133 686 OFFCURVE",
"164 686 CURVE SMOOTH",
"213 686 OFFCURVE",
"244 653 OFFCURVE",
"244 599 CURVE SMOOTH",
"244 561 LINE",
"227 575 OFFCURVE",
"203 586 OFFCURVE",
"167 586 CURVE SMOOTH",
"101 586 OFFCURVE",
"59 547 OFFCURVE",
"59 488 CURVE SMOOTH",
"59 431 OFFCURVE",
"96 394 OFFCURVE",
"155 394 CURVE SMOOTH"
);
},
{
closed = 1;
nodes = (
"117 422 OFFCURVE",
"93 446 OFFCURVE",
"93 488 CURVE SMOOTH",
"93 532 OFFCURVE",
"122 559 OFFCURVE",
"169 559 CURVE SMOOTH",
"210 559 OFFCURVE",
"244 542 OFFCURVE",
"244 510 CURVE SMOOTH",
"244 492 LINE SMOOTH",
"244 448 OFFCURVE",
"202 422 OFFCURVE",
"157 422 CURVE SMOOTH"
);
}
);
width = 335;
}
);
note = ordfeminine;
unicode = 00AA;
},
{
glyphname = ordmasculine;
layers = (
{
layerId = "45309390-7B6A-4DA2-8B07-FED7B2950A7C";
paths = (
{
closed = 1;
nodes = (
"265 394 OFFCURVE",
"317 457 OFFCURVE",
"317 554 CURVE SMOOTH",
"317 651 OFFCURVE",
"265 714 OFFCURVE",
"184 714 CURVE SMOOTH",
"104 714 OFFCURVE",
"52 651 OFFCURVE",
"52 554 CURVE SMOOTH",
"52 457 OFFCURVE",
"104 394 OFFCURVE",
"184 394 CURVE SMOOTH"
);
},
{
closed = 1;
nodes = (
"125 424 OFFCURVE",
"87 474 OFFCURVE",
"87 554 CURVE SMOOTH",
"87 634 OFFCURVE",
"125 684 OFFCURVE",
"184 684 CURVE SMOOTH",
"244 684 OFFCURVE",
"281 634 OFFCURVE",
"281 554 CURVE SMOOTH",
"281 474 OFFCURVE",
"244 424 OFFCURVE",
"184 424 CURVE SMOOTH"
);
}
);
width = 369;
}
);
note = ordmasculine;
unicode = 00BA;
},
{
glyphname = nmod;
layers = (
{
layerId = "45309390-7B6A-4DA2-8B07-FED7B2950A7C";
paths = (
{
closed = 1;
nodes = (
"92 398 OFFCURVE",
"99 409 OFFCURVE",
"99 426 CURVE SMOOTH",
"99 552 LINE SMOOTH",
"99 639 OFFCURVE",
"133 685 OFFCURVE",
"186 685 CURVE SMOOTH",
"231 685 OFFCURVE",
"259 653 OFFCURVE",
"259 603 CURVE SMOOTH",
"259 400 LINE",
"263 399 OFFCURVE",
"267 398 OFFCURVE",
"271 398 CURVE SMOOTH",
"286 398 OFFCURVE",
"293 409 OFFCURVE",
"293 426 CURVE SMOOTH",
"293 601 LINE SMOOTH",
"293 673 OFFCURVE",
"253 714 OFFCURVE",
"192 714 CURVE SMOOTH",
"146 714 OFFCURVE",
"115 687 OFFCURVE",
"99 654 CURVE",
"99 708 LINE",
"95 709 OFFCURVE",
"91 710 OFFCURVE",
"87 710 CURVE SMOOTH",
"72 710 OFFCURVE",
"65 699 OFFCURVE",
"65 682 CURVE SMOOTH",
"65 400 LINE",
"69 399 OFFCURVE",
"73 398 OFFCURVE",
"77 398 CURVE SMOOTH"
);
}
);
width = 356;
}
);
note = uni207F;
unicode = 207F;
},
{
glyphname = Delta;
layers = (
{
layerId = "45309390-7B6A-4DA2-8B07-FED7B2950A7C";
paths = (
{
closed = 1;
nodes = (
"508 0 LINE",
"508 16 LINE",
"280 700 LINE",
"256 700 LINE",
"28 16 LINE",
"28 0 LINE"
);
},
{
closed = 1;
nodes = (
"268 622 LINE",
"465 30 LINE",
"71 30 LINE"
);
}
);
width = 536;
}
);
note = Delta;
unicode = 0394;
},
{
glyphname = Omega;
layers = (
{
layerId = "45309390-7B6A-4DA2-8B07-FED7B2950A7C";
paths = (
{
closed = 1;
nodes = (
"285 164 LINE",
"169 187 OFFCURVE",
"95 285 OFFCURVE",
"95 417 CURVE SMOOTH",
"95 578 OFFCURVE",
"193 679 OFFCURVE",
"346 679 CURVE SMOOTH",
"501 679 OFFCURVE",
"599 578 OFFCURVE",
"599 417 CURVE SMOOTH",
"599 284 OFFCURVE",
"524 186 OFFCURVE",
"407 164 CURVE",
"407 133 LINE",
"548 153 OFFCURVE",
"638 264 OFFCURVE",
"638 417 CURVE SMOOTH",
"638 596 OFFCURVE",
"525 710 OFFCURVE",
"346 710 CURVE SMOOTH",
"169 710 OFFCURVE",
"56 596 OFFCURVE",
"56 417 CURVE SMOOTH",
"56 263 OFFCURVE",
"145 153 OFFCURVE",
"285 133 CURVE"
);
},
{
closed = 1;
nodes = (
"272 0 LINE",
"272 30 LINE",
"69 30 LINE SMOOTH",
"51 30 OFFCURVE",
"40 23 OFFCURVE",
"40 11 CURVE SMOOTH",
"40 7 OFFCURVE",
"41 4 OFFCURVE",
"43 0 CURVE"
);
},
{
closed = 1;
nodes = (
"285 0 LINE",
"285 151 LINE",
"247 151 LINE",
"247 0 LINE"
);
},
{
closed = 1;
nodes = (
"445 0 LINE",
"445 151 LINE",
"407 151 LINE",
"407 0 LINE"
);
},
{
closed = 1;
nodes = (
"625 0 LINE SMOOTH",
"643 0 OFFCURVE",
"654 7 OFFCURVE",
"654 19 CURVE SMOOTH",
"654 23 OFFCURVE",
"653 26 OFFCURVE",
"651 30 CURVE",
"422 30 LINE",
"422 0 LINE"
);
}
);
width = 694;
}
);
note = Omega;
unicode = 03A9;
},
{
glyphname = mu;
layers = (
{
layerId = "45309390-7B6A-4DA2-8B07-FED7B2950A7C";
paths = (
{
closed = 1;
nodes = (
"108 -144 OFFCURVE",
"115 -131 OFFCURVE",
"115 -109 CURVE SMOOTH",
"115 61 LINE",
"140 12 OFFCURVE",
"191 -10 OFFCURVE",
"246 -10 CURVE SMOOTH",
"325 -10 OFFCURVE",
"379 39 OFFCURVE",
"405 102 CURVE",
"405 0 LINE",
"410 -3 OFFCURVE",
"414 -4 OFFCURVE",
"418 -4 CURVE SMOOTH",
"435 -4 OFFCURVE",
"442 9 OFFCURVE",
"442 31 CURVE SMOOTH",
"442 510 LINE",
"437 513 OFFCURVE",
"433 514 OFFCURVE",
"429 514 CURVE SMOOTH",
"412 514 OFFCURVE",
"405 501 OFFCURVE",
"405 479 CURVE SMOOTH",
"405 247 LINE SMOOTH",
"405 112 OFFCURVE",
"341 21 OFFCURVE",
"244 21 CURVE SMOOTH",
"166 21 OFFCURVE",
"115 79 OFFCURVE",
"115 173 CURVE SMOOTH",
"115 510 LINE",
"110 513 OFFCURVE",
"106 514 OFFCURVE",
"102 514 CURVE SMOOTH",
"85 514 OFFCURVE",
"78 501 OFFCURVE",
"78 479 CURVE SMOOTH",
"78 -140 LINE",
"83 -143 OFFCURVE",
"87 -144 OFFCURVE",
"91 -144 CURVE SMOOTH"
);
}
);
width = 520;
}
);
leftMetricsKey = "=|";
note = mu;
rightMetricsKey = u;
unicode = 03BC;
},
{
glyphname = pi;
layers = (
{
layerId = "45309390-7B6A-4DA2-8B07-FED7B2950A7C";
paths = (
{
closed = 1;
nodes = (
"447 -4 OFFCURVE",
"479 17 OFFCURVE",
"479 39 CURVE SMOOTH",
"479 49 OFFCURVE",
"473 55 OFFCURVE",
"463 55 CURVE",
"449 33 OFFCURVE",
"427 26 OFFCURVE",
"409 26 CURVE SMOOTH",
"376 26 OFFCURVE",
"359 50 OFFCURVE",
"359 94 CURVE SMOOTH",
"359 480 LINE",
"450 480 LINE SMOOTH",
"468 480 OFFCURVE",
"479 487 OFFCURVE",
"479 499 CURVE SMOOTH",
"479 502 OFFCURVE",
"478 506 OFFCURVE",
"476 510 CURVE",
"59 510 LINE SMOOTH",
"41 510 OFFCURVE",
"30 503 OFFCURVE",
"30 491 CURVE SMOOTH",
"30 487 OFFCURVE",
"31 484 OFFCURVE",
"33 480 CURVE",
"115 480 LINE",
"115 0 LINE",
"120 -3 OFFCURVE",
"124 -4 OFFCURVE",
"128 -4 CURVE SMOOTH",
"145 -4 OFFCURVE",
"152 9 OFFCURVE",
"152 31 CURVE SMOOTH",
"152 480 LINE",
"322 480 LINE",
"322 90 LINE SMOOTH",
"322 30 OFFCURVE",
"351 -4 OFFCURVE",
"405 -4 CURVE SMOOTH"
);
}
);
width = 509;
}
);
note = pi;
unicode = 03C0;
},
{
glyphname = "koKai-thai";
layers = (
{
anchors = (
{
name = bottom;
position = "{460, 0}";
},
{
name = top;
position = "{450, 510}";
}
);
layerId = "45309390-7B6A-4DA2-8B07-FED7B2950A7C";
paths = (
{
closed = 1;
nodes = (
"453 -4 OFFCURVE",
"460 9 OFFCURVE",
"460 31 CURVE SMOOTH",
"460 385 LINE SMOOTH",
"460 425 OFFCURVE",
"463 441 OFFCURVE",
"474 454 CURVE",
"468 466 LINE",
"450 468 OFFCURVE",
"431 474 OFFCURVE",
"404 488 CURVE SMOOTH",
"311 536 LINE SMOOTH",
"287 548 OFFCURVE",
"258 560 OFFCURVE",
"222 560 CURVE SMOOTH",
"136 560 OFFCURVE",
"65 497 OFFCURVE",
"28 413 CURVE",
"28 409 LINE",
"78 393 OFFCURVE",
"108 377 OFFCURVE",
"135 337 CURVE",
"163 355 LINE",
"139 397 OFFCURVE",
"100 422 OFFCURVE",
"57 431 CURVE",
"64 413 LINE",
"94 478 OFFCURVE",
"151 529 OFFCURVE",
"222 529 CURVE SMOOTH",
"250 529 OFFCURVE",
"275 522 OFFCURVE",
"300 509 CURVE SMOOTH",
"383 466 LINE SMOOTH",
"415 449 OFFCURVE",
"432 442 OFFCURVE",
"452 441 CURVE",
"446 461 LINE",
"426 442 OFFCURVE",
"423 421 OFFCURVE",
"423 389 CURVE SMOOTH",
"423 0 LINE",
"428 -3 OFFCURVE",
"432 -4 OFFCURVE",
"436 -4 CURVE SMOOTH"
);
},
{
closed = 1;
nodes = (
"134 -4 OFFCURVE",
"141 9 OFFCURVE",
"141 31 CURVE SMOOTH",
"141 245 LINE SMOOTH",
"141 321 OFFCURVE",
"156 376 OFFCURVE",
"260 376 CURVE",
"260 382 LINE",
"244 391 OFFCURVE",
"226 396 OFFCURVE",
"201 396 CURVE SMOOTH",
"142 396 OFFCURVE",
"104 337 OFFCURVE",
"104 245 CURVE SMOOTH",
"104 0 LINE",
"109 -3 OFFCURVE",
"113 -4 OFFCURVE",
"117 -4 CURVE SMOOTH"
);
}
);
width = 548;
}
);
note = uni0E01;
unicode = 0E01;
},
{
glyphname = "thoThung-thai";
layers = (
{
anchors = (
{
name = bottom;
position = "{462, 0}";
},
{
name = top;
position = "{452, 510}";
}
);
layerId = "45309390-7B6A-4DA2-8B07-FED7B2950A7C";
paths = (
{
closed = 1;
nodes = (
"455 -4 OFFCURVE",
"462 9 OFFCURVE",
"462 31 CURVE SMOOTH",
"462 385 LINE SMOOTH",
"462 425 OFFCURVE",
"465 441 OFFCURVE",
"476 454 CURVE",
"470 466 LINE",
"452 468 OFFCURVE",
"433 474 OFFCURVE",
"406 488 CURVE SMOOTH",
"313 536 LINE SMOOTH",
"289 548 OFFCURVE",
"260 560 OFFCURVE",
"224 560 CURVE SMOOTH",
"139 560 OFFCURVE",
"63 497 OFFCURVE",
"26 413 CURVE",
"26 409 LINE",
"76 393 OFFCURVE",
"106 377 OFFCURVE",
"133 337 CURVE",
"161 355 LINE",
"137 397 OFFCURVE",
"98 422 OFFCURVE",
"55 431 CURVE",
"62 413 LINE",
"92 478 OFFCURVE",
"155 529 OFFCURVE",
"224 529 CURVE SMOOTH",
"252 529 OFFCURVE",
"277 522 OFFCURVE",
"302 509 CURVE SMOOTH",
"385 466 LINE SMOOTH",
"417 449 OFFCURVE",
"434 442 OFFCURVE",
"454 441 CURVE",
"448 461 LINE",
"428 442 OFFCURVE",
"425 421 OFFCURVE",
"425 389 CURVE SMOOTH",
"425 0 LINE",
"430 -3 OFFCURVE",
"434 -4 OFFCURVE",
"438 -4 CURVE SMOOTH"
);
},
{
closed = 1;
nodes = (
"157 24 OFFCURVE",
"139 43 OFFCURVE",
"139 70 CURVE SMOOTH",
"139 97 OFFCURVE",
"157 117 OFFCURVE",
"183 117 CURVE SMOOTH",
"209 117 OFFCURVE",
"228 97 OFFCURVE",
"228 70 CURVE SMOOTH",
"228 43 OFFCURVE",
"209 24 OFFCURVE",
"183 24 CURVE SMOOTH"
);
},
{
closed = 1;
nodes = (
"230 -6 OFFCURVE",
"264 26 OFFCURVE",
"264 70 CURVE SMOOTH",
"264 114 OFFCURVE",
"230 146 OFFCURVE",
"183 146 CURVE SMOOTH",
"151 146 OFFCURVE",
"125 131 OFFCURVE",
"116 111 CURVE",
"132 111 LINE",
"138 135 OFFCURVE",
"139 150 OFFCURVE",
"139 171 CURVE SMOOTH",
"139 245 LINE SMOOTH",
"139 321 OFFCURVE",
"154 376 OFFCURVE",
"258 376 CURVE",
"258 382 LINE",
"242 391 OFFCURVE",
"224 396 OFFCURVE",
"199 396 CURVE SMOOTH",
"140 396 OFFCURVE",
"102 337 OFFCURVE",
"102 245 CURVE SMOOTH",
"102 80 LINE SMOOTH",
"102 30 OFFCURVE",
"136 -6 OFFCURVE",
"183 -6 CURVE SMOOTH"
);
}
);
width = 550;
}
);
note = uni0E16;
rightMetricsKey = "koKai-thai";
unicode = 0E16;
},
{
glyphname = "phoSamphao-thai";
layers = (
{
anchors = (
{
name = bottom;
position = "{507, 0}";
},
{
name = top;
position = "{497, 510}";
}
);
layerId = "45309390-7B6A-4DA2-8B07-FED7B2950A7C";
paths = (
{
closed = 1;
nodes = (
"500 -4 OFFCURVE",
"507 9 OFFCURVE",
"507 31 CURVE SMOOTH",
"507 385 LINE SMOOTH",
"507 425 OFFCURVE",
"510 441 OFFCURVE",
"521 454 CURVE",
"515 466 LINE",
"497 468 OFFCURVE",
"478 474 OFFCURVE",
"451 488 CURVE SMOOTH",
"358 536 LINE SMOOTH",
"334 548 OFFCURVE",
"305 560 OFFCURVE",
"269 560 CURVE SMOOTH",
"184 560 OFFCURVE",
"109 507 OFFCURVE",
"69 413 CURVE",
"69 409 LINE",
"119 395 OFFCURVE",
"155 375 OFFCURVE",
"182 337 CURVE",
"210 355 LINE",
"186 397 OFFCURVE",
"141 422 OFFCURVE",
"98 431 CURVE",
"105 413 LINE",
"143 488 OFFCURVE",
"200 529 OFFCURVE",
"269 529 CURVE SMOOTH",
"297 529 OFFCURVE",
"322 522 OFFCURVE",
"347 509 CURVE SMOOTH",
"430 466 LINE SMOOTH",
"462 449 OFFCURVE",
"479 442 OFFCURVE",
"499 441 CURVE",
"493 461 LINE",
"473 442 OFFCURVE",
"470 421 OFFCURVE",
"470 389 CURVE SMOOTH",
"470 0 LINE",
"475 -3 OFFCURVE",
"479 -4 OFFCURVE",
"483 -4 CURVE SMOOTH"
);
},
{
closed = 1;
nodes = (
"87 24 OFFCURVE",
"68 43 OFFCURVE",
"68 70 CURVE SMOOTH",
"68 97 OFFCURVE",
"87 117 OFFCURVE",
"113 117 CURVE SMOOTH",
"139 117 OFFCURVE",
"157 97 OFFCURVE",
"157 70 CURVE SMOOTH",
"157 43 OFFCURVE",
"139 24 OFFCURVE",
"113 24 CURVE SMOOTH"
);
},
{
closed = 1;
nodes = (
"160 -6 OFFCURVE",
"194 30 OFFCURVE",
"194 80 CURVE SMOOTH",
"194 245 LINE SMOOTH",
"194 321 OFFCURVE",
"209 376 OFFCURVE",
"313 376 CURVE",
"313 382 LINE",
"297 391 OFFCURVE",
"279 396 OFFCURVE",
"254 396 CURVE SMOOTH",
"195 396 OFFCURVE",
"157 337 OFFCURVE",
"157 245 CURVE SMOOTH",
"157 171 LINE SMOOTH",
"157 150 OFFCURVE",
"158 135 OFFCURVE",
"164 111 CURVE",
"180 111 LINE",
"171 131 OFFCURVE",
"145 146 OFFCURVE",
"113 146 CURVE SMOOTH",
"66 146 OFFCURVE",
"32 114 OFFCURVE",
"32 70 CURVE SMOOTH",
"32 26 OFFCURVE",
"66 -6 OFFCURVE",
"113 -6 CURVE SMOOTH"
);
}
);
width = 595;
}
);
note = uni0E20;
rightMetricsKey = "koKai-thai";
unicode = 0E20;
},
{
glyphname = "ru-thai";
layers = (
{
anchors = (
{
name = bottom;
position = "{462, -180}";
},
{
name = top;
position = "{452, 510}";
}
);
layerId = "45309390-7B6A-4DA2-8B07-FED7B2950A7C";
paths = (
{
closed = 1;
nodes = (
"455 -234 OFFCURVE",
"462 -221 OFFCURVE",
"462 -199 CURVE SMOOTH",
"462 385 LINE SMOOTH",
"462 425 OFFCURVE",
"465 441 OFFCURVE",
"476 454 CURVE",
"470 466 LINE",
"452 468 OFFCURVE",
"433 474 OFFCURVE",
"406 488 CURVE SMOOTH",
"313 536 LINE SMOOTH",
"289 548 OFFCURVE",
"260 560 OFFCURVE",
"224 560 CURVE SMOOTH",
"139 560 OFFCURVE",
"63 497 OFFCURVE",
"26 413 CURVE",
"26 409 LINE",
"76 393 OFFCURVE",
"106 377 OFFCURVE",
"133 337 CURVE",
"161 355 LINE",
"137 397 OFFCURVE",
"98 422 OFFCURVE",
"55 431 CURVE",
"62 413 LINE",
"92 478 OFFCURVE",
"155 529 OFFCURVE",
"224 529 CURVE SMOOTH",
"252 529 OFFCURVE",
"277 522 OFFCURVE",
"302 509 CURVE SMOOTH",
"385 466 LINE SMOOTH",
"417 449 OFFCURVE",
"434 442 OFFCURVE",
"454 441 CURVE",
"448 461 LINE",
"428 442 OFFCURVE",
"425 421 OFFCURVE",
"425 389 CURVE SMOOTH",
"425 -230 LINE",
"430 -233 OFFCURVE",
"434 -234 OFFCURVE",
"438 -234 CURVE SMOOTH"
);
},
{
closed = 1;
nodes = (
"157 24 OFFCURVE",
"139 43 OFFCURVE",
"139 70 CURVE SMOOTH",
"139 97 OFFCURVE",
"157 117 OFFCURVE",
"183 117 CURVE SMOOTH",
"209 117 OFFCURVE",
"228 97 OFFCURVE",
"228 70 CURVE SMOOTH",
"228 43 OFFCURVE",
"209 24 OFFCURVE",
"183 24 CURVE SMOOTH"
);
},
{
closed = 1;
nodes = (
"230 -6 OFFCURVE",
"264 26 OFFCURVE",
"264 70 CURVE SMOOTH",
"264 114 OFFCURVE",
"230 146 OFFCURVE",
"183 146 CURVE SMOOTH",
"151 146 OFFCURVE",
"125 131 OFFCURVE",
"116 111 CURVE",
"132 111 LINE",
"138 135 OFFCURVE",
"139 150 OFFCURVE",
"139 171 CURVE SMOOTH",
"139 245 LINE SMOOTH",
"139 321 OFFCURVE",
"154 376 OFFCURVE",
"258 376 CURVE",
"258 382 LINE",
"242 391 OFFCURVE",
"224 396 OFFCURVE",
"199 396 CURVE SMOOTH",
"140 396 OFFCURVE",
"102 337 OFFCURVE",
"102 245 CURVE SMOOTH",
"102 80 LINE SMOOTH",
"102 30 OFFCURVE",
"136 -6 OFFCURVE",
"183 -6 CURVE SMOOTH"
);
}
);
width = 550;
}
);
leftMetricsKey = "thoThung-thai";
note = uni0E24;
rightMetricsKey = "koKai-thai";
unicode = 0E24;
},
{
glyphname = "ru-thai.short";
layers = (
{
anchors = (
{
name = bottom;
position = "{462, -180}";
},
{
name = top;
position = "{452, 510}";
}
);
layerId = "45309390-7B6A-4DA2-8B07-FED7B2950A7C";
paths = (
{
closed = 1;
nodes = (
"455 -184 OFFCURVE",
"462 -171 OFFCURVE",
"462 -149 CURVE SMOOTH",
"462 385 LINE SMOOTH",
"462 425 OFFCURVE",
"465 441 OFFCURVE",
"476 454 CURVE",
"470 466 LINE",
"452 468 OFFCURVE",
"433 474 OFFCURVE",
"406 488 CURVE SMOOTH",
"313 536 LINE SMOOTH",
"289 548 OFFCURVE",
"260 560 OFFCURVE",
"224 560 CURVE SMOOTH",
"139 560 OFFCURVE",
"63 497 OFFCURVE",
"26 413 CURVE",
"26 409 LINE",
"76 393 OFFCURVE",
"106 377 OFFCURVE",
"133 337 CURVE",
"161 355 LINE",
"137 397 OFFCURVE",
"98 422 OFFCURVE",
"55 431 CURVE",
"62 413 LINE",
"92 478 OFFCURVE",
"155 529 OFFCURVE",
"224 529 CURVE SMOOTH",
"252 529 OFFCURVE",
"277 522 OFFCURVE",
"302 509 CURVE SMOOTH",
"385 466 LINE SMOOTH",
"417 449 OFFCURVE",
"434 442 OFFCURVE",
"454 441 CURVE",
"448 461 LINE",
"428 442 OFFCURVE",
"425 421 OFFCURVE",
"425 389 CURVE SMOOTH",
"425 -180 LINE",
"430 -183 OFFCURVE",
"434 -184 OFFCURVE",
"438 -184 CURVE SMOOTH"
);
},
{
closed = 1;
nodes = (
"157 24 OFFCURVE",
"139 43 OFFCURVE",
"139 70 CURVE SMOOTH",
"139 97 OFFCURVE",
"157 117 OFFCURVE",
"183 117 CURVE SMOOTH",
"209 117 OFFCURVE",
"228 97 OFFCURVE",
"228 70 CURVE SMOOTH",
"228 43 OFFCURVE",
"209 24 OFFCURVE",
"183 24 CURVE SMOOTH"
);
},
{
closed = 1;
nodes = (
"230 -6 OFFCURVE",
"264 26 OFFCURVE",
"264 70 CURVE SMOOTH",
"264 114 OFFCURVE",
"230 146 OFFCURVE",
"183 146 CURVE SMOOTH",
"151 146 OFFCURVE",
"125 131 OFFCURVE",
"116 111 CURVE",
"132 111 LINE",
"138 135 OFFCURVE",
"139 150 OFFCURVE",
"139 171 CURVE SMOOTH",
"139 245 LINE SMOOTH",
"139 321 OFFCURVE",
"154 376 OFFCURVE",
"258 376 CURVE",
"258 382 LINE",
"242 391 OFFCURVE",
"224 396 OFFCURVE",
"199 396 CURVE SMOOTH",
"140 396 OFFCURVE",
"102 337 OFFCURVE",
"102 245 CURVE SMOOTH",
"102 80 LINE SMOOTH",
"102 30 OFFCURVE",
"136 -6 OFFCURVE",
"183 -6 CURVE SMOOTH"
);
}
);
width = 550;
}
);
leftMetricsKey = "ru-thai";
note = "ru-thai.short";
rightMetricsKey = "koKai-thai";
},
{
glyphname = "lu-thai";
layers = (
{
anchors = (
{
name = bottom;
position = "{507, -180}";
},
{
name = top;
position = "{497, 510}";
}
);
layerId = "45309390-7B6A-4DA2-8B07-FED7B2950A7C";
paths = (
{
closed = 1;
nodes = (
"500 -234 OFFCURVE",
"507 -221 OFFCURVE",
"507 -199 CURVE SMOOTH",
"507 385 LINE SMOOTH",
"507 425 OFFCURVE",
"510 441 OFFCURVE",
"521 454 CURVE",
"515 466 LINE",
"497 468 OFFCURVE",
"478 474 OFFCURVE",
"451 488 CURVE SMOOTH",
"358 536 LINE SMOOTH",
"334 548 OFFCURVE",
"305 560 OFFCURVE",
"269 560 CURVE SMOOTH",
"184 560 OFFCURVE",
"109 507 OFFCURVE",
"69 413 CURVE",
"69 409 LINE",
"119 395 OFFCURVE",
"155 375 OFFCURVE",
"182 337 CURVE",
"210 355 LINE",
"186 397 OFFCURVE",
"141 422 OFFCURVE",
"98 431 CURVE",
"105 413 LINE",
"143 488 OFFCURVE",
"200 529 OFFCURVE",
"269 529 CURVE SMOOTH",
"297 529 OFFCURVE",
"322 522 OFFCURVE",
"347 509 CURVE SMOOTH",
"430 466 LINE SMOOTH",
"462 449 OFFCURVE",
"479 442 OFFCURVE",
"499 441 CURVE",
"493 461 LINE",
"473 442 OFFCURVE",
"470 421 OFFCURVE",
"470 389 CURVE SMOOTH",
"470 -230 LINE",
"475 -233 OFFCURVE",
"479 -234 OFFCURVE",
"483 -234 CURVE SMOOTH"
);
},
{
closed = 1;
nodes = (
"87 24 OFFCURVE",
"68 43 OFFCURVE",
"68 70 CURVE SMOOTH",
"68 97 OFFCURVE",
"87 117 OFFCURVE",
"113 117 CURVE SMOOTH",
"139 117 OFFCURVE",
"157 97 OFFCURVE",
"157 70 CURVE SMOOTH",
"157 43 OFFCURVE",
"139 24 OFFCURVE",
"113 24 CURVE SMOOTH"
);
},
{
closed = 1;
nodes = (
"160 -6 OFFCURVE",
"194 30 OFFCURVE",
"194 80 CURVE SMOOTH",
"194 245 LINE SMOOTH",
"194 321 OFFCURVE",
"209 376 OFFCURVE",
"313 376 CURVE",
"313 382 LINE",
"297 391 OFFCURVE",
"279 396 OFFCURVE",
"254 396 CURVE SMOOTH",
"195 396 OFFCURVE",
"157 337 OFFCURVE",
"157 245 CURVE SMOOTH",
"157 171 LINE SMOOTH",
"157 150 OFFCURVE",
"158 135 OFFCURVE",
"164 111 CURVE",
"180 111 LINE",
"171 131 OFFCURVE",
"145 146 OFFCURVE",
"113 146 CURVE SMOOTH",
"66 146 OFFCURVE",
"32 114 OFFCURVE",
"32 70 CURVE SMOOTH",
"32 26 OFFCURVE",
"66 -6 OFFCURVE",
"113 -6 CURVE SMOOTH"
);
}
);
width = 595;
}
);
leftMetricsKey = "phoSamphao-thai";
note = uni0E26;
rightMetricsKey = "koKai-thai";
unicode = 0E26;
},
{
glyphname = "lu-thai.short";
layers = (
{
anchors = (
{
name = bottom;
position = "{507, -180}";
},
{
name = top;
position = "{497, 510}";
}
);
layerId = "45309390-7B6A-4DA2-8B07-FED7B2950A7C";
paths = (
{
closed = 1;
nodes = (
"500 -184 OFFCURVE",
"507 -171 OFFCURVE",
"507 -149 CURVE SMOOTH",
"507 385 LINE SMOOTH",
"507 425 OFFCURVE",
"510 441 OFFCURVE",
"521 454 CURVE",
"515 466 LINE",
"497 468 OFFCURVE",
"478 474 OFFCURVE",
"451 488 CURVE SMOOTH",
"358 536 LINE SMOOTH",
"334 548 OFFCURVE",
"305 560 OFFCURVE",
"269 560 CURVE SMOOTH",
"184 560 OFFCURVE",
"109 507 OFFCURVE",
"69 413 CURVE",
"69 409 LINE",
"119 395 OFFCURVE",
"155 375 OFFCURVE",
"182 337 CURVE",
"210 355 LINE",
"186 397 OFFCURVE",
"141 422 OFFCURVE",
"98 431 CURVE",
"105 413 LINE",
"143 488 OFFCURVE",
"200 529 OFFCURVE",
"269 529 CURVE SMOOTH",
"297 529 OFFCURVE",
"322 522 OFFCURVE",
"347 509 CURVE SMOOTH",
"430 466 LINE SMOOTH",
"462 449 OFFCURVE",
"479 442 OFFCURVE",
"499 441 CURVE",
"493 461 LINE",
"473 442 OFFCURVE",
"470 421 OFFCURVE",
"470 389 CURVE SMOOTH",
"470 -180 LINE",
"475 -183 OFFCURVE",
"479 -184 OFFCURVE",
"483 -184 CURVE SMOOTH"
);
},
{
closed = 1;
nodes = (
"87 24 OFFCURVE",
"68 43 OFFCURVE",
"68 70 CURVE SMOOTH",
"68 97 OFFCURVE",
"87 117 OFFCURVE",
"113 117 CURVE SMOOTH",
"139 117 OFFCURVE",
"157 97 OFFCURVE",
"157 70 CURVE SMOOTH",
"157 43 OFFCURVE",
"139 24 OFFCURVE",
"113 24 CURVE SMOOTH"
);
},
{
closed = 1;
nodes = (
"160 -6 OFFCURVE",
"194 30 OFFCURVE",
"194 80 CURVE SMOOTH",
"194 245 LINE SMOOTH",
"194 321 OFFCURVE",
"209 376 OFFCURVE",
"313 376 CURVE",
"313 382 LINE",
"297 391 OFFCURVE",
"279 396 OFFCURVE",
"254 396 CURVE SMOOTH",
"195 396 OFFCURVE",
"157 337 OFFCURVE",
"157 245 CURVE SMOOTH",
"157 171 LINE SMOOTH",
"157 150 OFFCURVE",
"158 135 OFFCURVE",
"164 111 CURVE",
"180 111 LINE",
"171 131 OFFCURVE",
"145 146 OFFCURVE",
"113 146 CURVE SMOOTH",
"66 146 OFFCURVE",
"32 114 OFFCURVE",
"32 70 CURVE SMOOTH",
"32 26 OFFCURVE",
"66 -6 OFFCURVE",
"113 -6 CURVE SMOOTH"
);
}
);
width = 595;
}
);
leftMetricsKey = "phoSamphao-thai";
note = "lu-thai.short";
rightMetricsKey = "koKai-thai";
},
{
glyphname = "doChada-thai";
layers = (
{
anchors = (
{
name = bottom;
position = "{507, -180}";
},
{
name = top;
position = "{497, 510}";
}
);
layerId = "45309390-7B6A-4DA2-8B07-FED7B2950A7C";
paths = (
{
closed = 1;
nodes = (
"290 -240 OFFCURVE",
"354 -176 OFFCURVE",
"379 -65 CURVE SMOOTH",
"384 -43 OFFCURVE",
"379 -24 OFFCURVE",
"355 -22 CURVE",
"329 -141 OFFCURVE",
"275 -209 OFFCURVE",
"211 -209 CURVE SMOOTH",
"169 -209 OFFCURVE",
"142 -185 OFFCURVE",
"142 -148 CURVE SMOOTH",
"142 -107 OFFCURVE",
"175 -81 OFFCURVE",
"227 -81 CURVE SMOOTH",
"328 -81 OFFCURVE",
"417 -144 OFFCURVE",
"473 -230 CURVE",
"495 -230 OFFCURVE",
"507 -214 OFFCURVE",
"507 -184 CURVE SMOOTH",
"507 385 LINE SMOOTH",
"507 425 OFFCURVE",
"510 441 OFFCURVE",
"521 454 CURVE",
"515 466 LINE",
"497 468 OFFCURVE",
"478 474 OFFCURVE",
"451 488 CURVE SMOOTH",
"358 536 LINE SMOOTH",
"334 548 OFFCURVE",
"305 560 OFFCURVE",
"269 560 CURVE SMOOTH",
"184 560 OFFCURVE",
"109 507 OFFCURVE",
"69 413 CURVE",
"69 409 LINE",
"119 395 OFFCURVE",
"155 375 OFFCURVE",
"182 337 CURVE",
"210 355 LINE",
"186 397 OFFCURVE",
"141 422 OFFCURVE",
"98 431 CURVE",
"105 413 LINE",
"143 488 OFFCURVE",
"200 529 OFFCURVE",
"269 529 CURVE SMOOTH",
"297 529 OFFCURVE",
"322 522 OFFCURVE",
"347 509 CURVE SMOOTH",
"430 466 LINE SMOOTH",
"462 449 OFFCURVE",
"479 442 OFFCURVE",
"499 441 CURVE",
"493 461 LINE",
"473 442 OFFCURVE",
"470 421 OFFCURVE",
"470 389 CURVE SMOOTH",
"470 -196 LINE",
"485 -187 LINE",
"427 -108 OFFCURVE",
"329 -50 OFFCURVE",
"227 -50 CURVE SMOOTH",
"152 -50 OFFCURVE",
"105 -88 OFFCURVE",
"105 -148 CURVE SMOOTH",
"105 -204 OFFCURVE",
"146 -240 OFFCURVE",
"211 -240 CURVE SMOOTH"
);
},
{
closed = 1;
nodes = (
"87 24 OFFCURVE",
"68 43 OFFCURVE",
"68 70 CURVE SMOOTH",
"68 97 OFFCURVE",
"87 117 OFFCURVE",
"113 117 CURVE SMOOTH",
"139 117 OFFCURVE",
"157 97 OFFCURVE",
"157 70 CURVE SMOOTH",
"157 43 OFFCURVE",
"139 24 OFFCURVE",
"113 24 CURVE SMOOTH"
);
},
{
closed = 1;
nodes = (
"160 -6 OFFCURVE",
"194 30 OFFCURVE",
"194 80 CURVE SMOOTH",
"194 245 LINE SMOOTH",
"194 321 OFFCURVE",
"209 376 OFFCURVE",
"313 376 CURVE",
"313 382 LINE",
"297 391 OFFCURVE",
"279 396 OFFCURVE",
"254 396 CURVE SMOOTH",
"195 396 OFFCURVE",
"157 337 OFFCURVE",
"157 245 CURVE SMOOTH",
"157 171 LINE SMOOTH",
"157 150 OFFCURVE",
"158 135 OFFCURVE",
"164 111 CURVE",
"180 111 LINE",
"171 131 OFFCURVE",
"145 146 OFFCURVE",
"113 146 CURVE SMOOTH",
"66 146 OFFCURVE",
"32 114 OFFCURVE",
"32 70 CURVE SMOOTH",
"32 26 OFFCURVE",
"66 -6 OFFCURVE",
"113 -6 CURVE SMOOTH"
);
}
);
width = 595;
}
);
leftMetricsKey = "phoSamphao-thai";
note = uni0E0E;
rightMetricsKey = "koKai-thai";
unicode = 0E0E;
},
{
glyphname = "doChada-thai.short";
layers = (
{
anchors = (
{
name = bottom;
position = "{507, -180}";
},
{
name = top;
position = "{497, 510}";
}
);
layerId = "45309390-7B6A-4DA2-8B07-FED7B2950A7C";
paths = (
{
closed = 1;
nodes = (
"290 -190 OFFCURVE",
"354 -126 OFFCURVE",
"379 -15 CURVE SMOOTH",
"384 7 OFFCURVE",
"379 26 OFFCURVE",
"355 28 CURVE",
"329 -91 OFFCURVE",
"275 -159 OFFCURVE",
"211 -159 CURVE SMOOTH",
"169 -159 OFFCURVE",
"142 -135 OFFCURVE",
"142 -98 CURVE SMOOTH",
"142 -57 OFFCURVE",
"175 -31 OFFCURVE",
"227 -31 CURVE SMOOTH",
"328 -31 OFFCURVE",
"417 -94 OFFCURVE",
"473 -180 CURVE",
"495 -180 OFFCURVE",
"507 -164 OFFCURVE",
"507 -134 CURVE SMOOTH",
"507 385 LINE SMOOTH",
"507 425 OFFCURVE",
"510 441 OFFCURVE",
"521 454 CURVE",
"515 466 LINE",
"497 468 OFFCURVE",
"478 474 OFFCURVE",
"451 488 CURVE SMOOTH",
"358 536 LINE SMOOTH",
"334 548 OFFCURVE",
"305 560 OFFCURVE",
"269 560 CURVE SMOOTH",
"184 560 OFFCURVE",
"109 507 OFFCURVE",
"69 413 CURVE",
"69 409 LINE",
"119 395 OFFCURVE",
"155 375 OFFCURVE",
"182 337 CURVE",
"210 355 LINE",
"186 397 OFFCURVE",
"141 422 OFFCURVE",
"98 431 CURVE",
"105 413 LINE",
"143 488 OFFCURVE",
"200 529 OFFCURVE",
"269 529 CURVE SMOOTH",
"297 529 OFFCURVE",
"322 522 OFFCURVE",
"347 509 CURVE SMOOTH",
"430 466 LINE SMOOTH",
"462 449 OFFCURVE",
"479 442 OFFCURVE",
"499 441 CURVE",
"493 461 LINE",
"473 442 OFFCURVE",
"470 421 OFFCURVE",
"470 389 CURVE SMOOTH",
"470 -146 LINE",
"485 -137 LINE",
"427 -58 OFFCURVE",
"329 0 OFFCURVE",
"227 0 CURVE SMOOTH",
"152 0 OFFCURVE",
"105 -38 OFFCURVE",
"105 -98 CURVE SMOOTH",
"105 -154 OFFCURVE",
"146 -190 OFFCURVE",
"211 -190 CURVE SMOOTH"
);
},
{
closed = 1;
nodes = (
"87 44 OFFCURVE",
"68 63 OFFCURVE",
"68 90 CURVE SMOOTH",
"68 117 OFFCURVE",
"87 137 OFFCURVE",
"113 137 CURVE SMOOTH",
"139 137 OFFCURVE",
"157 117 OFFCURVE",
"157 90 CURVE SMOOTH",
"157 63 OFFCURVE",
"139 44 OFFCURVE",
"113 44 CURVE SMOOTH"
);
},
{
closed = 1;
nodes = (
"160 14 OFFCURVE",
"194 50 OFFCURVE",
"194 100 CURVE SMOOTH",
"194 245 LINE SMOOTH",
"194 321 OFFCURVE",
"209 376 OFFCURVE",
"313 376 CURVE",
"313 382 LINE",
"297 391 OFFCURVE",
"279 396 OFFCURVE",
"254 396 CURVE SMOOTH",
"195 396 OFFCURVE",
"157 337 OFFCURVE",
"157 245 CURVE SMOOTH",
"157 191 LINE SMOOTH",
"157 170 OFFCURVE",
"158 155 OFFCURVE",
"164 131 CURVE",
"180 131 LINE",
"171 151 OFFCURVE",
"145 166 OFFCURVE",
"113 166 CURVE SMOOTH",
"66 166 OFFCURVE",
"32 134 OFFCURVE",
"32 90 CURVE SMOOTH",
"32 46 OFFCURVE",
"66 14 OFFCURVE",
"113 14 CURVE SMOOTH"
);
}
);
width = 595;
}
);
leftMetricsKey = "phoSamphao-thai";
note = "doChada-thai.short";
rightMetricsKey = "koKai-thai";
},
{
glyphname = "toPatak-thai";
layers = (
{
anchors = (
{
name = bottom;
position = "{507, -180}";
},
{
name = top;
position = "{497, 510}";
}
);
layerId = "45309390-7B6A-4DA2-8B07-FED7B2950A7C";
paths = (
{
closed = 1;
nodes = (
"344 -230 LINE",
"333 -158 OFFCURVE",
"342 -112 OFFCURVE",
"375 -112 CURVE SMOOTH",
"408 -112 OFFCURVE",
"449 -158 OFFCURVE",
"473 -230 CURVE",
"495 -230 OFFCURVE",
"507 -214 OFFCURVE",
"507 -184 CURVE SMOOTH",
"507 385 LINE SMOOTH",
"507 425 OFFCURVE",
"510 441 OFFCURVE",
"521 454 CURVE",
"515 466 LINE",
"497 468 OFFCURVE",
"478 474 OFFCURVE",
"451 488 CURVE SMOOTH",
"358 536 LINE SMOOTH",
"334 548 OFFCURVE",
"305 560 OFFCURVE",
"269 560 CURVE SMOOTH",
"184 560 OFFCURVE",
"109 507 OFFCURVE",
"69 413 CURVE",
"69 409 LINE",
"119 395 OFFCURVE",
"155 375 OFFCURVE",
"182 337 CURVE",
"210 355 LINE",
"186 397 OFFCURVE",
"141 422 OFFCURVE",
"98 431 CURVE",
"105 413 LINE",
"143 488 OFFCURVE",
"200 529 OFFCURVE",
"269 529 CURVE SMOOTH",
"297 529 OFFCURVE",
"322 522 OFFCURVE",
"347 509 CURVE SMOOTH",
"430 466 LINE SMOOTH",
"462 449 OFFCURVE",
"479 442 OFFCURVE",
"499 441 CURVE",
"493 461 LINE",
"473 442 OFFCURVE",
"470 421 OFFCURVE",
"470 389 CURVE SMOOTH",
"470 -179 LINE",
"486 -179 LINE",
"447 -100 OFFCURVE",
"405 -81 OFFCURVE",
"375 -81 CURVE SMOOTH",
"328 -81 OFFCURVE",
"295 -127 OFFCURVE",
"322 -199 CURVE",
"335 -194 LINE",
"294 -115 OFFCURVE",
"243 -60 OFFCURVE",
"168 -60 CURVE SMOOTH",
"110 -60 OFFCURVE",
"73 -93 OFFCURVE",
"73 -145 CURVE SMOOTH",
"73 -195 OFFCURVE",
"107 -226 OFFCURVE",
"163 -226 CURVE SMOOTH",
"230 -226 OFFCURVE",
"269 -182 OFFCURVE",
"284 -92 CURVE SMOOTH",
"290 -55 OFFCURVE",
"282 -30 OFFCURVE",
"252 -34 CURVE",
"249 -146 OFFCURVE",
"218 -195 OFFCURVE",
"163 -195 CURVE SMOOTH",
"130 -195 OFFCURVE",
"110 -176 OFFCURVE",
"110 -145 CURVE SMOOTH",
"110 -112 OFFCURVE",
"133 -91 OFFCURVE",
"168 -91 CURVE SMOOTH",
"221 -91 OFFCURVE",
"272 -140 OFFCURVE",
"328 -230 CURVE"
);
},
{
closed = 1;
nodes = (
"87 24 OFFCURVE",
"68 43 OFFCURVE",
"68 70 CURVE SMOOTH",
"68 97 OFFCURVE",
"87 117 OFFCURVE",
"113 117 CURVE SMOOTH",
"139 117 OFFCURVE",
"157 97 OFFCURVE",
"157 70 CURVE SMOOTH",
"157 43 OFFCURVE",
"139 24 OFFCURVE",
"113 24 CURVE SMOOTH"
);
},
{
closed = 1;
nodes = (
"160 -6 OFFCURVE",
"194 30 OFFCURVE",
"194 80 CURVE SMOOTH",
"194 245 LINE SMOOTH",
"194 321 OFFCURVE",
"209 376 OFFCURVE",
"313 376 CURVE",
"313 382 LINE",
"297 391 OFFCURVE",
"279 396 OFFCURVE",
"254 396 CURVE SMOOTH",
"195 396 OFFCURVE",
"157 337 OFFCURVE",
"157 245 CURVE SMOOTH",
"157 171 LINE SMOOTH",
"157 150 OFFCURVE",
"158 135 OFFCURVE",
"164 111 CURVE",
"180 111 LINE",
"171 131 OFFCURVE",
"145 146 OFFCURVE",
"113 146 CURVE SMOOTH",
"66 146 OFFCURVE",
"32 114 OFFCURVE",
"32 70 CURVE SMOOTH",
"32 26 OFFCURVE",
"66 -6 OFFCURVE",
"113 -6 CURVE SMOOTH"
);
}
);
width = 595;
}
);
leftMetricsKey = "phoSamphao-thai";
note = uni0E0F;
rightMetricsKey = "koKai-thai";
unicode = 0E0F;
},
{
glyphname = "toPatak-thai.short";
layers = (
{
anchors = (
{
name = bottom;
position = "{507, -180}";
},
{
name = top;
position = "{497, 510}";
}
);
layerId = "45309390-7B6A-4DA2-8B07-FED7B2950A7C";
paths = (
{
closed = 1;
nodes = (
"344 -180 LINE",
"333 -108 OFFCURVE",
"342 -62 OFFCURVE",
"375 -62 CURVE SMOOTH",
"408 -62 OFFCURVE",
"449 -108 OFFCURVE",
"473 -180 CURVE",
"495 -180 OFFCURVE",
"507 -164 OFFCURVE",
"507 -134 CURVE SMOOTH",
"507 385 LINE SMOOTH",
"507 425 OFFCURVE",
"510 441 OFFCURVE",
"521 454 CURVE",
"515 466 LINE",
"497 468 OFFCURVE",
"478 474 OFFCURVE",
"451 488 CURVE SMOOTH",
"358 536 LINE SMOOTH",
"334 548 OFFCURVE",
"305 560 OFFCURVE",
"269 560 CURVE SMOOTH",
"184 560 OFFCURVE",
"109 507 OFFCURVE",
"69 413 CURVE",
"69 409 LINE",
"119 395 OFFCURVE",
"155 375 OFFCURVE",
"182 337 CURVE",
"210 355 LINE",
"186 397 OFFCURVE",
"141 422 OFFCURVE",
"98 431 CURVE",
"105 413 LINE",
"143 488 OFFCURVE",
"200 529 OFFCURVE",
"269 529 CURVE SMOOTH",
"297 529 OFFCURVE",
"322 522 OFFCURVE",
"347 509 CURVE SMOOTH",
"430 466 LINE SMOOTH",
"462 449 OFFCURVE",
"479 442 OFFCURVE",
"499 441 CURVE",
"493 461 LINE",
"473 442 OFFCURVE",
"470 421 OFFCURVE",
"470 389 CURVE SMOOTH",
"470 -129 LINE",
"486 -129 LINE",
"447 -50 OFFCURVE",
"405 -31 OFFCURVE",
"375 -31 CURVE SMOOTH",
"328 -31 OFFCURVE",
"295 -77 OFFCURVE",
"322 -149 CURVE",
"335 -144 LINE",
"294 -65 OFFCURVE",
"243 -10 OFFCURVE",
"168 -10 CURVE SMOOTH",
"110 -10 OFFCURVE",
"73 -43 OFFCURVE",
"73 -95 CURVE SMOOTH",
"73 -145 OFFCURVE",
"107 -176 OFFCURVE",
"163 -176 CURVE SMOOTH",
"230 -176 OFFCURVE",
"269 -132 OFFCURVE",
"284 -42 CURVE SMOOTH",
"290 -5 OFFCURVE",
"282 20 OFFCURVE",
"252 16 CURVE",
"249 -96 OFFCURVE",
"218 -145 OFFCURVE",
"163 -145 CURVE SMOOTH",
"130 -145 OFFCURVE",
"110 -126 OFFCURVE",
"110 -95 CURVE SMOOTH",
"110 -62 OFFCURVE",
"133 -41 OFFCURVE",
"168 -41 CURVE SMOOTH",
"221 -41 OFFCURVE",
"272 -90 OFFCURVE",
"328 -180 CURVE"
);
},
{
closed = 1;
nodes = (
"87 44 OFFCURVE",
"68 63 OFFCURVE",
"68 90 CURVE SMOOTH",
"68 117 OFFCURVE",
"87 137 OFFCURVE",
"113 137 CURVE SMOOTH",
"139 137 OFFCURVE",
"157 117 OFFCURVE",
"157 90 CURVE SMOOTH",
"157 63 OFFCURVE",
"139 44 OFFCURVE",
"113 44 CURVE SMOOTH"
);
},
{
closed = 1;
nodes = (
"160 14 OFFCURVE",
"194 50 OFFCURVE",
"194 100 CURVE SMOOTH",
"194 245 LINE SMOOTH",
"194 321 OFFCURVE",
"209 376 OFFCURVE",
"313 376 CURVE",
"313 382 LINE",
"297 391 OFFCURVE",
"279 396 OFFCURVE",
"254 396 CURVE SMOOTH",
"195 396 OFFCURVE",
"157 337 OFFCURVE",
"157 245 CURVE SMOOTH",
"157 191 LINE SMOOTH",
"157 170 OFFCURVE",
"158 155 OFFCURVE",
"164 131 CURVE",
"180 131 LINE",
"171 151 OFFCURVE",
"145 166 OFFCURVE",
"113 166 CURVE SMOOTH",
"66 166 OFFCURVE",
"32 134 OFFCURVE",
"32 90 CURVE SMOOTH",
"32 46 OFFCURVE",
"66 14 OFFCURVE",
"113 14 CURVE SMOOTH"
);
}
);
width = 595;
}
);
leftMetricsKey = "phoSamphao-thai";
note = "toPatak-thai.short";
rightMetricsKey = "koKai-thai";
},
{
glyphname = "ru_lakkhangyao-thai";
layers = (
{
layerId = "45309390-7B6A-4DA2-8B07-FED7B2950A7C";
paths = (
{
closed = 1;
nodes = (
"455 -234 OFFCURVE",
"462 -221 OFFCURVE",
"462 -199 CURVE SMOOTH",
"462 385 LINE SMOOTH",
"462 425 OFFCURVE",
"468 441 OFFCURVE",
"475 455 CURVE",
"470 466 LINE",
"452 468 OFFCURVE",
"433 474 OFFCURVE",
"406 488 CURVE SMOOTH",
"313 536 LINE SMOOTH",
"289 548 OFFCURVE",
"260 560 OFFCURVE",
"224 560 CURVE SMOOTH",
"139 560 OFFCURVE",
"63 497 OFFCURVE",
"26 413 CURVE",
"26 409 LINE",
"76 393 OFFCURVE",
"106 377 OFFCURVE",
"133 337 CURVE",
"161 355 LINE",
"137 397 OFFCURVE",
"98 422 OFFCURVE",
"55 431 CURVE",
"62 413 LINE",
"92 478 OFFCURVE",
"155 529 OFFCURVE",
"224 529 CURVE SMOOTH",
"252 529 OFFCURVE",
"277 522 OFFCURVE",
"302 509 CURVE SMOOTH",
"385 466 LINE SMOOTH",
"417 449 OFFCURVE",
"434 442 OFFCURVE",
"454 441 CURVE",
"448 461 LINE",
"428 442 OFFCURVE",
"425 421 OFFCURVE",
"425 389 CURVE SMOOTH",
"425 -230 LINE",
"430 -233 OFFCURVE",
"434 -234 OFFCURVE",
"438 -234 CURVE SMOOTH"
);
},
{
closed = 1;
nodes = (
"157 24 OFFCURVE",
"139 43 OFFCURVE",
"139 70 CURVE SMOOTH",
"139 97 OFFCURVE",
"157 117 OFFCURVE",
"183 117 CURVE SMOOTH",
"209 117 OFFCURVE",
"228 97 OFFCURVE",
"228 70 CURVE SMOOTH",
"228 43 OFFCURVE",
"209 24 OFFCURVE",
"183 24 CURVE SMOOTH"
);
},
{
closed = 1;
nodes = (
"230 -6 OFFCURVE",
"264 26 OFFCURVE",
"264 70 CURVE SMOOTH",
"264 114 OFFCURVE",
"230 146 OFFCURVE",
"183 146 CURVE SMOOTH",
"151 146 OFFCURVE",
"125 131 OFFCURVE",
"116 111 CURVE",
"132 111 LINE",
"138 135 OFFCURVE",
"139 150 OFFCURVE",
"139 171 CURVE SMOOTH",
"139 245 LINE SMOOTH",
"139 321 OFFCURVE",
"154 376 OFFCURVE",
"258 376 CURVE",
"258 382 LINE",
"242 391 OFFCURVE",
"224 396 OFFCURVE",
"199 396 CURVE SMOOTH",
"140 396 OFFCURVE",
"102 337 OFFCURVE",
"102 245 CURVE SMOOTH",
"102 80 LINE SMOOTH",
"102 30 OFFCURVE",
"136 -6 OFFCURVE",
"183 -6 CURVE SMOOTH"
);
},
{
closed = 1;
nodes = (
"720 -234 OFFCURVE",
"727 -221 OFFCURVE",
"727 -199 CURVE SMOOTH",
"727 405 LINE SMOOTH",
"727 445 OFFCURVE",
"730 461 OFFCURVE",
"741 474 CURVE",
"735 486 LINE",
"715 489 OFFCURVE",
"700 493 OFFCURVE",
"682 506 CURVE SMOOTH",
"634 542 LINE SMOOTH",
"617 554 OFFCURVE",
"597 560 OFFCURVE",
"573 560 CURVE SMOOTH",
"491 560 OFFCURVE",
"448 490 OFFCURVE",
"436 435 CURVE",
"462 391 LINE",
"462 457 OFFCURVE",
"505 529 OFFCURVE",
"573 529 CURVE SMOOTH",
"589 529 OFFCURVE",
"604 525 OFFCURVE",
"619 514 CURVE SMOOTH",
"662 482 LINE SMOOTH",
"680 468 OFFCURVE",
"694 464 OFFCURVE",
"714 461 CURVE",
"713 481 LINE",
"693 462 OFFCURVE",
"690 441 OFFCURVE",
"690 409 CURVE SMOOTH",
"690 -230 LINE",
"695 -233 OFFCURVE",
"699 -234 OFFCURVE",
"703 -234 CURVE SMOOTH"
);
}
);
width = 815;
}
);
leftMetricsKey = "thoThung-thai";
note = "ru_lakkhangyao-thai";
rightMetricsKey = "koKai-thai";
},
{
glyphname = "lu_lakkhangyao-thai";
layers = (
{
layerId = "45309390-7B6A-4DA2-8B07-FED7B2950A7C";
paths = (
{
closed = 1;
nodes = (
"500 -234 OFFCURVE",
"507 -221 OFFCURVE",
"507 -199 CURVE SMOOTH",
"507 385 LINE SMOOTH",
"507 425 OFFCURVE",
"513 441 OFFCURVE",
"520 455 CURVE",
"515 466 LINE",
"497 468 OFFCURVE",
"478 474 OFFCURVE",
"451 488 CURVE SMOOTH",
"358 536 LINE SMOOTH",
"334 548 OFFCURVE",
"305 560 OFFCURVE",
"269 560 CURVE SMOOTH",
"184 560 OFFCURVE",
"109 507 OFFCURVE",
"69 413 CURVE",
"69 409 LINE",
"119 395 OFFCURVE",
"155 375 OFFCURVE",
"182 337 CURVE",
"210 355 LINE",
"186 397 OFFCURVE",
"141 422 OFFCURVE",
"98 431 CURVE",
"105 413 LINE",
"143 488 OFFCURVE",
"200 529 OFFCURVE",
"269 529 CURVE SMOOTH",
"297 529 OFFCURVE",
"322 522 OFFCURVE",
"347 509 CURVE SMOOTH",
"430 466 LINE SMOOTH",
"462 449 OFFCURVE",
"479 442 OFFCURVE",
"499 441 CURVE",
"493 461 LINE",
"473 442 OFFCURVE",
"470 421 OFFCURVE",
"470 389 CURVE SMOOTH",
"470 -230 LINE",
"475 -233 OFFCURVE",
"479 -234 OFFCURVE",
"483 -234 CURVE SMOOTH"
);
},
{
closed = 1;
nodes = (
"87 24 OFFCURVE",
"68 43 OFFCURVE",
"68 70 CURVE SMOOTH",
"68 97 OFFCURVE",
"87 117 OFFCURVE",
"113 117 CURVE SMOOTH",
"139 117 OFFCURVE",
"157 97 OFFCURVE",
"157 70 CURVE SMOOTH",
"157 43 OFFCURVE",
"139 24 OFFCURVE",
"113 24 CURVE SMOOTH"
);
},
{
closed = 1;
nodes = (
"160 -6 OFFCURVE",
"194 30 OFFCURVE",
"194 80 CURVE SMOOTH",
"194 245 LINE SMOOTH",
"194 321 OFFCURVE",
"209 376 OFFCURVE",
"313 376 CURVE",
"313 382 LINE",
"297 391 OFFCURVE",
"279 396 OFFCURVE",
"254 396 CURVE SMOOTH",
"195 396 OFFCURVE",
"157 337 OFFCURVE",
"157 245 CURVE SMOOTH",
"157 171 LINE SMOOTH",
"157 150 OFFCURVE",
"158 135 OFFCURVE",
"164 111 CURVE",
"180 111 LINE",
"171 131 OFFCURVE",
"145 146 OFFCURVE",
"113 146 CURVE SMOOTH",
"66 146 OFFCURVE",
"32 114 OFFCURVE",
"32 70 CURVE SMOOTH",
"32 26 OFFCURVE",
"66 -6 OFFCURVE",
"113 -6 CURVE SMOOTH"
);
},
{
closed = 1;
nodes = (
"765 -234 OFFCURVE",
"772 -221 OFFCURVE",
"772 -199 CURVE SMOOTH",
"772 405 LINE SMOOTH",
"772 445 OFFCURVE",
"775 461 OFFCURVE",
"786 474 CURVE",
"780 486 LINE",
"760 489 OFFCURVE",
"745 493 OFFCURVE",
"727 506 CURVE SMOOTH",
"679 542 LINE SMOOTH",
"662 554 OFFCURVE",
"642 560 OFFCURVE",
"618 560 CURVE SMOOTH",
"536 560 OFFCURVE",
"493 490 OFFCURVE",
"481 435 CURVE",
"507 391 LINE",
"507 457 OFFCURVE",
"550 529 OFFCURVE",
"618 529 CURVE SMOOTH",
"634 529 OFFCURVE",
"649 525 OFFCURVE",
"664 514 CURVE SMOOTH",
"707 482 LINE SMOOTH",
"725 468 OFFCURVE",
"739 464 OFFCURVE",
"759 461 CURVE",
"758 481 LINE",
"738 462 OFFCURVE",
"735 441 OFFCURVE",
"735 409 CURVE SMOOTH",
"735 -230 LINE",
"740 -233 OFFCURVE",
"744 -234 OFFCURVE",
"748 -234 CURVE SMOOTH"
);
}
);
width = 860;
}
);
leftMetricsKey = "phoSamphao-thai";
note = "lu_lakkhangyao-thai";
rightMetricsKey = "koKai-thai";
},
{
glyphname = "yoYing-thai";
layers = (
{
anchors = (
{
name = bottom;
position = "{719, -240}";
},
{
name = top;
position = "{729, 510}";
}
);
layerId = "45309390-7B6A-4DA2-8B07-FED7B2950A7C";
paths = (
{
closed = 1;
nodes = (
"670 -240 OFFCURVE",
"729 -185 OFFCURVE",
"729 -70 CURVE SMOOTH",
"729 550 LINE",
"724 553 OFFCURVE",
"720 554 OFFCURVE",
"716 554 CURVE SMOOTH",
"699 554 OFFCURVE",
"692 541 OFFCURVE",
"692 519 CURVE SMOOTH",
"692 151 LINE SMOOTH",
"692 78 OFFCURVE",
"641 31 OFFCURVE",
"562 31 CURVE SMOOTH",
"509 31 OFFCURVE",
"458 43 OFFCURVE",
"412 43 CURVE",
"424 25 LINE",
"442 55 OFFCURVE",
"446 80 OFFCURVE",
"446 130 CURVE SMOOTH",
"446 391 LINE SMOOTH",
"446 431 OFFCURVE",
"449 447 OFFCURVE",
"460 460 CURVE",
"454 472 LINE",
"436 474 OFFCURVE",
"415 481 OFFCURVE",
"390 495 CURVE SMOOTH",
"313 538 LINE SMOOTH",
"291 550 OFFCURVE",
"260 560 OFFCURVE",
"224 560 CURVE SMOOTH",
"133 560 OFFCURVE",
"63 497 OFFCURVE",
"26 413 CURVE",
"26 409 LINE",
"76 393 OFFCURVE",
"106 377 OFFCURVE",
"133 337 CURVE",
"161 355 LINE",
"137 397 OFFCURVE",
"98 422 OFFCURVE",
"55 431 CURVE",
"62 413 LINE",
"92 478 OFFCURVE",
"149 529 OFFCURVE",
"224 529 CURVE SMOOTH",
"252 529 OFFCURVE",
"279 522 OFFCURVE",
"302 509 CURVE SMOOTH",
"369 471 LINE SMOOTH",
"399 454 OFFCURVE",
"418 448 OFFCURVE",
"438 447 CURVE",
"432 467 LINE",
"412 448 OFFCURVE",
"409 427 OFFCURVE",
"409 395 CURVE SMOOTH",
"409 130 LINE SMOOTH",
"409 70 OFFCURVE",
"400 44 OFFCURVE",
"385 30 CURVE",
"391 14 LINE",
"459 14 OFFCURVE",
"495 0 OFFCURVE",
"562 0 CURVE SMOOTH",
"632 0 OFFCURVE",
"685 28 OFFCURVE",
"711 75 CURVE",
"700 80 LINE",
"694 63 OFFCURVE",
"692 30 OFFCURVE",
"692 -70 CURVE SMOOTH",
"692 -164 OFFCURVE",
"645 -209 OFFCURVE",
"547 -209 CURVE SMOOTH",
"471 -209 OFFCURVE",
"424 -183 OFFCURVE",
"424 -133 CURVE SMOOTH",
"424 -94 OFFCURVE",
"452 -71 OFFCURVE",
"503 -71 CURVE SMOOTH",
"544 -71 OFFCURVE",
"566 -86 OFFCURVE",
"566 -108 CURVE SMOOTH",
"566 -131 OFFCURVE",
"543 -143 OFFCURVE",
"494 -143 CURVE",
"494 -161 OFFCURVE",
"504 -172 OFFCURVE",
"532 -172 CURVE SMOOTH",
"576 -172 OFFCURVE",
"604 -145 OFFCURVE",
"604 -108 CURVE SMOOTH",
"604 -67 OFFCURVE",
"570 -40 OFFCURVE",
"503 -40 CURVE SMOOTH",
"427 -40 OFFCURVE",
"386 -74 OFFCURVE",
"386 -133 CURVE SMOOTH",
"386 -203 OFFCURVE",
"446 -240 OFFCURVE",
"547 -240 CURVE SMOOTH"
);
},
{
closed = 1;
nodes = (
"157 24 OFFCURVE",
"139 43 OFFCURVE",
"139 70 CURVE SMOOTH",
"139 97 OFFCURVE",
"157 117 OFFCURVE",
"183 117 CURVE SMOOTH",
"209 117 OFFCURVE",
"228 97 OFFCURVE",
"228 70 CURVE SMOOTH",
"228 43 OFFCURVE",
"209 24 OFFCURVE",
"183 24 CURVE SMOOTH"
);
},
{
closed = 1;
nodes = (
"230 -6 OFFCURVE",
"264 26 OFFCURVE",
"264 70 CURVE SMOOTH",
"264 114 OFFCURVE",
"230 146 OFFCURVE",
"183 146 CURVE SMOOTH",
"151 146 OFFCURVE",
"125 131 OFFCURVE",
"116 111 CURVE",
"132 111 LINE",
"138 135 OFFCURVE",
"139 150 OFFCURVE",
"139 171 CURVE SMOOTH",
"139 245 LINE SMOOTH",
"139 321 OFFCURVE",
"154 376 OFFCURVE",
"258 376 CURVE",
"258 382 LINE",
"242 391 OFFCURVE",
"224 396 OFFCURVE",
"199 396 CURVE SMOOTH",
"140 396 OFFCURVE",
"102 337 OFFCURVE",
"102 245 CURVE SMOOTH",
"102 80 LINE SMOOTH",
"102 30 OFFCURVE",
"136 -6 OFFCURVE",
"183 -6 CURVE SMOOTH"
);
}
);
width = 811;
}
);
leftMetricsKey = "thoThung-thai";
note = uni0E0D;
rightMetricsKey = "boBaimai-thai";
unicode = 0E0D;
},
{
glyphname = "yoYing-thai.less";
layers = (
{
anchors = (
{
name = bottom;
position = "{719, 0}";
},
{
name = top;
position = "{729, 510}";
}
);
layerId = "45309390-7B6A-4DA2-8B07-FED7B2950A7C";
paths = (
{
closed = 1;
nodes = (
"664 -10 OFFCURVE",
"729 49 OFFCURVE",
"729 141 CURVE SMOOTH",
"729 550 LINE",
"724 553 OFFCURVE",
"720 554 OFFCURVE",
"716 554 CURVE SMOOTH",
"699 554 OFFCURVE",
"692 541 OFFCURVE",
"692 519 CURVE SMOOTH",
"692 141 LINE SMOOTH",
"692 68 OFFCURVE",
"641 21 OFFCURVE",
"562 21 CURVE SMOOTH",
"509 21 OFFCURVE",
"458 33 OFFCURVE",
"412 33 CURVE",
"424 15 LINE",
"442 45 OFFCURVE",
"446 70 OFFCURVE",
"446 120 CURVE SMOOTH",
"446 391 LINE SMOOTH",
"446 431 OFFCURVE",
"449 447 OFFCURVE",
"460 460 CURVE",
"454 472 LINE",
"436 474 OFFCURVE",
"415 481 OFFCURVE",
"390 495 CURVE SMOOTH",
"313 538 LINE SMOOTH",
"291 550 OFFCURVE",
"260 560 OFFCURVE",
"224 560 CURVE SMOOTH",
"133 560 OFFCURVE",
"63 497 OFFCURVE",
"26 413 CURVE",
"26 409 LINE",
"76 393 OFFCURVE",
"106 377 OFFCURVE",
"133 337 CURVE",
"161 355 LINE",
"137 397 OFFCURVE",
"98 422 OFFCURVE",
"55 431 CURVE",
"62 413 LINE",
"92 478 OFFCURVE",
"149 529 OFFCURVE",
"224 529 CURVE SMOOTH",
"252 529 OFFCURVE",
"279 522 OFFCURVE",
"302 509 CURVE SMOOTH",
"369 471 LINE SMOOTH",
"399 454 OFFCURVE",
"418 448 OFFCURVE",
"438 447 CURVE",
"432 467 LINE",
"412 448 OFFCURVE",
"409 427 OFFCURVE",
"409 395 CURVE SMOOTH",
"409 120 LINE SMOOTH",
"409 60 OFFCURVE",
"400 34 OFFCURVE",
"385 20 CURVE",
"391 4 LINE",
"459 4 OFFCURVE",
"495 -10 OFFCURVE",
"562 -10 CURVE SMOOTH"
);
},
{
closed = 1;
nodes = (
"157 24 OFFCURVE",
"139 43 OFFCURVE",
"139 70 CURVE SMOOTH",
"139 97 OFFCURVE",
"157 117 OFFCURVE",
"183 117 CURVE SMOOTH",
"209 117 OFFCURVE",
"228 97 OFFCURVE",
"228 70 CURVE SMOOTH",
"228 43 OFFCURVE",
"209 24 OFFCURVE",
"183 24 CURVE SMOOTH"
);
},
{
closed = 1;
nodes = (
"230 -6 OFFCURVE",
"264 26 OFFCURVE",
"264 70 CURVE SMOOTH",
"264 114 OFFCURVE",
"230 146 OFFCURVE",
"183 146 CURVE SMOOTH",
"151 146 OFFCURVE",
"125 131 OFFCURVE",
"116 111 CURVE",
"132 111 LINE",
"138 135 OFFCURVE",
"139 150 OFFCURVE",
"139 171 CURVE SMOOTH",
"139 245 LINE SMOOTH",
"139 321 OFFCURVE",
"154 376 OFFCURVE",
"258 376 CURVE",
"258 382 LINE",
"242 391 OFFCURVE",
"224 396 OFFCURVE",
"199 396 CURVE SMOOTH",
"140 396 OFFCURVE",
"102 337 OFFCURVE",
"102 245 CURVE SMOOTH",
"102 80 LINE SMOOTH",
"102 30 OFFCURVE",
"136 -6 OFFCURVE",
"183 -6 CURVE SMOOTH"
);
}
);
width = 811;
}
);
leftMetricsKey = "thoThung-thai";
note = "yoYing-thai.less";
rightMetricsKey = "boBaimai-thai";
},
{
glyphname = "khoKhai-thai";
layers = (
{
anchors = (
{
name = bottom;
position = "{374, 0}";
},
{
name = top;
position = "{384, 510}";
}
);
layerId = "45309390-7B6A-4DA2-8B07-FED7B2950A7C";
paths = (
{
closed = 1;
nodes = (
"330 -10 OFFCURVE",
"384 47 OFFCURVE",
"384 136 CURVE SMOOTH",
"384 550 LINE",
"379 553 OFFCURVE",
"375 554 OFFCURVE",
"371 554 CURVE SMOOTH",
"354 554 OFFCURVE",
"347 541 OFFCURVE",
"347 519 CURVE SMOOTH",
"347 136 LINE SMOOTH",
"347 66 OFFCURVE",
"307 21 OFFCURVE",
"244 21 CURVE SMOOTH",
"205 21 OFFCURVE",
"177 33 OFFCURVE",
"131 33 CURVE",
"143 15 LINE",
"161 45 OFFCURVE",
"165 70 OFFCURVE",
"165 140 CURVE SMOOTH",
"165 204 OFFCURVE",
"172 236 OFFCURVE",
"206 300 CURVE SMOOTH",
"238 361 OFFCURVE",
"248 393 OFFCURVE",
"248 434 CURVE SMOOTH",
"248 517 OFFCURVE",
"202 560 OFFCURVE",
"130 560 CURVE SMOOTH",
"55 560 OFFCURVE",
"8 513 OFFCURVE",
"8 439 CURVE SMOOTH",
"8 379 OFFCURVE",
"39 345 OFFCURVE",
"92 345 CURVE SMOOTH",
"140 345 OFFCURVE",
"172 372 OFFCURVE",
"172 419 CURVE SMOOTH",
"172 459 OFFCURVE",
"148 484 OFFCURVE",
"113 484 CURVE SMOOTH",
"90 484 OFFCURVE",
"78 473 OFFCURVE",
"84 455 CURVE",
"116 460 OFFCURVE",
"136 445 OFFCURVE",
"136 419 CURVE SMOOTH",
"136 396 OFFCURVE",
"120 375 OFFCURVE",
"92 375 CURVE SMOOTH",
"61 375 OFFCURVE",
"45 400 OFFCURVE",
"45 439 CURVE SMOOTH",
"45 494 OFFCURVE",
"78 529 OFFCURVE",
"130 529 CURVE SMOOTH",
"179 529 OFFCURVE",
"210 498 OFFCURVE",
"210 434 CURVE SMOOTH",
"210 401 OFFCURVE",
"202 371 OFFCURVE",
"171 310 CURVE SMOOTH",
"137 245 OFFCURVE",
"128 211 OFFCURVE",
"128 140 CURVE SMOOTH",
"128 60 OFFCURVE",
"119 34 OFFCURVE",
"104 20 CURVE",
"110 4 LINE",
"178 4 OFFCURVE",
"191 -10 OFFCURVE",
"244 -10 CURVE SMOOTH"
);
}
);
width = 466;
}
);
note = uni0E02;
rightMetricsKey = "boBaimai-thai";
unicode = 0E02;
},
{
glyphname = "khoKhuat-thai";
layers = (
{
anchors = (
{
name = bottom;
position = "{374, 0}";
},
{
name = top;
position = "{384, 510}";
}
);
layerId = "45309390-7B6A-4DA2-8B07-FED7B2950A7C";
paths = (
{
closed = 1;
nodes = (
"330 -10 OFFCURVE",
"384 47 OFFCURVE",
"384 136 CURVE SMOOTH",
"384 550 LINE",
"379 553 OFFCURVE",
"375 554 OFFCURVE",
"371 554 CURVE SMOOTH",
"354 554 OFFCURVE",
"347 541 OFFCURVE",
"347 519 CURVE SMOOTH",
"347 136 LINE SMOOTH",
"347 66 OFFCURVE",
"307 21 OFFCURVE",
"244 21 CURVE SMOOTH",
"205 21 OFFCURVE",
"177 33 OFFCURVE",
"131 33 CURVE",
"143 15 LINE",
"161 45 OFFCURVE",
"165 70 OFFCURVE",
"165 140 CURVE SMOOTH",
"165 204 OFFCURVE",
"175 236 OFFCURVE",
"213 300 CURVE SMOOTH",
"257 374 OFFCURVE",
"268 411 OFFCURVE",
"268 455 CURVE SMOOTH",
"268 524 OFFCURVE",
"240 556 OFFCURVE",
"191 556 CURVE SMOOTH",
"168 556 OFFCURVE",
"148 544 OFFCURVE",
"136 522 CURVE",
"124 544 OFFCURVE",
"104 556 OFFCURVE",
"80 556 CURVE SMOOTH",
"34 556 OFFCURVE",
"8 518 OFFCURVE",
"8 450 CURVE SMOOTH",
"8 378 OFFCURVE",
"38 343 OFFCURVE",
"99 343 CURVE SMOOTH",
"150 343 OFFCURVE",
"179 367 OFFCURVE",
"179 409 CURVE SMOOTH",
"179 445 OFFCURVE",
"156 466 OFFCURVE",
"120 466 CURVE SMOOTH",
"96 466 OFFCURVE",
"85 455 OFFCURVE",
"91 437 CURVE",
"123 442 OFFCURVE",
"143 432 OFFCURVE",
"143 409 CURVE SMOOTH",
"143 386 OFFCURVE",
"127 372 OFFCURVE",
"99 372 CURVE SMOOTH",
"63 372 OFFCURVE",
"45 398 OFFCURVE",
"45 450 CURVE SMOOTH",
"45 498 OFFCURVE",
"59 525 OFFCURVE",
"87 525 CURVE SMOOTH",
"109 525 OFFCURVE",
"124 513 OFFCURVE",
"130 489 CURVE",
"142 489 LINE",
"148 513 OFFCURVE",
"163 525 OFFCURVE",
"185 525 CURVE SMOOTH",
"214 525 OFFCURVE",
"230 504 OFFCURVE",
"230 455 CURVE SMOOTH",
"230 416 OFFCURVE",
"220 381 OFFCURVE",
"178 310 CURVE SMOOTH",
"138 242 OFFCURVE",
"128 208 OFFCURVE",
"128 140 CURVE SMOOTH",
"128 60 OFFCURVE",
"119 34 OFFCURVE",
"104 20 CURVE",
"110 4 LINE",
"178 4 OFFCURVE",
"191 -10 OFFCURVE",
"244 -10 CURVE SMOOTH"
);
}
);
width = 466;
}
);
note = uni0E03;
rightMetricsKey = "boBaimai-thai";
unicode = 0E03;
},
{
glyphname = "choChang-thai";
layers = (
{
anchors = (
{
name = bottom;
position = "{378, 0}";
},
{
name = top;
position = "{398, 510}";
}
);
layerId = "45309390-7B6A-4DA2-8B07-FED7B2950A7C";
paths = (
{
closed = 1;
nodes = (
"334 -10 OFFCURVE",
"388 47 OFFCURVE",
"388 136 CURVE SMOOTH",
"388 340 LINE SMOOTH",
"388 376 OFFCURVE",
"372 401 OFFCURVE",
"332 425 CURVE SMOOTH",
"312 437 OFFCURVE",
"290 447 OFFCURVE",
"261 456 CURVE",
"271 443 LINE",
"423 516 OFFCURVE",
"460 546 OFFCURVE",
"460 576 CURVE SMOOTH",
"460 585 OFFCURVE",
"456 592 OFFCURVE",
"448 596 CURVE",
"386 532 OFFCURVE",
"352 510 OFFCURVE",
"224 454 CURVE",
"234 431 LINE",
"264 425 OFFCURVE",
"285 415 OFFCURVE",
"309 402 CURVE SMOOTH",
"342 384 OFFCURVE",
"351 366 OFFCURVE",
"351 347 CURVE SMOOTH",
"351 136 LINE SMOOTH",
"351 66 OFFCURVE",
"311 21 OFFCURVE",
"246 21 CURVE SMOOTH",
"205 21 OFFCURVE",
"177 33 OFFCURVE",
"131 33 CURVE",
"143 15 LINE",
"161 45 OFFCURVE",
"165 70 OFFCURVE",
"165 140 CURVE SMOOTH",
"165 204 OFFCURVE",
"172 236 OFFCURVE",
"206 300 CURVE SMOOTH",
"238 361 OFFCURVE",
"248 393 OFFCURVE",
"248 434 CURVE SMOOTH",
"248 517 OFFCURVE",
"202 560 OFFCURVE",
"130 560 CURVE SMOOTH",
"55 560 OFFCURVE",
"8 513 OFFCURVE",
"8 439 CURVE SMOOTH",
"8 379 OFFCURVE",
"39 345 OFFCURVE",
"92 345 CURVE SMOOTH",
"140 345 OFFCURVE",
"172 372 OFFCURVE",
"172 419 CURVE SMOOTH",
"172 459 OFFCURVE",
"148 484 OFFCURVE",
"113 484 CURVE SMOOTH",
"90 484 OFFCURVE",
"78 473 OFFCURVE",
"84 455 CURVE",
"116 460 OFFCURVE",
"136 445 OFFCURVE",
"136 419 CURVE SMOOTH",
"136 396 OFFCURVE",
"120 375 OFFCURVE",
"92 375 CURVE SMOOTH",
"61 375 OFFCURVE",
"45 400 OFFCURVE",
"45 439 CURVE SMOOTH",
"45 494 OFFCURVE",
"78 529 OFFCURVE",
"130 529 CURVE SMOOTH",
"179 529 OFFCURVE",
"210 498 OFFCURVE",
"210 434 CURVE SMOOTH",
"210 401 OFFCURVE",
"202 371 OFFCURVE",
"171 310 CURVE SMOOTH",
"137 245 OFFCURVE",
"128 211 OFFCURVE",
"128 140 CURVE SMOOTH",
"128 60 OFFCURVE",
"119 34 OFFCURVE",
"104 20 CURVE",
"110 4 LINE",
"178 4 OFFCURVE",
"191 -10 OFFCURVE",
"246 -10 CURVE SMOOTH"
);
}
);
width = 470;
}
);
leftMetricsKey = "khoKhai-thai";
note = uni0E0A;
rightMetricsKey = "choChang-thai";
unicode = 0E0A;
},
{
glyphname = "soSo-thai";
layers = (
{
anchors = (
{
name = bottom;
position = "{382, 0}";
},
{
name = top;
position = "{402, 510}";
}
);
layerId = "45309390-7B6A-4DA2-8B07-FED7B2950A7C";
paths = (
{
closed = 1;
nodes = (
"338 -10 OFFCURVE",
"392 47 OFFCURVE",
"392 136 CURVE SMOOTH",
"392 340 LINE SMOOTH",
"392 376 OFFCURVE",
"376 401 OFFCURVE",
"336 425 CURVE SMOOTH",
"316 437 OFFCURVE",
"290 447 OFFCURVE",
"265 456 CURVE",
"275 443 LINE",
"427 516 OFFCURVE",
"464 546 OFFCURVE",
"464 576 CURVE SMOOTH",
"464 585 OFFCURVE",
"460 592 OFFCURVE",
"452 596 CURVE",
"390 532 OFFCURVE",
"358 511 OFFCURVE",
"242 461 CURVE",
"238 431 LINE",
"264 425 OFFCURVE",
"285 415 OFFCURVE",
"313 401 CURVE SMOOTH",
"346 384 OFFCURVE",
"355 366 OFFCURVE",
"355 347 CURVE SMOOTH",
"355 136 LINE SMOOTH",
"355 66 OFFCURVE",
"315 21 OFFCURVE",
"250 21 CURVE SMOOTH",
"205 21 OFFCURVE",
"177 33 OFFCURVE",
"131 33 CURVE",
"143 15 LINE",
"161 45 OFFCURVE",
"165 70 OFFCURVE",
"165 140 CURVE SMOOTH",
"165 204 OFFCURVE",
"175 236 OFFCURVE",
"213 300 CURVE SMOOTH",
"257 374 OFFCURVE",
"268 411 OFFCURVE",
"268 455 CURVE SMOOTH",
"268 524 OFFCURVE",
"240 556 OFFCURVE",
"191 556 CURVE SMOOTH",
"168 556 OFFCURVE",
"148 544 OFFCURVE",
"136 522 CURVE",
"124 544 OFFCURVE",
"104 556 OFFCURVE",
"80 556 CURVE SMOOTH",
"34 556 OFFCURVE",
"8 518 OFFCURVE",
"8 450 CURVE SMOOTH",
"8 378 OFFCURVE",
"38 343 OFFCURVE",
"99 343 CURVE SMOOTH",
"150 343 OFFCURVE",
"179 367 OFFCURVE",
"179 409 CURVE SMOOTH",
"179 445 OFFCURVE",
"156 466 OFFCURVE",
"120 466 CURVE SMOOTH",
"96 466 OFFCURVE",
"85 455 OFFCURVE",
"91 437 CURVE",
"123 442 OFFCURVE",
"143 432 OFFCURVE",
"143 409 CURVE SMOOTH",
"143 386 OFFCURVE",
"127 372 OFFCURVE",
"99 372 CURVE SMOOTH",
"63 372 OFFCURVE",
"45 398 OFFCURVE",
"45 450 CURVE SMOOTH",
"45 498 OFFCURVE",
"59 525 OFFCURVE",
"87 525 CURVE SMOOTH",
"109 525 OFFCURVE",
"124 513 OFFCURVE",
"130 489 CURVE",
"142 489 LINE",
"148 513 OFFCURVE",
"163 525 OFFCURVE",
"185 525 CURVE SMOOTH",
"214 525 OFFCURVE",
"230 504 OFFCURVE",
"230 455 CURVE SMOOTH",
"230 416 OFFCURVE",
"220 381 OFFCURVE",
"178 310 CURVE SMOOTH",
"138 242 OFFCURVE",
"128 208 OFFCURVE",
"128 140 CURVE SMOOTH",
"128 60 OFFCURVE",
"119 34 OFFCURVE",
"104 20 CURVE",
"110 4 LINE",
"178 4 OFFCURVE",
"191 -10 OFFCURVE",
"250 -10 CURVE SMOOTH"
);
}
);
width = 474;
}
);
leftMetricsKey = "khoKhuat-thai";
note = uni0E0B;
unicode = 0E0B;
},
{
glyphname = "khoKhwai-thai";
layers = (
{
anchors = (
{
name = bottom;
position = "{464, 0}";
},
{
name = top;
position = "{454, 510}";
}
);
layerId = "45309390-7B6A-4DA2-8B07-FED7B2950A7C";
paths = (
{
closed = 1;
nodes = (
"135 -4 OFFCURVE",
"143 9 OFFCURVE",
"143 31 CURVE SMOOTH",
"143 87 LINE SMOOTH",
"143 200 OFFCURVE",
"160 347 OFFCURVE",
"197 397 CURVE",
"178 397 LINE",
"178 346 OFFCURVE",
"214 313 OFFCURVE",
"264 313 CURVE SMOOTH",
"314 313 OFFCURVE",
"350 347 OFFCURVE",
"350 393 CURVE SMOOTH",
"350 439 OFFCURVE",
"312 473 OFFCURVE",
"262 473 CURVE SMOOTH",
"138 473 OFFCURVE",
"117 262 OFFCURVE",
"117 127 CURVE",
"133 127 LINE",
"133 162 OFFCURVE",
"89 263 OFFCURVE",
"89 354 CURVE SMOOTH",
"89 460 OFFCURVE",
"148 529 OFFCURVE",
"241 529 CURVE SMOOTH",
"268 529 OFFCURVE",
"291 523 OFFCURVE",
"334 501 CURVE SMOOTH",
"387 474 LINE SMOOTH",
"419 458 OFFCURVE",
"436 450 OFFCURVE",
"456 449 CURVE",
"450 465 LINE",
"430 446 OFFCURVE",
"427 425 OFFCURVE",
"427 393 CURVE SMOOTH",
"427 0 LINE",
"432 -3 OFFCURVE",
"436 -4 OFFCURVE",
"440 -4 CURVE SMOOTH",
"457 -4 OFFCURVE",
"464 9 OFFCURVE",
"464 31 CURVE SMOOTH",
"464 395 LINE SMOOTH",
"464 435 OFFCURVE",
"467 451 OFFCURVE",
"478 464 CURVE",
"472 476 LINE",
"454 478 OFFCURVE",
"434 488 OFFCURVE",
"408 502 CURVE SMOOTH",
"350 532 LINE SMOOTH",
"312 552 OFFCURVE",
"279 560 OFFCURVE",
"241 560 CURVE SMOOTH",
"121 560 OFFCURVE",
"52 479 OFFCURVE",
"52 354 CURVE SMOOTH",
"52 249 OFFCURVE",
"101 180 OFFCURVE",
"101 76 CURVE SMOOTH",
"101 0 LINE",
"107 -3 OFFCURVE",
"111 -4 OFFCURVE",
"116 -4 CURVE SMOOTH"
);
},
{
closed = 1;
nodes = (
"235 343 OFFCURVE",
"214 364 OFFCURVE",
"214 393 CURVE SMOOTH",
"214 422 OFFCURVE",
"235 443 OFFCURVE",
"264 443 CURVE SMOOTH",
"293 443 OFFCURVE",
"314 422 OFFCURVE",
"314 393 CURVE SMOOTH",
"314 364 OFFCURVE",
"293 343 OFFCURVE",
"264 343 CURVE SMOOTH"
);
}
);
width = 552;
}
);
note = uni0E04;
rightMetricsKey = "koKai-thai";
unicode = 0E04;
},
{
glyphname = "khoKhon-thai";
layers = (
{
anchors = (
{
name = bottom;
position = "{480, 0}";
},
{
name = top;
position = "{470, 510}";
}
);
layerId = "45309390-7B6A-4DA2-8B07-FED7B2950A7C";
paths = (
{
closed = 1;
nodes = (
"135 -4 OFFCURVE",
"143 9 OFFCURVE",
"143 31 CURVE SMOOTH",
"143 87 LINE SMOOTH",
"143 200 OFFCURVE",
"166 331 OFFCURVE",
"210 359 CURVE",
"191 359 LINE",
"191 308 OFFCURVE",
"227 271 OFFCURVE",
"277 271 CURVE SMOOTH",
"327 271 OFFCURVE",
"363 305 OFFCURVE",
"363 351 CURVE SMOOTH",
"363 397 OFFCURVE",
"328 431 OFFCURVE",
"275 431 CURVE SMOOTH",
"161 431 OFFCURVE",
"117 262 OFFCURVE",
"117 127 CURVE",
"133 127 LINE",
"133 162 OFFCURVE",
"89 263 OFFCURVE",
"89 354 CURVE SMOOTH",
"89 470 OFFCURVE",
"131 525 OFFCURVE",
"179 525 CURVE SMOOTH",
"212 525 OFFCURVE",
"238 494 OFFCURVE",
"246 446 CURVE",
"268 446 LINE",
"276 494 OFFCURVE",
"300 525 OFFCURVE",
"329 525 CURVE SMOOTH",
"343 525 OFFCURVE",
"358 519 OFFCURVE",
"387 497 CURVE SMOOTH",
"425 468 OFFCURVE",
"445 457 OFFCURVE",
"471 455 CURVE",
"466 465 LINE",
"446 446 OFFCURVE",
"443 425 OFFCURVE",
"443 393 CURVE SMOOTH",
"443 0 LINE",
"448 -3 OFFCURVE",
"452 -4 OFFCURVE",
"456 -4 CURVE SMOOTH",
"473 -4 OFFCURVE",
"480 9 OFFCURVE",
"480 31 CURVE SMOOTH",
"480 395 LINE SMOOTH",
"480 435 OFFCURVE",
"483 451 OFFCURVE",
"494 464 CURVE",
"488 476 LINE",
"470 478 OFFCURVE",
"449 489 OFFCURVE",
"409 519 CURVE SMOOTH",
"367 549 OFFCURVE",
"348 556 OFFCURVE",
"329 556 CURVE SMOOTH",
"294 556 OFFCURVE",
"266 532 OFFCURVE",
"257 493 CURVE",
"250 532 OFFCURVE",
"220 556 OFFCURVE",
"179 556 CURVE SMOOTH",
"105 556 OFFCURVE",
"52 478 OFFCURVE",
"52 354 CURVE SMOOTH",
"52 249 OFFCURVE",
"101 180 OFFCURVE",
"101 76 CURVE SMOOTH",
"101 0 LINE",
"107 -3 OFFCURVE",
"111 -4 OFFCURVE",
"116 -4 CURVE SMOOTH"
);
},
{
closed = 1;
nodes = (
"248 301 OFFCURVE",
"227 322 OFFCURVE",
"227 351 CURVE SMOOTH",
"227 380 OFFCURVE",
"248 401 OFFCURVE",
"277 401 CURVE SMOOTH",
"306 401 OFFCURVE",
"327 380 OFFCURVE",
"327 351 CURVE SMOOTH",
"327 322 OFFCURVE",
"306 301 OFFCURVE",
"277 301 CURVE SMOOTH"
);
}
);
width = 568;
}
);
leftMetricsKey = "khoKhwai-thai";
note = uni0E05;
rightMetricsKey = "koKai-thai";
unicode = 0E05;
},
{
glyphname = "soSala-thai";
layers = (
{
anchors = (
{
name = bottom;
position = "{464, 0}";
},
{
name = top;
position = "{464, 510}";
}
);
layerId = "45309390-7B6A-4DA2-8B07-FED7B2950A7C";
paths = (
{
closed = 1;
nodes = (
"135 -4 OFFCURVE",
"143 9 OFFCURVE",
"143 31 CURVE SMOOTH",
"143 87 LINE SMOOTH",
"143 200 OFFCURVE",
"160 347 OFFCURVE",
"197 397 CURVE",
"178 397 LINE",
"178 346 OFFCURVE",
"214 313 OFFCURVE",
"264 313 CURVE SMOOTH",
"314 313 OFFCURVE",
"350 347 OFFCURVE",
"350 393 CURVE SMOOTH",
"350 439 OFFCURVE",
"312 473 OFFCURVE",
"262 473 CURVE SMOOTH",
"138 473 OFFCURVE",
"117 262 OFFCURVE",
"117 127 CURVE",
"133 127 LINE",
"133 162 OFFCURVE",
"89 263 OFFCURVE",
"89 354 CURVE SMOOTH",
"89 460 OFFCURVE",
"148 529 OFFCURVE",
"241 529 CURVE SMOOTH",
"268 529 OFFCURVE",
"291 523 OFFCURVE",
"334 501 CURVE SMOOTH",
"387 474 LINE SMOOTH",
"419 458 OFFCURVE",
"436 450 OFFCURVE",
"456 449 CURVE",
"450 465 LINE",
"430 446 OFFCURVE",
"427 425 OFFCURVE",
"427 393 CURVE SMOOTH",
"427 0 LINE",
"432 -3 OFFCURVE",
"436 -4 OFFCURVE",
"440 -4 CURVE SMOOTH",
"457 -4 OFFCURVE",
"464 9 OFFCURVE",
"464 31 CURVE SMOOTH",
"464 395 LINE SMOOTH",
"464 435 OFFCURVE",
"467 451 OFFCURVE",
"478 464 CURVE",
"472 476 LINE",
"454 478 OFFCURVE",
"434 488 OFFCURVE",
"408 502 CURVE SMOOTH",
"350 532 LINE SMOOTH",
"312 552 OFFCURVE",
"279 560 OFFCURVE",
"241 560 CURVE SMOOTH",
"121 560 OFFCURVE",
"52 479 OFFCURVE",
"52 354 CURVE SMOOTH",
"52 249 OFFCURVE",
"101 180 OFFCURVE",
"101 76 CURVE SMOOTH",
"101 0 LINE",
"107 -3 OFFCURVE",
"111 -4 OFFCURVE",
"116 -4 CURVE SMOOTH"
);
},
{
closed = 1;
nodes = (
"235 343 OFFCURVE",
"214 364 OFFCURVE",
"214 393 CURVE SMOOTH",
"214 422 OFFCURVE",
"235 443 OFFCURVE",
"264 443 CURVE SMOOTH",
"293 443 OFFCURVE",
"314 422 OFFCURVE",
"314 393 CURVE SMOOTH",
"314 364 OFFCURVE",
"293 343 OFFCURVE",
"264 343 CURVE SMOOTH"
);
},
{
closed = 1;
nodes = (
"500 551 OFFCURVE",
"528 570 OFFCURVE",
"528 598 CURVE SMOOTH",
"528 615 OFFCURVE",
"519 620 OFFCURVE",
"508 620 CURVE",
"489 598 OFFCURVE",
"463 571 OFFCURVE",
"342 518 CURVE",
"369 498 LINE"
);
}
);
width = 552;
}
);
leftMetricsKey = "khoKhwai-thai";
note = uni0E28;
unicode = 0E28;
},
{
glyphname = "doDek-thai";
layers = (
{
anchors = (
{
name = bottom;
position = "{464, 0}";
},
{
name = top;
position = "{454, 510}";
}
);
layerId = "45309390-7B6A-4DA2-8B07-FED7B2950A7C";
paths = (
{
closed = 1;
nodes = (
"237 -6 OFFCURVE",
"343 216 OFFCURVE",
"343 360 CURVE SMOOTH",
"343 422 OFFCURVE",
"309 462 OFFCURVE",
"255 462 CURVE SMOOTH",
"206 462 OFFCURVE",
"170 428 OFFCURVE",
"170 382 CURVE SMOOTH",
"170 336 OFFCURVE",
"206 302 OFFCURVE",
"255 302 CURVE SMOOTH",
"278 302 OFFCURVE",
"302 309 OFFCURVE",
"323 331 CURVE",
"305 331 LINE",
"305 251 OFFCURVE",
"233 22 OFFCURVE",
"110 22 CURVE",
"124 13 LINE",
"127 40 OFFCURVE",
"128 64 OFFCURVE",
"128 86 CURVE SMOOTH",
"128 181 OFFCURVE",
"89 253 OFFCURVE",
"89 354 CURVE SMOOTH",
"89 460 OFFCURVE",
"148 529 OFFCURVE",
"241 529 CURVE SMOOTH",
"268 529 OFFCURVE",
"291 523 OFFCURVE",
"334 501 CURVE SMOOTH",
"387 474 LINE SMOOTH",
"419 458 OFFCURVE",
"436 450 OFFCURVE",
"456 449 CURVE",
"450 465 LINE",
"430 446 OFFCURVE",
"427 425 OFFCURVE",
"427 393 CURVE SMOOTH",
"427 0 LINE",
"432 -3 OFFCURVE",
"436 -4 OFFCURVE",
"440 -4 CURVE SMOOTH",
"457 -4 OFFCURVE",
"464 9 OFFCURVE",
"464 31 CURVE SMOOTH",
"464 395 LINE SMOOTH",
"464 435 OFFCURVE",
"467 451 OFFCURVE",
"478 464 CURVE",
"472 476 LINE",
"454 478 OFFCURVE",
"434 488 OFFCURVE",
"408 502 CURVE SMOOTH",
"350 532 LINE SMOOTH",
"312 552 OFFCURVE",
"279 560 OFFCURVE",
"241 560 CURVE SMOOTH",
"121 560 OFFCURVE",
"52 479 OFFCURVE",
"52 354 CURVE SMOOTH",
"52 249 OFFCURVE",
"91 190 OFFCURVE",
"91 86 CURVE SMOOTH",
"91 -2 LINE",
"103 -2 OFFCURVE",
"118 -6 OFFCURVE",
"131 -6 CURVE SMOOTH"
);
},
{
closed = 1;
nodes = (
"227 332 OFFCURVE",
"206 353 OFFCURVE",
"206 382 CURVE SMOOTH",
"206 411 OFFCURVE",
"227 432 OFFCURVE",
"255 432 CURVE SMOOTH",
"283 432 OFFCURVE",
"304 411 OFFCURVE",
"304 382 CURVE SMOOTH",
"304 353 OFFCURVE",
"283 332 OFFCURVE",
"255 332 CURVE SMOOTH"
);
}
);
width = 552;
}
);
leftMetricsKey = "khoKhwai-thai";
note = uni0E14;
rightMetricsKey = "koKai-thai";
unicode = 0E14;
},
{
glyphname = "toTao-thai";
layers = (
{
anchors = (
{
name = bottom;
position = "{480, 0}";
},
{
name = top;
position = "{470, 510}";
}
);
layerId = "45309390-7B6A-4DA2-8B07-FED7B2950A7C";
paths = (
{
closed = 1;
nodes = (
"237 -6 OFFCURVE",
"350 182 OFFCURVE",
"350 326 CURVE SMOOTH",
"350 388 OFFCURVE",
"316 428 OFFCURVE",
"262 428 CURVE SMOOTH",
"213 428 OFFCURVE",
"177 394 OFFCURVE",
"177 348 CURVE SMOOTH",
"177 302 OFFCURVE",
"213 268 OFFCURVE",
"262 268 CURVE SMOOTH",
"285 268 OFFCURVE",
"309 275 OFFCURVE",
"330 297 CURVE",
"312 297 LINE",
"312 217 OFFCURVE",
"233 22 OFFCURVE",
"110 22 CURVE",
"124 13 LINE",
"127 40 OFFCURVE",
"128 64 OFFCURVE",
"128 86 CURVE SMOOTH",
"128 181 OFFCURVE",
"89 253 OFFCURVE",
"89 354 CURVE SMOOTH",
"89 470 OFFCURVE",
"131 525 OFFCURVE",
"179 525 CURVE SMOOTH",
"212 525 OFFCURVE",
"238 494 OFFCURVE",
"246 446 CURVE",
"268 446 LINE",
"276 494 OFFCURVE",
"300 525 OFFCURVE",
"329 525 CURVE SMOOTH",
"343 525 OFFCURVE",
"358 519 OFFCURVE",
"387 497 CURVE SMOOTH",
"425 468 OFFCURVE",
"445 457 OFFCURVE",
"471 455 CURVE",
"466 465 LINE",
"446 446 OFFCURVE",
"443 425 OFFCURVE",
"443 393 CURVE SMOOTH",
"443 0 LINE",
"448 -3 OFFCURVE",
"452 -4 OFFCURVE",
"456 -4 CURVE SMOOTH",
"473 -4 OFFCURVE",
"480 9 OFFCURVE",
"480 31 CURVE SMOOTH",
"480 395 LINE SMOOTH",
"480 435 OFFCURVE",
"483 451 OFFCURVE",
"494 464 CURVE",
"488 476 LINE",
"470 478 OFFCURVE",
"449 489 OFFCURVE",
"409 519 CURVE SMOOTH",
"367 549 OFFCURVE",
"348 556 OFFCURVE",
"329 556 CURVE SMOOTH",
"294 556 OFFCURVE",
"266 532 OFFCURVE",
"257 493 CURVE",
"250 532 OFFCURVE",
"220 556 OFFCURVE",
"179 556 CURVE SMOOTH",
"105 556 OFFCURVE",
"52 478 OFFCURVE",
"52 354 CURVE SMOOTH",
"52 249 OFFCURVE",
"91 190 OFFCURVE",
"91 86 CURVE SMOOTH",
"91 -2 LINE",
"103 -2 OFFCURVE",
"118 -6 OFFCURVE",
"131 -6 CURVE SMOOTH"
);
},
{
closed = 1;
nodes = (
"234 298 OFFCURVE",
"213 319 OFFCURVE",
"213 348 CURVE SMOOTH",
"213 377 OFFCURVE",
"234 398 OFFCURVE",
"262 398 CURVE SMOOTH",
"290 398 OFFCURVE",
"311 377 OFFCURVE",
"311 348 CURVE SMOOTH",
"311 319 OFFCURVE",
"290 298 OFFCURVE",
"262 298 CURVE SMOOTH"
);
}
);
width = 568;
}
);
leftMetricsKey = "khoKhwai-thai";
note = uni0E15;
rightMetricsKey = "koKai-thai";
unicode = 0E15;
},
{
glyphname = "thoThahan-thai";
layers = (
{
anchors = (
{
name = bottom;
position = "{479, 0}";
},
{
name = top;
position = "{469, 510}";
}
);
layerId = "45309390-7B6A-4DA2-8B07-FED7B2950A7C";
paths = (
{
closed = 1;
nodes = (
"173 -6 OFFCURVE",
"194 28 OFFCURVE",
"229 162 CURVE SMOOTH",
"293 405 LINE SMOOTH",
"316 493 OFFCURVE",
"339 525 OFFCURVE",
"381 525 CURVE SMOOTH",
"417 525 OFFCURVE",
"442 496 OFFCURVE",
"442 450 CURVE SMOOTH",
"442 0 LINE",
"447 -3 OFFCURVE",
"451 -4 OFFCURVE",
"455 -4 CURVE SMOOTH",
"472 -4 OFFCURVE",
"479 9 OFFCURVE",
"479 31 CURVE SMOOTH",
"479 450 LINE SMOOTH",
"479 515 OFFCURVE",
"439 556 OFFCURVE",
"381 556 CURVE SMOOTH",
"317 556 OFFCURVE",
"286 519 OFFCURVE",
"258 414 CURVE SMOOTH",
"196 177 LINE SMOOTH",
"172 85 OFFCURVE",
"154 46 OFFCURVE",
"134 31 CURVE",
"134 11 LINE",
"152 41 OFFCURVE",
"156 66 OFFCURVE",
"156 116 CURVE SMOOTH",
"156 335 LINE SMOOTH",
"156 374 OFFCURVE",
"160 396 OFFCURVE",
"172 422 CURVE SMOOTH",
"184 448 OFFCURVE",
"188 462 OFFCURVE",
"188 478 CURVE SMOOTH",
"188 520 OFFCURVE",
"154 556 OFFCURVE",
"103 556 CURVE SMOOTH",
"52 556 OFFCURVE",
"18 524 OFFCURVE",
"18 478 CURVE SMOOTH",
"18 432 OFFCURVE",
"52 400 OFFCURVE",
"103 400 CURVE SMOOTH",
"130 400 OFFCURVE",
"143 408 OFFCURVE",
"153 421 CURVE",
"136 421 LINE",
"121 397 OFFCURVE",
"119 356 OFFCURVE",
"119 335 CURVE SMOOTH",
"119 116 LINE SMOOTH",
"119 56 OFFCURVE",
"110 28 OFFCURVE",
"95 14 CURVE",
"101 -2 LINE",
"113 -2 OFFCURVE",
"123 -6 OFFCURVE",
"138 -6 CURVE SMOOTH"
);
},
{
closed = 1;
nodes = (
"73 429 OFFCURVE",
"54 449 OFFCURVE",
"54 478 CURVE SMOOTH",
"54 507 OFFCURVE",
"73 526 OFFCURVE",
"103 526 CURVE SMOOTH",
"133 526 OFFCURVE",
"151 507 OFFCURVE",
"151 478 CURVE SMOOTH",
"151 449 OFFCURVE",
"133 429 OFFCURVE",
"103 429 CURVE SMOOTH"
);
}
);
width = 563;
}
);
note = uni0E17;
unicode = 0E17;
},
{
glyphname = "thoNangmontho-thai";
layers = (
{
anchors = (
{
name = bottom;
position = "{506, 0}";
},
{
name = top;
position = "{496, 510}";
}
);
layerId = "45309390-7B6A-4DA2-8B07-FED7B2950A7C";
paths = (
{
closed = 1;
nodes = (
"200 -6 OFFCURVE",
"212 29 OFFCURVE",
"256 162 CURVE SMOOTH",
"336 405 LINE SMOOTH",
"364 489 OFFCURVE",
"381 525 OFFCURVE",
"420 525 CURVE SMOOTH",
"454 525 OFFCURVE",
"469 497 OFFCURVE",
"469 450 CURVE SMOOTH",
"469 0 LINE",
"474 -3 OFFCURVE",
"478 -4 OFFCURVE",
"482 -4 CURVE SMOOTH",
"499 -4 OFFCURVE",
"506 9 OFFCURVE",
"506 31 CURVE SMOOTH",
"506 450 LINE SMOOTH",
"506 515 OFFCURVE",
"477 556 OFFCURVE",
"419 556 CURVE SMOOTH",
"358 556 OFFCURVE",
"333 510 OFFCURVE",
"301 414 CURVE SMOOTH",
"223 177 LINE SMOOTH",
"193 87 OFFCURVE",
"181 46 OFFCURVE",
"161 31 CURVE",
"161 11 LINE",
"179 41 OFFCURVE",
"183 66 OFFCURVE",
"183 116 CURVE SMOOTH",
"183 140 LINE SMOOTH",
"183 216 OFFCURVE",
"190 243 OFFCURVE",
"219 318 CURVE SMOOTH",
"252 403 OFFCURVE",
"262 430 OFFCURVE",
"262 463 CURVE SMOOTH",
"262 518 OFFCURVE",
"234 556 OFFCURVE",
"190 556 CURVE SMOOTH",
"166 556 OFFCURVE",
"150 544 OFFCURVE",
"138 522 CURVE",
"126 544 OFFCURVE",
"108 556 OFFCURVE",
"85 556 CURVE SMOOTH",
"44 556 OFFCURVE",
"18 518 OFFCURVE",
"18 453 CURVE SMOOTH",
"18 385 OFFCURVE",
"46 351 OFFCURVE",
"103 351 CURVE SMOOTH",
"149 351 OFFCURVE",
"177 374 OFFCURVE",
"177 414 CURVE SMOOTH",
"177 449 OFFCURVE",
"156 470 OFFCURVE",
"122 470 CURVE SMOOTH",
"98 470 OFFCURVE",
"83 459 OFFCURVE",
"93 441 CURVE",
"123 446 OFFCURVE",
"141 436 OFFCURVE",
"141 414 CURVE SMOOTH",
"141 393 OFFCURVE",
"126 380 OFFCURVE",
"103 380 CURVE SMOOTH",
"71 380 OFFCURVE",
"55 404 OFFCURVE",
"55 453 CURVE SMOOTH",
"55 497 OFFCURVE",
"68 525 OFFCURVE",
"94 525 CURVE SMOOTH",
"111 525 OFFCURVE",
"126 513 OFFCURVE",
"132 489 CURVE",
"144 489 LINE",
"150 513 OFFCURVE",
"165 525 OFFCURVE",
"183 525 CURVE SMOOTH",
"208 525 OFFCURVE",
"224 504 OFFCURVE",
"224 464 CURVE SMOOTH",
"224 426 OFFCURVE",
"209 389 OFFCURVE",
"184 328 CURVE SMOOTH",
"151 247 OFFCURVE",
"146 217 OFFCURVE",
"146 140 CURVE SMOOTH",
"146 116 LINE SMOOTH",
"146 56 OFFCURVE",
"137 28 OFFCURVE",
"122 14 CURVE",
"128 -2 LINE",
"139 -2 OFFCURVE",
"152 -6 OFFCURVE",
"164 -6 CURVE SMOOTH"
);
}
);
width = 590;
}
);
note = uni0E11;
rightMetricsKey = "thoThahan-thai";
unicode = 0E11;
},
{
glyphname = "noNu-thai";
layers = (
{
anchors = (
{
name = bottom;
position = "{443, 0}";
},
{
name = top;
position = "{443, 510}";
}
);
layerId = "45309390-7B6A-4DA2-8B07-FED7B2950A7C";
paths = (
{
closed = 1;
nodes = (
"150 -6 OFFCURVE",
"148 7 OFFCURVE",
"268 81 CURVE SMOOTH",
"360 138 OFFCURVE",
"402 156 OFFCURVE",
"433 156 CURVE",
"441 170 OFFCURVE",
"443 186 OFFCURVE",
"443 210 CURVE SMOOTH",
"443 550 LINE",
"438 553 OFFCURVE",
"434 554 OFFCURVE",
"430 554 CURVE SMOOTH",
"413 554 OFFCURVE",
"406 541 OFFCURVE",
"406 519 CURVE SMOOTH",
"406 167 LINE",
"419 178 LINE",
"378 178 OFFCURVE",
"338 163 OFFCURVE",
"252 111 CURVE SMOOTH",
"178 67 OFFCURVE",
"154 51 OFFCURVE",
"134 32 CURVE",
"134 11 LINE",
"152 41 OFFCURVE",
"156 66 OFFCURVE",
"156 116 CURVE SMOOTH",
"156 335 LINE SMOOTH",
"156 374 OFFCURVE",
"160 396 OFFCURVE",
"172 422 CURVE SMOOTH",
"184 448 OFFCURVE",
"188 462 OFFCURVE",
"188 478 CURVE SMOOTH",
"188 520 OFFCURVE",
"154 556 OFFCURVE",
"103 556 CURVE SMOOTH",
"52 556 OFFCURVE",
"18 524 OFFCURVE",
"18 478 CURVE SMOOTH",
"18 432 OFFCURVE",
"52 400 OFFCURVE",
"103 400 CURVE SMOOTH",
"130 400 OFFCURVE",
"143 408 OFFCURVE",
"153 421 CURVE",
"136 421 LINE",
"121 397 OFFCURVE",
"119 356 OFFCURVE",
"119 335 CURVE SMOOTH",
"119 116 LINE SMOOTH",
"119 56 OFFCURVE",
"110 28 OFFCURVE",
"95 14 CURVE",
"101 -2 LINE",
"110 -2 OFFCURVE",
"118 -6 OFFCURVE",
"128 -6 CURVE SMOOTH"
);
},
{
closed = 1;
nodes = (
"472 -6 OFFCURVE",
"513 32 OFFCURVE",
"513 84 CURVE SMOOTH",
"513 136 OFFCURVE",
"472 174 OFFCURVE",
"416 174 CURVE SMOOTH",
"360 174 OFFCURVE",
"319 136 OFFCURVE",
"319 84 CURVE SMOOTH",
"319 32 OFFCURVE",
"360 -6 OFFCURVE",
"416 -6 CURVE SMOOTH"
);
},
{
closed = 1;
nodes = (
"381 24 OFFCURVE",
"355 49 OFFCURVE",
"355 84 CURVE SMOOTH",
"355 119 OFFCURVE",
"381 144 OFFCURVE",
"416 144 CURVE SMOOTH",
"451 144 OFFCURVE",
"477 119 OFFCURVE",
"477 84 CURVE SMOOTH",
"477 49 OFFCURVE",
"451 24 OFFCURVE",
"416 24 CURVE SMOOTH"
);
},
{
closed = 1;
nodes = (
"73 429 OFFCURVE",
"54 449 OFFCURVE",
"54 478 CURVE SMOOTH",
"54 507 OFFCURVE",
"73 526 OFFCURVE",
"103 526 CURVE SMOOTH",
"133 526 OFFCURVE",
"151 507 OFFCURVE",
"151 478 CURVE SMOOTH",
"151 449 OFFCURVE",
"133 429 OFFCURVE",
"103 429 CURVE SMOOTH"
);
}
);
width = 543;
}
);
note = uni0E19;
unicode = 0E19;
},
{
glyphname = "moMa-thai";
layers = (
{
anchors = (
{
name = bottom;
position = "{447, 0}";
},
{
name = top;
position = "{447, 510}";
}
);
layerId = "45309390-7B6A-4DA2-8B07-FED7B2950A7C";
paths = (
{
closed = 1;
nodes = (
"436 0 OFFCURVE",
"447 16 OFFCURVE",
"447 44 CURVE SMOOTH",
"447 550 LINE",
"442 553 OFFCURVE",
"438 554 OFFCURVE",
"434 554 CURVE SMOOTH",
"417 554 OFFCURVE",
"410 541 OFFCURVE",
"410 519 CURVE SMOOTH",
"410 96 LINE SMOOTH",
"410 64 OFFCURVE",
"413 46 OFFCURVE",
"421 30 CURVE",
"434 30 LINE",
"414 51 OFFCURVE",
"398 63 OFFCURVE",
"317 111 CURVE SMOOTH",
"242 156 OFFCURVE",
"201 176 OFFCURVE",
"167 176 CURVE",
"180 167 LINE",
"180 335 LINE SMOOTH",
"180 374 OFFCURVE",
"184 396 OFFCURVE",
"196 422 CURVE SMOOTH",
"208 448 OFFCURVE",
"212 462 OFFCURVE",
"212 478 CURVE SMOOTH",
"212 520 OFFCURVE",
"178 556 OFFCURVE",
"127 556 CURVE SMOOTH",
"76 556 OFFCURVE",
"42 524 OFFCURVE",
"42 478 CURVE SMOOTH",
"42 432 OFFCURVE",
"76 400 OFFCURVE",
"127 400 CURVE SMOOTH",
"154 400 OFFCURVE",
"167 408 OFFCURVE",
"177 421 CURVE",
"160 421 LINE",
"145 397 OFFCURVE",
"143 356 OFFCURVE",
"143 335 CURVE SMOOTH",
"143 210 LINE SMOOTH",
"143 186 OFFCURVE",
"145 170 OFFCURVE",
"153 156 CURVE",
"178 156 OFFCURVE",
"219 134 OFFCURVE",
"301 83 CURVE SMOOTH",
"372 39 OFFCURVE",
"391 22 OFFCURVE",
"415 0 CURVE"
);
},
{
closed = 1;
nodes = (
"187 -6 OFFCURVE",
"228 32 OFFCURVE",
"228 84 CURVE SMOOTH",
"228 136 OFFCURVE",
"187 174 OFFCURVE",
"131 174 CURVE SMOOTH",
"75 174 OFFCURVE",
"34 136 OFFCURVE",
"34 84 CURVE SMOOTH",
"34 32 OFFCURVE",
"75 -6 OFFCURVE",
"131 -6 CURVE SMOOTH"
);
},
{
closed = 1;
nodes = (
"96 24 OFFCURVE",
"70 49 OFFCURVE",
"70 84 CURVE SMOOTH",
"70 119 OFFCURVE",
"96 144 OFFCURVE",
"131 144 CURVE SMOOTH",
"166 144 OFFCURVE",
"192 119 OFFCURVE",
"192 84 CURVE SMOOTH",
"192 49 OFFCURVE",
"166 24 OFFCURVE",
"131 24 CURVE SMOOTH"
);
},
{
closed = 1;
nodes = (
"97 429 OFFCURVE",
"78 449 OFFCURVE",
"78 478 CURVE SMOOTH",
"78 507 OFFCURVE",
"97 526 OFFCURVE",
"127 526 CURVE SMOOTH",
"157 526 OFFCURVE",
"175 507 OFFCURVE",
"175 478 CURVE SMOOTH",
"175 449 OFFCURVE",
"157 429 OFFCURVE",
"127 429 CURVE SMOOTH"
);
}
);
width = 535;
}
);
note = uni0E21;
unicode = 0E21;
},
{
glyphname = "choChoe-thai";
layers = (
{
anchors = (
{
name = bottom;
position = "{697, 0}";
},
{
name = top;
position = "{697, 510}";
}
);
layerId = "45309390-7B6A-4DA2-8B07-FED7B2950A7C";
paths = (
{
closed = 1;
nodes = (
"686 0 OFFCURVE",
"697 16 OFFCURVE",
"697 44 CURVE SMOOTH",
"697 550 LINE",
"692 553 OFFCURVE",
"688 554 OFFCURVE",
"684 554 CURVE SMOOTH",
"667 554 OFFCURVE",
"660 541 OFFCURVE",
"660 519 CURVE SMOOTH",
"660 92 LINE SMOOTH",
"660 60 OFFCURVE",
"663 42 OFFCURVE",
"671 26 CURVE",
"684 26 LINE",
"664 46 OFFCURVE",
"653 54 OFFCURVE",
"569 109 CURVE SMOOTH",
"504 151 OFFCURVE",
"467 164 OFFCURVE",
"433 164 CURVE",
"446 155 LINE",
"446 391 LINE SMOOTH",
"446 431 OFFCURVE",
"449 447 OFFCURVE",
"460 460 CURVE",
"454 472 LINE",
"436 474 OFFCURVE",
"415 481 OFFCURVE",
"390 495 CURVE SMOOTH",
"313 538 LINE SMOOTH",
"291 550 OFFCURVE",
"260 560 OFFCURVE",
"224 560 CURVE SMOOTH",
"133 560 OFFCURVE",
"63 497 OFFCURVE",
"26 413 CURVE",
"26 409 LINE",
"76 393 OFFCURVE",
"106 377 OFFCURVE",
"133 337 CURVE",
"161 355 LINE",
"137 397 OFFCURVE",
"98 422 OFFCURVE",
"55 431 CURVE",
"62 413 LINE",
"92 478 OFFCURVE",
"149 529 OFFCURVE",
"224 529 CURVE SMOOTH",
"252 529 OFFCURVE",
"279 522 OFFCURVE",
"302 509 CURVE SMOOTH",
"369 471 LINE SMOOTH",
"399 454 OFFCURVE",
"418 448 OFFCURVE",
"438 447 CURVE",
"432 467 LINE",
"412 448 OFFCURVE",
"409 427 OFFCURVE",
"409 395 CURVE SMOOTH",
"409 198 LINE SMOOTH",
"409 174 OFFCURVE",
"411 158 OFFCURVE",
"419 144 CURVE",
"444 144 OFFCURVE",
"483 128 OFFCURVE",
"554 81 CURVE SMOOTH",
"625 34 OFFCURVE",
"641 22 OFFCURVE",
"665 0 CURVE"
);
},
{
closed = 1;
nodes = (
"157 24 OFFCURVE",
"139 43 OFFCURVE",
"139 70 CURVE SMOOTH",
"139 97 OFFCURVE",
"157 117 OFFCURVE",
"183 117 CURVE SMOOTH",
"209 117 OFFCURVE",
"228 97 OFFCURVE",
"228 70 CURVE SMOOTH",
"228 43 OFFCURVE",
"209 24 OFFCURVE",
"183 24 CURVE SMOOTH"
);
},
{
closed = 1;
nodes = (
"230 -6 OFFCURVE",
"264 26 OFFCURVE",
"264 70 CURVE SMOOTH",
"264 114 OFFCURVE",
"230 146 OFFCURVE",
"183 146 CURVE SMOOTH",
"151 146 OFFCURVE",
"125 131 OFFCURVE",
"116 111 CURVE",
"132 111 LINE",
"138 135 OFFCURVE",
"139 150 OFFCURVE",
"139 171 CURVE SMOOTH",
"139 245 LINE SMOOTH",
"139 321 OFFCURVE",
"154 376 OFFCURVE",
"258 376 CURVE",
"258 382 LINE",
"242 391 OFFCURVE",
"224 396 OFFCURVE",
"199 396 CURVE SMOOTH",
"140 396 OFFCURVE",
"102 337 OFFCURVE",
"102 245 CURVE SMOOTH",
"102 80 LINE SMOOTH",
"102 30 OFFCURVE",
"136 -6 OFFCURVE",
"183 -6 CURVE SMOOTH"
);
},
{
closed = 1;
nodes = (
"476 -6 OFFCURVE",
"512 28 OFFCURVE",
"512 76 CURVE SMOOTH",
"512 124 OFFCURVE",
"476 158 OFFCURVE",
"427 158 CURVE SMOOTH",
"378 158 OFFCURVE",
"342 124 OFFCURVE",
"342 76 CURVE SMOOTH",
"342 28 OFFCURVE",
"378 -6 OFFCURVE",
"427 -6 CURVE SMOOTH"
);
},
{
closed = 1;
nodes = (
"399 24 OFFCURVE",
"378 46 OFFCURVE",
"378 76 CURVE SMOOTH",
"378 106 OFFCURVE",
"399 128 OFFCURVE",
"427 128 CURVE SMOOTH",
"455 128 OFFCURVE",
"476 106 OFFCURVE",
"476 76 CURVE SMOOTH",
"476 46 OFFCURVE",
"455 24 OFFCURVE",
"427 24 CURVE SMOOTH"
);
}
);
width = 785;
}
);
leftMetricsKey = "thoThung-thai";
note = uni0E0C;
unicode = 0E0C;
},
{
glyphname = "noNen-thai";
layers = (
{
anchors = (
{
name = bottom;
position = "{717, 0}";
},
{
name = top;
position = "{717, 510}";
}
);
layerId = "45309390-7B6A-4DA2-8B07-FED7B2950A7C";
paths = (
{
closed = 1;
nodes = (
"440 -6 OFFCURVE",
"464 28 OFFCURVE",
"549 79 CURVE SMOOTH",
"639 133 OFFCURVE",
"676 142 OFFCURVE",
"707 142 CURVE",
"715 156 OFFCURVE",
"717 172 OFFCURVE",
"717 196 CURVE SMOOTH",
"717 550 LINE",
"712 553 OFFCURVE",
"708 554 OFFCURVE",
"704 554 CURVE SMOOTH",
"687 554 OFFCURVE",
"680 541 OFFCURVE",
"680 519 CURVE SMOOTH",
"680 153 LINE",
"693 164 LINE",
"652 164 OFFCURVE",
"617 158 OFFCURVE",
"533 107 CURVE SMOOTH",
"475 72 OFFCURVE",
"444 48 OFFCURVE",
"424 29 CURVE",
"424 11 LINE",
"442 41 OFFCURVE",
"446 66 OFFCURVE",
"446 116 CURVE SMOOTH",
"446 391 LINE SMOOTH",
"446 431 OFFCURVE",
"449 447 OFFCURVE",
"460 460 CURVE",
"454 472 LINE",
"436 474 OFFCURVE",
"415 481 OFFCURVE",
"390 495 CURVE SMOOTH",
"313 538 LINE SMOOTH",
"291 550 OFFCURVE",
"260 560 OFFCURVE",
"224 560 CURVE SMOOTH",
"133 560 OFFCURVE",
"63 497 OFFCURVE",
"26 413 CURVE",
"26 409 LINE",
"76 393 OFFCURVE",
"106 377 OFFCURVE",
"133 337 CURVE",
"161 355 LINE",
"137 397 OFFCURVE",
"98 422 OFFCURVE",
"55 431 CURVE",
"62 413 LINE",
"92 478 OFFCURVE",
"149 529 OFFCURVE",
"224 529 CURVE SMOOTH",
"252 529 OFFCURVE",
"279 522 OFFCURVE",
"302 509 CURVE SMOOTH",
"369 471 LINE SMOOTH",
"399 454 OFFCURVE",
"418 448 OFFCURVE",
"438 447 CURVE",
"432 467 LINE",
"412 448 OFFCURVE",
"409 427 OFFCURVE",
"409 395 CURVE SMOOTH",
"409 116 LINE SMOOTH",
"409 56 OFFCURVE",
"400 28 OFFCURVE",
"385 14 CURVE",
"391 -2 LINE",
"400 -2 OFFCURVE",
"408 -6 OFFCURVE",
"418 -6 CURVE SMOOTH"
);
},
{
closed = 1;
nodes = (
"157 24 OFFCURVE",
"139 43 OFFCURVE",
"139 70 CURVE SMOOTH",
"139 97 OFFCURVE",
"157 117 OFFCURVE",
"183 117 CURVE SMOOTH",
"209 117 OFFCURVE",
"228 97 OFFCURVE",
"228 70 CURVE SMOOTH",
"228 43 OFFCURVE",
"209 24 OFFCURVE",
"183 24 CURVE SMOOTH"
);
},
{
closed = 1;
nodes = (
"230 -6 OFFCURVE",
"264 26 OFFCURVE",
"264 70 CURVE SMOOTH",
"264 114 OFFCURVE",
"230 146 OFFCURVE",
"183 146 CURVE SMOOTH",
"151 146 OFFCURVE",
"125 131 OFFCURVE",
"116 111 CURVE",
"132 111 LINE",
"138 135 OFFCURVE",
"139 150 OFFCURVE",
"139 171 CURVE SMOOTH",
"139 245 LINE SMOOTH",
"139 321 OFFCURVE",
"154 376 OFFCURVE",
"258 376 CURVE",
"258 382 LINE",
"242 391 OFFCURVE",
"224 396 OFFCURVE",
"199 396 CURVE SMOOTH",
"140 396 OFFCURVE",
"102 337 OFFCURVE",
"102 245 CURVE SMOOTH",
"102 80 LINE SMOOTH",
"102 30 OFFCURVE",
"136 -6 OFFCURVE",
"183 -6 CURVE SMOOTH"
);
},
{
closed = 1;
nodes = (
"743 -6 OFFCURVE",
"779 28 OFFCURVE",
"779 76 CURVE SMOOTH",
"779 124 OFFCURVE",
"743 158 OFFCURVE",
"694 158 CURVE SMOOTH",
"645 158 OFFCURVE",
"609 124 OFFCURVE",
"609 76 CURVE SMOOTH",
"609 28 OFFCURVE",
"645 -6 OFFCURVE",
"694 -6 CURVE SMOOTH"
);
},
{
closed = 1;
nodes = (
"666 24 OFFCURVE",
"645 46 OFFCURVE",
"645 76 CURVE SMOOTH",
"645 106 OFFCURVE",
"666 128 OFFCURVE",
"694 128 CURVE SMOOTH",
"722 128 OFFCURVE",
"743 106 OFFCURVE",
"743 76 CURVE SMOOTH",
"743 46 OFFCURVE",
"722 24 OFFCURVE",
"694 24 CURVE SMOOTH"
);
}
);
width = 809;
}
);
leftMetricsKey = "thoThung-thai";
note = uni0E13;
rightMetricsKey = "noNu-thai";
unicode = 0E13;
},
{
glyphname = "thoPhuthao-thai";
layers = (
{
anchors = (
{
name = bottom;
position = "{715, 0}";
},
{
name = top;
position = "{715, 510}";
}
);
layerId = "45309390-7B6A-4DA2-8B07-FED7B2950A7C";
paths = (
{
closed = 1;
nodes = (
"237 -6 OFFCURVE",
"347 184 OFFCURVE",
"347 328 CURVE SMOOTH",
"347 390 OFFCURVE",
"313 430 OFFCURVE",
"259 430 CURVE SMOOTH",
"210 430 OFFCURVE",
"174 396 OFFCURVE",
"174 350 CURVE SMOOTH",
"174 304 OFFCURVE",
"210 270 OFFCURVE",
"259 270 CURVE SMOOTH",
"282 270 OFFCURVE",
"306 277 OFFCURVE",
"327 299 CURVE",
"309 299 LINE",
"309 219 OFFCURVE",
"227 22 OFFCURVE",
"117 22 CURVE",
"124 13 LINE",
"127 40 OFFCURVE",
"128 64 OFFCURVE",
"128 86 CURVE SMOOTH",
"128 181 OFFCURVE",
"89 253 OFFCURVE",
"89 354 CURVE SMOOTH",
"89 470 OFFCURVE",
"137 525 OFFCURVE",
"181 525 CURVE SMOOTH",
"210 525 OFFCURVE",
"234 494 OFFCURVE",
"242 446 CURVE",
"264 446 LINE",
"272 494 OFFCURVE",
"294 525 OFFCURVE",
"319 525 CURVE SMOOTH",
"336 525 OFFCURVE",
"350 515 OFFCURVE",
"375 497 CURVE SMOOTH",
"412 471 OFFCURVE",
"433 457 OFFCURVE",
"455 455 CURVE",
"450 465 LINE",
"430 446 OFFCURVE",
"427 425 OFFCURVE",
"427 393 CURVE SMOOTH",
"427 198 LINE SMOOTH",
"427 174 OFFCURVE",
"429 158 OFFCURVE",
"437 144 CURVE",
"463 144 OFFCURVE",
"520 114 OFFCURVE",
"574 79 CURVE SMOOTH",
"619 51 OFFCURVE",
"662 19 OFFCURVE",
"683 0 CURVE",
"704 0 OFFCURVE",
"715 16 OFFCURVE",
"715 44 CURVE SMOOTH",
"715 550 LINE",
"710 553 OFFCURVE",
"706 554 OFFCURVE",
"702 554 CURVE SMOOTH",
"685 554 OFFCURVE",
"678 541 OFFCURVE",
"678 519 CURVE SMOOTH",
"678 92 LINE SMOOTH",
"678 60 OFFCURVE",
"681 42 OFFCURVE",
"689 26 CURVE",
"702 26 LINE",
"681 47 OFFCURVE",
"636 80 OFFCURVE",
"589 108 CURVE SMOOTH",
"542 137 OFFCURVE",
"493 161 OFFCURVE",
"464 164 CURVE",
"464 395 LINE SMOOTH",
"464 435 OFFCURVE",
"467 451 OFFCURVE",
"478 464 CURVE",
"472 476 LINE",
"456 479 OFFCURVE",
"435 492 OFFCURVE",
"397 519 CURVE SMOOTH",
"358 547 OFFCURVE",
"337 556 OFFCURVE",
"319 556 CURVE SMOOTH",
"288 556 OFFCURVE",
"262 532 OFFCURVE",
"253 493 CURVE",
"246 532 OFFCURVE",
"218 556 OFFCURVE",
"181 556 CURVE SMOOTH",
"111 556 OFFCURVE",
"52 478 OFFCURVE",
"52 354 CURVE SMOOTH",
"52 249 OFFCURVE",
"91 190 OFFCURVE",
"91 86 CURVE SMOOTH",
"91 -2 LINE",
"103 -2 OFFCURVE",
"118 -6 OFFCURVE",
"131 -6 CURVE SMOOTH"
);
},
{
closed = 1;
nodes = (
"494 -6 OFFCURVE",
"530 28 OFFCURVE",
"530 76 CURVE SMOOTH",
"530 124 OFFCURVE",
"494 158 OFFCURVE",
"445 158 CURVE SMOOTH",
"396 158 OFFCURVE",
"360 124 OFFCURVE",
"360 76 CURVE SMOOTH",
"360 28 OFFCURVE",
"396 -6 OFFCURVE",
"445 -6 CURVE SMOOTH"
);
},
{
closed = 1;
nodes = (
"417 24 OFFCURVE",
"396 46 OFFCURVE",
"396 76 CURVE SMOOTH",
"396 106 OFFCURVE",
"417 128 OFFCURVE",
"445 128 CURVE SMOOTH",
"473 128 OFFCURVE",
"494 106 OFFCURVE",
"494 76 CURVE SMOOTH",
"494 46 OFFCURVE",
"473 24 OFFCURVE",
"445 24 CURVE SMOOTH"
);
},
{
closed = 1;
nodes = (
"231 300 OFFCURVE",
"210 321 OFFCURVE",
"210 350 CURVE SMOOTH",
"210 379 OFFCURVE",
"231 400 OFFCURVE",
"259 400 CURVE SMOOTH",
"287 400 OFFCURVE",
"308 379 OFFCURVE",
"308 350 CURVE SMOOTH",
"308 321 OFFCURVE",
"287 300 OFFCURVE",
"259 300 CURVE SMOOTH"
);
}
);
width = 803;
}
);
leftMetricsKey = "khoKhwai-thai";
note = uni0E12;
rightMetricsKey = "moMa-thai";
unicode = 0E12;
},
{
glyphname = "khoRakhang-thai";
layers = (
{
anchors = (
{
name = bottom;
position = "{455, 0}";
},
{
name = top;
position = "{455, 510}";
}
);
layerId = "45309390-7B6A-4DA2-8B07-FED7B2950A7C";
paths = (
{
closed = 1;
nodes = (
"444 0 OFFCURVE",
"455 16 OFFCURVE",
"455 44 CURVE SMOOTH",
"455 550 LINE",
"450 553 OFFCURVE",
"446 554 OFFCURVE",
"442 554 CURVE SMOOTH",
"425 554 OFFCURVE",
"418 541 OFFCURVE",
"418 519 CURVE SMOOTH",
"418 96 LINE SMOOTH",
"418 64 OFFCURVE",
"421 46 OFFCURVE",
"429 30 CURVE",
"442 30 LINE",
"422 51 OFFCURVE",
"406 63 OFFCURVE",
"325 111 CURVE SMOOTH",
"250 156 OFFCURVE",
"209 176 OFFCURVE",
"175 176 CURVE",
"188 167 LINE",
"188 219 OFFCURVE",
"200 247 OFFCURVE",
"242 309 CURVE SMOOTH",
"282 368 OFFCURVE",
"294 398 OFFCURVE",
"294 455 CURVE SMOOTH",
"294 524 OFFCURVE",
"266 556 OFFCURVE",
"217 556 CURVE SMOOTH",
"194 556 OFFCURVE",
"174 544 OFFCURVE",
"162 522 CURVE",
"150 544 OFFCURVE",
"130 556 OFFCURVE",
"106 556 CURVE SMOOTH",
"60 556 OFFCURVE",
"34 518 OFFCURVE",
"34 450 CURVE SMOOTH",
"34 378 OFFCURVE",
"64 343 OFFCURVE",
"125 343 CURVE SMOOTH",
"176 343 OFFCURVE",
"205 367 OFFCURVE",
"205 409 CURVE SMOOTH",
"205 445 OFFCURVE",
"182 466 OFFCURVE",
"146 466 CURVE SMOOTH",
"122 466 OFFCURVE",
"111 455 OFFCURVE",
"117 437 CURVE",
"149 442 OFFCURVE",
"169 432 OFFCURVE",
"169 409 CURVE SMOOTH",
"169 386 OFFCURVE",
"153 372 OFFCURVE",
"125 372 CURVE SMOOTH",
"89 372 OFFCURVE",
"71 398 OFFCURVE",
"71 450 CURVE SMOOTH",
"71 498 OFFCURVE",
"85 525 OFFCURVE",
"113 525 CURVE SMOOTH",
"135 525 OFFCURVE",
"150 513 OFFCURVE",
"156 489 CURVE",
"168 489 LINE",
"174 513 OFFCURVE",
"189 525 OFFCURVE",
"211 525 CURVE SMOOTH",
"240 525 OFFCURVE",
"256 504 OFFCURVE",
"256 455 CURVE SMOOTH",
"256 403 OFFCURVE",
"244 376 OFFCURVE",
"207 320 CURVE SMOOTH",
"164 256 OFFCURVE",
"151 224 OFFCURVE",
"151 156 CURVE",
"186 156 OFFCURVE",
"227 134 OFFCURVE",
"309 83 CURVE SMOOTH",
"380 39 OFFCURVE",
"399 22 OFFCURVE",
"423 0 CURVE"
);
},
{
closed = 1;
nodes = (
"195 -6 OFFCURVE",
"236 32 OFFCURVE",
"236 84 CURVE SMOOTH",
"236 136 OFFCURVE",
"195 174 OFFCURVE",
"139 174 CURVE SMOOTH",
"83 174 OFFCURVE",
"42 136 OFFCURVE",
"42 84 CURVE SMOOTH",
"42 32 OFFCURVE",
"83 -6 OFFCURVE",
"139 -6 CURVE SMOOTH"
);
},
{
closed = 1;
nodes = (
"104 24 OFFCURVE",
"78 49 OFFCURVE",
"78 84 CURVE SMOOTH",
"78 119 OFFCURVE",
"104 144 OFFCURVE",
"139 144 CURVE SMOOTH",
"174 144 OFFCURVE",
"200 119 OFFCURVE",
"200 84 CURVE SMOOTH",
"200 49 OFFCURVE",
"174 24 OFFCURVE",
"139 24 CURVE SMOOTH"
);
}
);
width = 543;
}
);
note = uni0E06;
rightMetricsKey = "moMa-thai";
unicode = 0E06;
},
{
glyphname = "thoThong-thai";
layers = (
{
anchors = (
{
name = bottom;
position = "{368, 0}";
},
{
name = top;
position = "{400, 510}";
}
);
layerId = "45309390-7B6A-4DA2-8B07-FED7B2950A7C";
paths = (
{
closed = 1;
nodes = (
"322 -10 OFFCURVE",
"368 47 OFFCURVE",
"368 136 CURVE SMOOTH",
"368 323 LINE SMOOTH",
"368 363 OFFCURVE",
"371 379 OFFCURVE",
"382 392 CURVE",
"376 404 LINE",
"279 432 OFFCURVE",
"210 448 OFFCURVE",
"79 448 CURVE",
"87 438 LINE",
"93 497 OFFCURVE",
"126 529 OFFCURVE",
"190 529 CURVE SMOOTH",
"250 529 OFFCURVE",
"285 501 OFFCURVE",
"344 501 CURVE SMOOTH",
"392 501 OFFCURVE",
"400 519 OFFCURVE",
"400 530 CURVE SMOOTH",
"400 534 OFFCURVE",
"399 538 OFFCURVE",
"396 542 CURVE",
"380 535 OFFCURVE",
"362 532 OFFCURVE",
"343 532 CURVE SMOOTH",
"285 532 OFFCURVE",
"262 560 OFFCURVE",
"192 560 CURVE SMOOTH",
"109 560 OFFCURVE",
"64 521 OFFCURVE",
"50 433 CURVE",
"56 417 LINE",
"190 417 OFFCURVE",
"257 403 OFFCURVE",
"360 374 CURVE",
"354 393 LINE",
"334 374 OFFCURVE",
"331 353 OFFCURVE",
"331 321 CURVE SMOOTH",
"331 136 LINE SMOOTH",
"331 66 OFFCURVE",
"298 21 OFFCURVE",
"222 21 CURVE SMOOTH",
"183 21 OFFCURVE",
"142 33 OFFCURVE",
"97 33 CURVE",
"109 15 LINE",
"127 45 OFFCURVE",
"131 70 OFFCURVE",
"131 140 CURVE SMOOTH",
"131 429 LINE",
"94 429 LINE",
"94 140 LINE SMOOTH",
"94 60 OFFCURVE",
"85 34 OFFCURVE",
"70 20 CURVE",
"76 4 LINE",
"142 4 OFFCURVE",
"171 -10 OFFCURVE",
"221 -10 CURVE SMOOTH"
);
}
);
width = 446;
}
);
note = uni0E18;
unicode = 0E18;
},
{
glyphname = "roRua-thai";
layers = (
{
anchors = (
{
name = bottom;
position = "{296, 0}";
},
{
name = top;
position = "{345, 510}";
}
);
layerId = "45309390-7B6A-4DA2-8B07-FED7B2950A7C";
paths = (
{
closed = 1;
nodes = (
"263 -6 OFFCURVE",
"296 31 OFFCURVE",
"296 82 CURVE SMOOTH",
"296 336 LINE SMOOTH",
"296 376 OFFCURVE",
"299 392 OFFCURVE",
"310 405 CURVE",
"304 417 LINE",
"217 449 OFFCURVE",
"137 465 OFFCURVE",
"46 465 CURVE",
"65 455 LINE",
"69 497 OFFCURVE",
"109 529 OFFCURVE",
"167 529 CURVE SMOOTH",
"221 529 OFFCURVE",
"249 501 OFFCURVE",
"302 501 CURVE SMOOTH",
"345 501 OFFCURVE",
"355 519 OFFCURVE",
"355 531 CURVE SMOOTH",
"355 534 OFFCURVE",
"354 538 OFFCURVE",
"351 542 CURVE",
"335 535 OFFCURVE",
"317 532 OFFCURVE",
"300 532 CURVE SMOOTH",
"250 532 OFFCURVE",
"232 560 OFFCURVE",
"169 560 CURVE SMOOTH",
"94 560 OFFCURVE",
"41 521 OFFCURVE",
"28 450 CURVE",
"34 434 LINE",
"128 434 OFFCURVE",
"195 420 OFFCURVE",
"288 387 CURVE",
"282 406 LINE",
"262 387 OFFCURVE",
"259 366 OFFCURVE",
"259 334 CURVE SMOOTH",
"259 175 LINE SMOOTH",
"259 154 OFFCURVE",
"260 139 OFFCURVE",
"266 115 CURVE",
"282 115 LINE",
"273 135 OFFCURVE",
"244 150 OFFCURVE",
"210 150 CURVE SMOOTH",
"161 150 OFFCURVE",
"126 118 OFFCURVE",
"126 72 CURVE SMOOTH",
"126 26 OFFCURVE",
"161 -6 OFFCURVE",
"210 -6 CURVE SMOOTH"
);
},
{
closed = 1;
nodes = (
"181 24 OFFCURVE",
"162 43 OFFCURVE",
"162 72 CURVE SMOOTH",
"162 101 OFFCURVE",
"181 121 OFFCURVE",
"211 121 CURVE SMOOTH",
"241 121 OFFCURVE",
"259 101 OFFCURVE",
"259 72 CURVE SMOOTH",
"259 43 OFFCURVE",
"241 24 OFFCURVE",
"211 24 CURVE SMOOTH"
);
}
);
width = 389;
}
);
note = uni0E23;
unicode = 0E23;
},
{
glyphname = "choChan-thai";
layers = (
{
anchors = (
{
name = bottom;
position = "{388, 0}";
},
{
name = top;
position = "{388, 510}";
}
);
layerId = "45309390-7B6A-4DA2-8B07-FED7B2950A7C";
paths = (
{
closed = 1;
nodes = (
"325 -6 OFFCURVE",
"388 54 OFFCURVE",
"388 222 CURVE SMOOTH",
"388 385 LINE SMOOTH",
"388 425 OFFCURVE",
"391 441 OFFCURVE",
"402 454 CURVE",
"396 466 LINE",
"378 468 OFFCURVE",
"366 472 OFFCURVE",
"342 488 CURVE SMOOTH",
"287 525 LINE SMOOTH",
"248 551 OFFCURVE",
"226 560 OFFCURVE",
"194 560 CURVE SMOOTH",
"103 560 OFFCURVE",
"24 486 OFFCURVE",
"24 466 CURVE SMOOTH",
"24 454 OFFCURVE",
"29 449 OFFCURVE",
"42 449 CURVE",
"84 493 OFFCURVE",
"134 529 OFFCURVE",
"194 529 CURVE SMOOTH",
"222 529 OFFCURVE",
"239 521 OFFCURVE",
"270 500 CURVE SMOOTH",
"321 466 LINE SMOOTH",
"347 449 OFFCURVE",
"362 442 OFFCURVE",
"380 441 CURVE",
"374 461 LINE",
"354 442 OFFCURVE",
"351 421 OFFCURVE",
"351 389 CURVE SMOOTH",
"351 222 LINE SMOOTH",
"351 128 OFFCURVE",
"329 64 OFFCURVE",
"289 24 CURVE",
"295 24 LINE",
"295 264 OFFCURVE",
"273 443 OFFCURVE",
"167 443 CURVE SMOOTH",
"112 443 OFFCURVE",
"78 409 OFFCURVE",
"78 363 CURVE SMOOTH",
"78 317 OFFCURVE",
"111 283 OFFCURVE",
"161 283 CURVE SMOOTH",
"211 283 OFFCURVE",
"240 320 OFFCURVE",
"240 371 CURVE",
"221 354 LINE",
"248 324 OFFCURVE",
"260 159 OFFCURVE",
"260 -2 CURVE",
"273 -2 OFFCURVE",
"282 -6 OFFCURVE",
"298 -6 CURVE SMOOTH"
);
},
{
closed = 1;
nodes = (
"135 313 OFFCURVE",
"114 334 OFFCURVE",
"114 363 CURVE SMOOTH",
"114 392 OFFCURVE",
"135 413 OFFCURVE",
"164 413 CURVE SMOOTH",
"193 413 OFFCURVE",
"214 392 OFFCURVE",
"214 363 CURVE SMOOTH",
"214 334 OFFCURVE",
"193 313 OFFCURVE",
"164 313 CURVE SMOOTH"
);
}
);
width = 464;
}
);
note = uni0E08;
unicode = 0E08;
},
{
glyphname = "woWaen-thai";
layers = (
{
anchors = (
{
name = bottom;
position = "{348, 0}";
},
{
name = top;
position = "{358, 510}";
}
);
layerId = "45309390-7B6A-4DA2-8B07-FED7B2950A7C";
paths = (
{
closed = 1;
nodes = (
"314 -6 OFFCURVE",
"348 30 OFFCURVE",
"348 82 CURVE SMOOTH",
"348 385 LINE SMOOTH",
"348 425 OFFCURVE",
"351 441 OFFCURVE",
"362 454 CURVE",
"356 466 LINE",
"338 468 OFFCURVE",
"326 472 OFFCURVE",
"302 488 CURVE SMOOTH",
"247 525 LINE SMOOTH",
"208 551 OFFCURVE",
"189 560 OFFCURVE",
"160 560 CURVE SMOOTH",
"82 560 OFFCURVE",
"24 495 OFFCURVE",
"24 475 CURVE SMOOTH",
"24 463 OFFCURVE",
"31 457 OFFCURVE",
"44 457 CURVE",
"86 515 OFFCURVE",
"129 529 OFFCURVE",
"160 529 CURVE SMOOTH",
"182 529 OFFCURVE",
"199 521 OFFCURVE",
"230 500 CURVE SMOOTH",
"281 466 LINE SMOOTH",
"307 449 OFFCURVE",
"322 442 OFFCURVE",
"340 441 CURVE",
"334 461 LINE",
"314 442 OFFCURVE",
"311 421 OFFCURVE",
"311 389 CURVE SMOOTH",
"311 175 LINE SMOOTH",
"311 154 OFFCURVE",
"312 139 OFFCURVE",
"318 115 CURVE",
"334 115 LINE",
"325 135 OFFCURVE",
"295 150 OFFCURVE",
"263 150 CURVE SMOOTH",
"212 150 OFFCURVE",
"178 118 OFFCURVE",
"178 72 CURVE SMOOTH",
"178 26 OFFCURVE",
"212 -6 OFFCURVE",
"263 -6 CURVE SMOOTH"
);
},
{
closed = 1;
nodes = (
"233 24 OFFCURVE",
"214 43 OFFCURVE",
"214 72 CURVE SMOOTH",
"214 101 OFFCURVE",
"233 121 OFFCURVE",
"263 121 CURVE SMOOTH",
"293 121 OFFCURVE",
"311 101 OFFCURVE",
"311 72 CURVE SMOOTH",
"311 43 OFFCURVE",
"293 24 OFFCURVE",
"263 24 CURVE SMOOTH"
);
}
);
width = 436;
}
);
note = uni0E27;
rightMetricsKey = "koKai-thai";
unicode = 0E27;
},
{
glyphname = "ngoNgu-thai";
layers = (
{
anchors = (
{
name = bottom;
position = "{319, 0}";
},
{
name = top;
position = "{319, 510}";
}
);
layerId = "45309390-7B6A-4DA2-8B07-FED7B2950A7C";
paths = (
{
closed = 1;
nodes = (
"303 -6 OFFCURVE",
"319 32 OFFCURVE",
"319 102 CURVE SMOOTH",
"319 468 LINE SMOOTH",
"319 519 OFFCURVE",
"286 556 OFFCURVE",
"233 556 CURVE SMOOTH",
"184 556 OFFCURVE",
"149 524 OFFCURVE",
"149 478 CURVE SMOOTH",
"149 432 OFFCURVE",
"184 400 OFFCURVE",
"233 400 CURVE SMOOTH",
"267 400 OFFCURVE",
"296 415 OFFCURVE",
"305 435 CURVE",
"289 435 LINE",
"283 411 OFFCURVE",
"282 396 OFFCURVE",
"282 375 CURVE SMOOTH",
"282 102 LINE SMOOTH",
"282 61 OFFCURVE",
"277 33 OFFCURVE",
"256 19 CURVE",
"276 19 LINE",
"246 85 OFFCURVE",
"75 437 OFFCURVE",
"3 529 CURVE SMOOTH",
"-6 541 OFFCURVE",
"-14 545 OFFCURVE",
"-22 545 CURVE SMOOTH",
"-31 545 OFFCURVE",
"-36 539 OFFCURVE",
"-36 523 CURVE",
"59 396 OFFCURVE",
"176 149 OFFCURVE",
"248 -2 CURVE",
"258 -2 OFFCURVE",
"270 -6 OFFCURVE",
"278 -6 CURVE SMOOTH"
);
},
{
closed = 1;
nodes = (
"204 429 OFFCURVE",
"185 449 OFFCURVE",
"185 478 CURVE SMOOTH",
"185 507 OFFCURVE",
"204 526 OFFCURVE",
"234 526 CURVE SMOOTH",
"264 526 OFFCURVE",
"282 507 OFFCURVE",
"282 478 CURVE SMOOTH",
"282 449 OFFCURVE",
"264 429 OFFCURVE",
"234 429 CURVE SMOOTH"
);
}
);
width = 405;
}
);
note = uni0E07;
rightMetricsKey = "ngoNgu-thai";
unicode = 0E07;
},
{
glyphname = "thoThan-thai";
layers = (
{
anchors = (
{
name = bottom;
position = "{401, -230}";
},
{
name = top;
position = "{398, 510}";
}
);
layerId = "45309390-7B6A-4DA2-8B07-FED7B2950A7C";
paths = (
{
closed = 1;
nodes = (
"325 -6 OFFCURVE",
"388 54 OFFCURVE",
"388 222 CURVE SMOOTH",
"388 385 LINE SMOOTH",
"388 425 OFFCURVE",
"391 441 OFFCURVE",
"402 454 CURVE",
"396 466 LINE",
"378 468 OFFCURVE",
"366 472 OFFCURVE",
"342 488 CURVE SMOOTH",
"287 525 LINE SMOOTH",
"248 551 OFFCURVE",
"226 560 OFFCURVE",
"194 560 CURVE SMOOTH",
"103 560 OFFCURVE",
"24 486 OFFCURVE",
"24 466 CURVE SMOOTH",
"24 454 OFFCURVE",
"29 449 OFFCURVE",
"42 449 CURVE",
"84 493 OFFCURVE",
"134 529 OFFCURVE",
"194 529 CURVE SMOOTH",
"222 529 OFFCURVE",
"239 521 OFFCURVE",
"270 500 CURVE SMOOTH",
"321 466 LINE SMOOTH",
"347 449 OFFCURVE",
"362 442 OFFCURVE",
"380 441 CURVE",
"374 461 LINE",
"354 442 OFFCURVE",
"351 421 OFFCURVE",
"351 389 CURVE SMOOTH",
"351 222 LINE SMOOTH",
"351 128 OFFCURVE",
"329 64 OFFCURVE",
"289 24 CURVE",
"295 24 LINE",
"295 264 OFFCURVE",
"273 443 OFFCURVE",
"167 443 CURVE SMOOTH",
"112 443 OFFCURVE",
"78 409 OFFCURVE",
"78 363 CURVE SMOOTH",
"78 317 OFFCURVE",
"111 283 OFFCURVE",
"161 283 CURVE SMOOTH",
"211 283 OFFCURVE",
"240 320 OFFCURVE",
"240 371 CURVE",
"221 354 LINE",
"248 324 OFFCURVE",
"260 159 OFFCURVE",
"260 -2 CURVE",
"273 -2 OFFCURVE",
"282 -6 OFFCURVE",
"298 -6 CURVE SMOOTH"
);
},
{
closed = 1;
nodes = (
"264 -230 LINE",
"253 -158 OFFCURVE",
"258 -112 OFFCURVE",
"288 -112 CURVE SMOOTH",
"318 -112 OFFCURVE",
"344 -158 OFFCURVE",
"368 -230 CURVE",
"390 -230 OFFCURVE",
"402 -214 OFFCURVE",
"402 -184 CURVE SMOOTH",
"402 -60 LINE",
"397 -57 OFFCURVE",
"393 -56 OFFCURVE",
"389 -56 CURVE SMOOTH",
"372 -56 OFFCURVE",
"365 -69 OFFCURVE",
"365 -91 CURVE SMOOTH",
"365 -184 LINE",
"377 -184 LINE",
"352 -107 OFFCURVE",
"316 -81 OFFCURVE",
"286 -81 CURVE SMOOTH",
"245 -81 OFFCURVE",
"218 -127 OFFCURVE",
"245 -199 CURVE",
"254 -199 LINE",
"218 -120 OFFCURVE",
"178 -60 OFFCURVE",
"111 -60 CURVE SMOOTH",
"61 -60 OFFCURVE",
"24 -93 OFFCURVE",
"24 -145 CURVE SMOOTH",
"24 -195 OFFCURVE",
"59 -226 OFFCURVE",
"104 -226 CURVE SMOOTH",
"161 -226 OFFCURVE",
"198 -177 OFFCURVE",
"207 -92 CURVE SMOOTH",
"209 -70 OFFCURVE",
"212 -34 OFFCURVE",
"175 -34 CURVE",
"172 -146 OFFCURVE",
"152 -195 OFFCURVE",
"108 -195 CURVE SMOOTH",
"80 -195 OFFCURVE",
"61 -176 OFFCURVE",
"61 -145 CURVE SMOOTH",
"61 -112 OFFCURVE",
"83 -91 OFFCURVE",
"113 -91 CURVE SMOOTH",
"163 -91 OFFCURVE",
"205 -147 OFFCURVE",
"248 -230 CURVE"
);
},
{
closed = 1;
nodes = (
"135 313 OFFCURVE",
"114 334 OFFCURVE",
"114 363 CURVE SMOOTH",
"114 392 OFFCURVE",
"135 413 OFFCURVE",
"164 413 CURVE SMOOTH",
"193 413 OFFCURVE",
"214 392 OFFCURVE",
"214 363 CURVE SMOOTH",
"214 334 OFFCURVE",
"193 313 OFFCURVE",
"164 313 CURVE SMOOTH"
);
},
{
closed = 1;
nodes = (
"424 555 OFFCURVE",
"452 574 OFFCURVE",
"452 602 CURVE SMOOTH",
"452 619 OFFCURVE",
"443 624 OFFCURVE",
"432 624 CURVE",
"413 602 OFFCURVE",
"387 575 OFFCURVE",
"266 522 CURVE",
"293 502 LINE"
);
}
);
width = 464;
}
);
note = uni0E10;
unicode = 0E10;
},
{
glyphname = "thoThan-thai.less";
layers = (
{
anchors = (
{
name = bottom;
position = "{388, 0}";
},
{
name = top;
position = "{398, 510}";
}
);
layerId = "45309390-7B6A-4DA2-8B07-FED7B2950A7C";
paths = (
{
closed = 1;
nodes = (
"325 -6 OFFCURVE",
"388 54 OFFCURVE",
"388 222 CURVE SMOOTH",
"388 385 LINE SMOOTH",
"388 425 OFFCURVE",
"391 441 OFFCURVE",
"402 454 CURVE",
"396 466 LINE",
"378 468 OFFCURVE",
"366 472 OFFCURVE",
"342 488 CURVE SMOOTH",
"287 525 LINE SMOOTH",
"248 551 OFFCURVE",
"226 560 OFFCURVE",
"194 560 CURVE SMOOTH",
"103 560 OFFCURVE",
"24 486 OFFCURVE",
"24 466 CURVE SMOOTH",
"24 454 OFFCURVE",
"29 449 OFFCURVE",
"42 449 CURVE",
"84 493 OFFCURVE",
"134 529 OFFCURVE",
"194 529 CURVE SMOOTH",
"222 529 OFFCURVE",
"239 521 OFFCURVE",
"270 500 CURVE SMOOTH",
"321 466 LINE SMOOTH",
"347 449 OFFCURVE",
"362 442 OFFCURVE",
"380 441 CURVE",
"374 461 LINE",
"354 442 OFFCURVE",
"351 421 OFFCURVE",
"351 389 CURVE SMOOTH",
"351 222 LINE SMOOTH",
"351 128 OFFCURVE",
"329 64 OFFCURVE",
"289 24 CURVE",
"295 24 LINE",
"295 264 OFFCURVE",
"273 443 OFFCURVE",
"167 443 CURVE SMOOTH",
"112 443 OFFCURVE",
"78 409 OFFCURVE",
"78 363 CURVE SMOOTH",
"78 317 OFFCURVE",
"111 283 OFFCURVE",
"161 283 CURVE SMOOTH",
"211 283 OFFCURVE",
"240 320 OFFCURVE",
"240 371 CURVE",
"221 354 LINE",
"248 324 OFFCURVE",
"260 159 OFFCURVE",
"260 -2 CURVE",
"273 -2 OFFCURVE",
"282 -6 OFFCURVE",
"298 -6 CURVE SMOOTH"
);
},
{
closed = 1;
nodes = (
"135 313 OFFCURVE",
"114 334 OFFCURVE",
"114 363 CURVE SMOOTH",
"114 392 OFFCURVE",
"135 413 OFFCURVE",
"164 413 CURVE SMOOTH",
"193 413 OFFCURVE",
"214 392 OFFCURVE",
"214 363 CURVE SMOOTH",
"214 334 OFFCURVE",
"193 313 OFFCURVE",
"164 313 CURVE SMOOTH"
);
},
{
closed = 1;
nodes = (
"424 555 OFFCURVE",
"452 574 OFFCURVE",
"452 602 CURVE SMOOTH",
"452 619 OFFCURVE",
"443 624 OFFCURVE",
"432 624 CURVE",
"413 602 OFFCURVE",
"387 575 OFFCURVE",
"266 522 CURVE",
"293 502 LINE"
);
}
);
width = 464;
}
);
note = "thoThan-thai.less";
},
{
glyphname = "choChing-thai";
layers = (
{
anchors = (
{
name = bottom;
position = "{478, 0}";
},
{
name = top;
position = "{468, 510}";
}
);
layerId = "45309390-7B6A-4DA2-8B07-FED7B2950A7C";
paths = (
{
closed = 1;
nodes = (
"186 -6 OFFCURVE",
"207 29 OFFCURVE",
"282 86 CURVE SMOOTH",
"366 149 OFFCURVE",
"406 156 OFFCURVE",
"447 156 CURVE",
"455 170 OFFCURVE",
"457 186 OFFCURVE",
"457 210 CURVE SMOOTH",
"457 375 LINE SMOOTH",
"457 415 OFFCURVE",
"460 431 OFFCURVE",
"471 444 CURVE",
"465 456 LINE",
"447 458 OFFCURVE",
"435 463 OFFCURVE",
"411 478 CURVE SMOOTH",
"333 525 LINE SMOOTH",
"290 551 OFFCURVE",
"263 560 OFFCURVE",
"231 560 CURVE SMOOTH",
"136 560 OFFCURVE",
"40 479 OFFCURVE",
"40 452 CURVE SMOOTH",
"40 446 OFFCURVE",
"45 439 OFFCURVE",
"58 439 CURVE",
"104 482 OFFCURVE",
"169 529 OFFCURVE",
"231 529 CURVE SMOOTH",
"255 529 OFFCURVE",
"279 522 OFFCURVE",
"316 500 CURVE SMOOTH",
"390 456 LINE SMOOTH",
"416 440 OFFCURVE",
"431 432 OFFCURVE",
"449 431 CURVE",
"443 451 LINE",
"423 432 OFFCURVE",
"420 411 OFFCURVE",
"420 379 CURVE SMOOTH",
"420 167 LINE",
"433 178 LINE",
"378 178 OFFCURVE",
"330 162 OFFCURVE",
"266 116 CURVE SMOOTH",
"212 78 OFFCURVE",
"205 61 OFFCURVE",
"171 26 CURVE",
"183 26 LINE",
"192 54 OFFCURVE",
"194 85 OFFCURVE",
"194 116 CURVE SMOOTH",
"195 228 OFFCURVE",
"194 247 OFFCURVE",
"210 284 CURVE SMOOTH",
"221 309 OFFCURVE",
"226 321 OFFCURVE",
"226 338 CURVE SMOOTH",
"226 382 OFFCURVE",
"193 418 OFFCURVE",
"140 418 CURVE SMOOTH",
"90 418 OFFCURVE",
"56 386 OFFCURVE",
"56 340 CURVE SMOOTH",
"56 294 OFFCURVE",
"90 262 OFFCURVE",
"142 262 CURVE SMOOTH",
"168 262 OFFCURVE",
"181 270 OFFCURVE",
"191 283 CURVE",
"174 283 LINE",
"160 254 OFFCURVE",
"159 249 OFFCURVE",
"157 116 CURVE SMOOTH",
"156 58 OFFCURVE",
"151 32 OFFCURVE",
"133 14 CURVE",
"139 -2 LINE",
"147 -2 OFFCURVE",
"151 -6 OFFCURVE",
"160 -6 CURVE SMOOTH"
);
},
{
closed = 1;
nodes = (
"111 291 OFFCURVE",
"92 311 OFFCURVE",
"92 340 CURVE SMOOTH",
"92 369 OFFCURVE",
"111 388 OFFCURVE",
"141 388 CURVE SMOOTH",
"171 388 OFFCURVE",
"189 369 OFFCURVE",
"189 340 CURVE SMOOTH",
"189 311 OFFCURVE",
"171 291 OFFCURVE",
"141 291 CURVE SMOOTH"
);
},
{
closed = 1;
nodes = (
"486 -6 OFFCURVE",
"527 32 OFFCURVE",
"527 84 CURVE SMOOTH",
"527 136 OFFCURVE",
"486 174 OFFCURVE",
"430 174 CURVE SMOOTH",
"374 174 OFFCURVE",
"333 136 OFFCURVE",
"333 84 CURVE SMOOTH",
"333 32 OFFCURVE",
"374 -6 OFFCURVE",
"430 -6 CURVE SMOOTH"
);
},
{
closed = 1;
nodes = (
"395 24 OFFCURVE",
"369 49 OFFCURVE",
"369 84 CURVE SMOOTH",
"369 119 OFFCURVE",
"395 144 OFFCURVE",
"430 144 CURVE SMOOTH",
"465 144 OFFCURVE",
"491 119 OFFCURVE",
"491 84 CURVE SMOOTH",
"491 49 OFFCURVE",
"465 24 OFFCURVE",
"430 24 CURVE SMOOTH"
);
}
);
width = 567;
}
);
note = uni0E09;
unicode = 0E09;
},
{
glyphname = "loLing-thai";
lastChange = "2018-03-12 19:44:15 +0000";
layers = (
{
anchors = (
{
name = bottom;
position = "{457, 0}";
},
{
name = top;
position = "{447, 510}";
}
);
layerId = "45309390-7B6A-4DA2-8B07-FED7B2950A7C";
paths = (
{
closed = 1;
nodes = (
"233 -6 OFFCURVE",
"271 30 OFFCURVE",
"271 80 CURVE SMOOTH",
"271 130 OFFCURVE",
"232 166 OFFCURVE",
"182 166 CURVE SMOOTH",
"146 166 OFFCURVE",
"116 147 OFFCURVE",
"102 116 CURVE",
"130 116 LINE",
"130 226 OFFCURVE",
"180 441 OFFCURVE",
"210 441 CURVE SMOOTH",
"264 441 OFFCURVE",
"374 134 OFFCURVE",
"412 0 CURVE",
"446 0 OFFCURVE",
"457 23 OFFCURVE",
"457 64 CURVE SMOOTH",
"457 375 LINE SMOOTH",
"457 415 OFFCURVE",
"460 431 OFFCURVE",
"471 444 CURVE",
"465 456 LINE",
"447 458 OFFCURVE",
"435 463 OFFCURVE",
"411 478 CURVE SMOOTH",
"333 525 LINE SMOOTH",
"290 551 OFFCURVE",
"263 560 OFFCURVE",
"231 560 CURVE SMOOTH",
"136 560 OFFCURVE",
"40 479 OFFCURVE",
"40 452 CURVE SMOOTH",
"40 446 OFFCURVE",
"45 439 OFFCURVE",
"58 439 CURVE",
"104 482 OFFCURVE",
"169 529 OFFCURVE",
"231 529 CURVE SMOOTH",
"255 529 OFFCURVE",
"279 522 OFFCURVE",
"316 500 CURVE SMOOTH",
"390 456 LINE SMOOTH",
"416 440 OFFCURVE",
"431 432 OFFCURVE",
"449 431 CURVE",
"443 451 LINE",
"423 432 OFFCURVE",
"420 411 OFFCURVE",
"420 379 CURVE SMOOTH",
"420 35 LINE",
"438 36 LINE",
"382 193 OFFCURVE",
"298 472 OFFCURVE",
"211 472 CURVE SMOOTH",
"134 472 OFFCURVE",
"91 192 OFFCURVE",
"91 106 CURVE SMOOTH",
"91 26 OFFCURVE",
"129 -6 OFFCURVE",
"179 -6 CURVE SMOOTH"
);
},
{
closed = 1;
nodes = (
"150 24 OFFCURVE",
"127 48 OFFCURVE",
"127 80 CURVE SMOOTH",
"127 112 OFFCURVE",
"150 136 OFFCURVE",
"181 136 CURVE SMOOTH",
"212 136 OFFCURVE",
"235 112 OFFCURVE",
"235 80 CURVE SMOOTH",
"235 48 OFFCURVE",
"212 24 OFFCURVE",
"181 24 CURVE SMOOTH"
);
}
);
width = 545;
}
);
note = uni0E25;
rightMetricsKey = "koKai-thai";
unicode = 0E25;
},
{
glyphname = "soSua-thai";
layers = (
{
anchors = (
{
name = bottom;
position = "{457, 0}";
},
{
name = top;
position = "{447, 510}";
}
);
layerId = "45309390-7B6A-4DA2-8B07-FED7B2950A7C";
paths = (
{
closed = 1;
nodes = (
"233 -6 OFFCURVE",
"271 30 OFFCURVE",
"271 80 CURVE SMOOTH",
"271 130 OFFCURVE",
"232 166 OFFCURVE",
"182 166 CURVE SMOOTH",
"146 166 OFFCURVE",
"116 147 OFFCURVE",
"102 116 CURVE",
"130 116 LINE",
"130 226 OFFCURVE",
"180 441 OFFCURVE",
"210 441 CURVE SMOOTH",
"264 441 OFFCURVE",
"374 134 OFFCURVE",
"412 0 CURVE",
"446 0 OFFCURVE",
"457 23 OFFCURVE",
"457 64 CURVE SMOOTH",
"457 375 LINE SMOOTH",
"457 415 OFFCURVE",
"460 431 OFFCURVE",
"471 444 CURVE",
"465 456 LINE",
"447 458 OFFCURVE",
"435 463 OFFCURVE",
"411 478 CURVE SMOOTH",
"333 525 LINE SMOOTH",
"290 551 OFFCURVE",
"263 560 OFFCURVE",
"231 560 CURVE SMOOTH",
"136 560 OFFCURVE",
"40 479 OFFCURVE",
"40 452 CURVE SMOOTH",
"40 446 OFFCURVE",
"45 439 OFFCURVE",
"58 439 CURVE",
"104 482 OFFCURVE",
"169 529 OFFCURVE",
"231 529 CURVE SMOOTH",
"255 529 OFFCURVE",
"279 522 OFFCURVE",
"316 500 CURVE SMOOTH",
"390 456 LINE SMOOTH",
"416 440 OFFCURVE",
"431 432 OFFCURVE",
"449 431 CURVE",
"443 451 LINE",
"423 432 OFFCURVE",
"420 411 OFFCURVE",
"420 379 CURVE SMOOTH",
"420 35 LINE",
"438 36 LINE",
"382 193 OFFCURVE",
"298 472 OFFCURVE",
"211 472 CURVE SMOOTH",
"134 472 OFFCURVE",
"91 192 OFFCURVE",
"91 106 CURVE SMOOTH",
"91 26 OFFCURVE",
"129 -6 OFFCURVE",
"179 -6 CURVE SMOOTH"
);
},
{
closed = 1;
nodes = (
"150 24 OFFCURVE",
"127 48 OFFCURVE",
"127 80 CURVE SMOOTH",
"127 112 OFFCURVE",
"150 136 OFFCURVE",
"181 136 CURVE SMOOTH",
"212 136 OFFCURVE",
"235 112 OFFCURVE",
"235 80 CURVE SMOOTH",
"235 48 OFFCURVE",
"212 24 OFFCURVE",
"181 24 CURVE SMOOTH"
);
},
{
closed = 1;
nodes = (
"493 555 OFFCURVE",
"521 574 OFFCURVE",
"521 602 CURVE SMOOTH",
"521 619 OFFCURVE",
"512 624 OFFCURVE",
"501 624 CURVE",
"482 602 OFFCURVE",
"456 575 OFFCURVE",
"328 519 CURVE",
"351 498 LINE"
);
}
);
width = 545;
}
);
leftMetricsKey = "loLing-thai";
note = uni0E2A;
unicode = 0E2A;
},
{
glyphname = "boBaimai-thai";
layers = (
{
anchors = (
{
name = bottom;
position = "{445, 0}";
},
{
name = top;
position = "{455, 510}";
}
);
layerId = "45309390-7B6A-4DA2-8B07-FED7B2950A7C";
paths = (
{
closed = 1;
nodes = (
"389 -10 OFFCURVE",
"455 50 OFFCURVE",
"455 144 CURVE SMOOTH",
"455 550 LINE",
"450 553 OFFCURVE",
"446 554 OFFCURVE",
"442 554 CURVE SMOOTH",
"425 554 OFFCURVE",
"418 541 OFFCURVE",
"418 519 CURVE SMOOTH",
"418 144 LINE SMOOTH",
"418 69 OFFCURVE",
"365 21 OFFCURVE",
"270 21 CURVE SMOOTH",
"222 21 OFFCURVE",
"165 33 OFFCURVE",
"122 33 CURVE",
"134 15 LINE",
"152 45 OFFCURVE",
"156 70 OFFCURVE",
"156 120 CURVE SMOOTH",
"156 335 LINE SMOOTH",
"156 372 OFFCURVE",
"159 393 OFFCURVE",
"172 422 CURVE SMOOTH",
"183 447 OFFCURVE",
"188 459 OFFCURVE",
"188 476 CURVE SMOOTH",
"188 521 OFFCURVE",
"154 556 OFFCURVE",
"102 556 CURVE SMOOTH",
"52 556 OFFCURVE",
"18 524 OFFCURVE",
"18 478 CURVE SMOOTH",
"18 432 OFFCURVE",
"52 400 OFFCURVE",
"104 400 CURVE SMOOTH",
"130 400 OFFCURVE",
"143 408 OFFCURVE",
"153 421 CURVE",
"136 421 LINE",
"121 397 OFFCURVE",
"119 356 OFFCURVE",
"119 335 CURVE SMOOTH",
"119 120 LINE SMOOTH",
"119 60 OFFCURVE",
"110 34 OFFCURVE",
"95 20 CURVE",
"101 4 LINE",
"166 4 OFFCURVE",
"210 -10 OFFCURVE",
"268 -10 CURVE SMOOTH"
);
},
{
closed = 1;
nodes = (
"73 429 OFFCURVE",
"54 449 OFFCURVE",
"54 478 CURVE SMOOTH",
"54 507 OFFCURVE",
"73 526 OFFCURVE",
"103 526 CURVE SMOOTH",
"133 526 OFFCURVE",
"151 507 OFFCURVE",
"151 478 CURVE SMOOTH",
"151 449 OFFCURVE",
"133 429 OFFCURVE",
"103 429 CURVE SMOOTH"
);
}
);
width = 537;
}
);
note = uni0E1A;
unicode = 0E1A;
},
{
glyphname = "poPla-thai";
layers = (
{
anchors = (
{
name = bottom;
position = "{445, 0}";
},
{
name = top;
position = "{356, 510}";
}
);
layerId = "45309390-7B6A-4DA2-8B07-FED7B2950A7C";
paths = (
{
closed = 1;
nodes = (
"389 -10 OFFCURVE",
"455 50 OFFCURVE",
"455 144 CURVE SMOOTH",
"455 750 LINE",
"450 753 OFFCURVE",
"446 754 OFFCURVE",
"442 754 CURVE SMOOTH",
"425 754 OFFCURVE",
"418 741 OFFCURVE",
"418 719 CURVE SMOOTH",
"418 144 LINE SMOOTH",
"418 69 OFFCURVE",
"365 21 OFFCURVE",
"270 21 CURVE SMOOTH",
"222 21 OFFCURVE",
"165 33 OFFCURVE",
"122 33 CURVE",
"134 15 LINE",
"152 45 OFFCURVE",
"156 70 OFFCURVE",
"156 120 CURVE SMOOTH",
"156 335 LINE SMOOTH",
"156 372 OFFCURVE",
"159 393 OFFCURVE",
"172 422 CURVE SMOOTH",
"183 447 OFFCURVE",
"188 459 OFFCURVE",
"188 476 CURVE SMOOTH",
"188 521 OFFCURVE",
"154 556 OFFCURVE",
"102 556 CURVE SMOOTH",
"52 556 OFFCURVE",
"18 524 OFFCURVE",
"18 478 CURVE SMOOTH",
"18 432 OFFCURVE",
"52 400 OFFCURVE",
"104 400 CURVE SMOOTH",
"130 400 OFFCURVE",
"143 408 OFFCURVE",
"153 421 CURVE",
"136 421 LINE",
"121 397 OFFCURVE",
"119 356 OFFCURVE",
"119 335 CURVE SMOOTH",
"119 120 LINE SMOOTH",
"119 60 OFFCURVE",
"110 34 OFFCURVE",
"95 20 CURVE",
"101 4 LINE",
"166 4 OFFCURVE",
"210 -10 OFFCURVE",
"268 -10 CURVE SMOOTH"
);
},
{
closed = 1;
nodes = (
"73 429 OFFCURVE",
"54 449 OFFCURVE",
"54 478 CURVE SMOOTH",
"54 507 OFFCURVE",
"73 526 OFFCURVE",
"103 526 CURVE SMOOTH",
"133 526 OFFCURVE",
"151 507 OFFCURVE",
"151 478 CURVE SMOOTH",
"151 449 OFFCURVE",
"133 429 OFFCURVE",
"103 429 CURVE SMOOTH"
);
}
);
width = 537;
}
);
leftMetricsKey = "boBaimai-thai";
note = uni0E1B;
rightMetricsKey = "boBaimai-thai";
unicode = 0E1B;
},
{
glyphname = "soRusi-thai";
layers = (
{
anchors = (
{
name = bottom;
position = "{465, 0}";
},
{
name = top;
position = "{465, 510}";
}
);
layerId = "45309390-7B6A-4DA2-8B07-FED7B2950A7C";
paths = (
{
closed = 1;
nodes = (
"399 -10 OFFCURVE",
"465 50 OFFCURVE",
"465 144 CURVE SMOOTH",
"465 550 LINE",
"460 553 OFFCURVE",
"456 554 OFFCURVE",
"452 554 CURVE SMOOTH",
"435 554 OFFCURVE",
"428 541 OFFCURVE",
"428 519 CURVE SMOOTH",
"428 144 LINE SMOOTH",
"428 69 OFFCURVE",
"375 21 OFFCURVE",
"274 21 CURVE SMOOTH",
"223 21 OFFCURVE",
"177 33 OFFCURVE",
"134 33 CURVE",
"134 15 LINE",
"152 45 OFFCURVE",
"156 70 OFFCURVE",
"156 120 CURVE SMOOTH",
"156 335 LINE SMOOTH",
"156 372 OFFCURVE",
"159 393 OFFCURVE",
"172 422 CURVE SMOOTH",
"183 447 OFFCURVE",
"188 459 OFFCURVE",
"188 476 CURVE SMOOTH",
"188 521 OFFCURVE",
"154 556 OFFCURVE",
"102 556 CURVE SMOOTH",
"52 556 OFFCURVE",
"18 524 OFFCURVE",
"18 478 CURVE SMOOTH",
"18 432 OFFCURVE",
"52 400 OFFCURVE",
"104 400 CURVE SMOOTH",
"130 400 OFFCURVE",
"143 408 OFFCURVE",
"153 421 CURVE",
"136 421 LINE",
"121 397 OFFCURVE",
"119 356 OFFCURVE",
"119 335 CURVE SMOOTH",
"119 120 LINE SMOOTH",
"119 60 OFFCURVE",
"110 34 OFFCURVE",
"95 20 CURVE",
"101 4 LINE",
"165 4 OFFCURVE",
"210 -10 OFFCURVE",
"272 -10 CURVE SMOOTH"
);
},
{
closed = 1;
nodes = (
"73 429 OFFCURVE",
"54 449 OFFCURVE",
"54 478 CURVE SMOOTH",
"54 507 OFFCURVE",
"73 526 OFFCURVE",
"103 526 CURVE SMOOTH",
"133 526 OFFCURVE",
"151 507 OFFCURVE",
"151 478 CURVE SMOOTH",
"151 449 OFFCURVE",
"133 429 OFFCURVE",
"103 429 CURVE SMOOTH"
);
},
{
closed = 1;
nodes = (
"453 208 OFFCURVE",
"552 292 OFFCURVE",
"552 400 CURVE SMOOTH",
"552 426 OFFCURVE",
"546 435 OFFCURVE",
"531 435 CURVE SMOOTH",
"524 435 OFFCURVE",
"519 433 OFFCURVE",
"515 431 CURVE",
"515 308 OFFCURVE",
"450 240 OFFCURVE",
"336 240 CURVE",
"336 232 LINE",
"360 243 OFFCURVE",
"371 265 OFFCURVE",
"371 290 CURVE SMOOTH",
"371 335 OFFCURVE",
"337 368 OFFCURVE",
"291 368 CURVE SMOOTH",
"244 368 OFFCURVE",
"210 335 OFFCURVE",
"210 288 CURVE SMOOTH",
"210 239 OFFCURVE",
"248 208 OFFCURVE",
"325 208 CURVE SMOOTH"
);
},
{
closed = 1;
nodes = (
"265 239 OFFCURVE",
"247 260 OFFCURVE",
"247 289 CURVE SMOOTH",
"247 318 OFFCURVE",
"265 339 OFFCURVE",
"291 339 CURVE SMOOTH",
"317 339 OFFCURVE",
"335 318 OFFCURVE",
"335 289 CURVE SMOOTH",
"335 260 OFFCURVE",
"317 239 OFFCURVE",
"291 239 CURVE SMOOTH"
);
}
);
width = 564;
}
);
leftMetricsKey = "boBaimai-thai";
note = uni0E29;
unicode = 0E29;
},
{
glyphname = "yoYak-thai";
layers = (
{
anchors = (
{
name = bottom;
position = "{430, 0}";
},
{
name = top;
position = "{430, 510}";
}
);
layerId = "45309390-7B6A-4DA2-8B07-FED7B2950A7C";
paths = (
{
closed = 1;
nodes = (
"287 -10 OFFCURVE",
"388 4 OFFCURVE",
"448 4 CURVE",
"454 20 LINE",
"439 34 OFFCURVE",
"430 60 OFFCURVE",
"430 120 CURVE SMOOTH",
"430 550 LINE",
"425 553 OFFCURVE",
"421 554 OFFCURVE",
"417 554 CURVE SMOOTH",
"400 554 OFFCURVE",
"393 541 OFFCURVE",
"393 519 CURVE SMOOTH",
"393 120 LINE SMOOTH",
"393 70 OFFCURVE",
"397 45 OFFCURVE",
"415 15 CURVE",
"427 33 LINE",
"388 33 OFFCURVE",
"271 21 OFFCURVE",
"227 21 CURVE SMOOTH",
"135 21 OFFCURVE",
"101 75 OFFCURVE",
"101 142 CURVE SMOOTH",
"101 218 OFFCURVE",
"144 251 OFFCURVE",
"228 282 CURVE SMOOTH",
"266 296 OFFCURVE",
"305 307 OFFCURVE",
"305 337 CURVE SMOOTH",
"305 347 OFFCURVE",
"300 353 OFFCURVE",
"289 355 CURVE",
"269 329 OFFCURVE",
"240 315 OFFCURVE",
"200 315 CURVE SMOOTH",
"127 315 OFFCURVE",
"92 362 OFFCURVE",
"92 433 CURVE",
"95 435 LINE",
"113 409 OFFCURVE",
"141 400 OFFCURVE",
"168 400 CURVE SMOOTH",
"219 400 OFFCURVE",
"253 432 OFFCURVE",
"253 478 CURVE SMOOTH",
"253 526 OFFCURVE",
"217 556 OFFCURVE",
"165 556 CURVE SMOOTH",
"98 556 OFFCURVE",
"58 505 OFFCURVE",
"58 430 CURVE SMOOTH",
"58 348 OFFCURVE",
"106 296 OFFCURVE",
"176 291 CURVE",
"176 289 LINE",
"107 262 OFFCURVE",
"64 215 OFFCURVE",
"64 136 CURVE SMOOTH",
"64 56 OFFCURVE",
"109 -10 OFFCURVE",
"231 -10 CURVE SMOOTH"
);
},
{
closed = 1;
nodes = (
"138 429 OFFCURVE",
"120 449 OFFCURVE",
"120 478 CURVE SMOOTH",
"120 507 OFFCURVE",
"138 526 OFFCURVE",
"168 526 CURVE SMOOTH",
"198 526 OFFCURVE",
"217 507 OFFCURVE",
"217 478 CURVE SMOOTH",
"217 449 OFFCURVE",
"198 429 OFFCURVE",
"168 429 CURVE SMOOTH"
);
}
);
width = 506;
}
);
note = uni0E22;
unicode = 0E22;
},
{
glyphname = "phoPhung-thai";
layers = (
{
anchors = (
{
name = bottom;
position = "{526, 0}";
},
{
name = top;
position = "{526, 510}";
}
);
layerId = "45309390-7B6A-4DA2-8B07-FED7B2950A7C";
paths = (
{
closed = 1;
nodes = (
"514 -4 OFFCURVE",
"526 13 OFFCURVE",
"526 41 CURVE SMOOTH",
"526 550 LINE",
"521 553 OFFCURVE",
"517 554 OFFCURVE",
"513 554 CURVE SMOOTH",
"496 554 OFFCURVE",
"489 541 OFFCURVE",
"489 519 CURVE SMOOTH",
"489 18 LINE",
"500 24 LINE",
"318 291 LINE",
"302 291 LINE",
"120 25 LINE",
"139 19 LINE",
"115 94 OFFCURVE",
"105 163 OFFCURVE",
"105 260 CURVE SMOOTH",
"105 336 OFFCURVE",
"111 391 OFFCURVE",
"121 439 CURVE",
"124 441 LINE",
"143 409 OFFCURVE",
"171 400 OFFCURVE",
"198 400 CURVE SMOOTH",
"249 400 OFFCURVE",
"283 431 OFFCURVE",
"283 479 CURVE SMOOTH",
"283 526 OFFCURVE",
"250 556 OFFCURVE",
"196 556 CURVE SMOOTH",
"134 556 OFFCURVE",
"68 517 OFFCURVE",
"68 265 CURVE SMOOTH",
"68 90 OFFCURVE",
"100 0 OFFCURVE",
"124 0 CURVE SMOOTH",
"150 0 LINE",
"322 259 LINE",
"298 259 LINE",
"470 0 LINE",
"476 -2 OFFCURVE",
"483 -4 OFFCURVE",
"491 -4 CURVE SMOOTH"
);
},
{
closed = 1;
nodes = (
"168 429 OFFCURVE",
"150 449 OFFCURVE",
"150 478 CURVE SMOOTH",
"150 507 OFFCURVE",
"168 526 OFFCURVE",
"198 526 CURVE SMOOTH",
"228 526 OFFCURVE",
"247 507 OFFCURVE",
"247 478 CURVE SMOOTH",
"247 449 OFFCURVE",
"228 429 OFFCURVE",
"198 429 CURVE SMOOTH"
);
}
);
width = 614;
}
);
note = uni0E1C;
rightMetricsKey = "moMa-thai";
unicode = 0E1C;
},
{
glyphname = "foFa-thai";
layers = (
{
anchors = (
{
name = bottom;
position = "{526, 0}";
},
{
name = top;
position = "{427, 510}";
}
);
layerId = "45309390-7B6A-4DA2-8B07-FED7B2950A7C";
paths = (
{
closed = 1;
nodes = (
"150 0 LINE",
"322 259 LINE",
"298 259 LINE",
"470 0 LINE",
"476 -2 OFFCURVE",
"483 -4 OFFCURVE",
"491 -4 CURVE SMOOTH",
"514 -4 OFFCURVE",
"526 13 OFFCURVE",
"526 41 CURVE SMOOTH",
"526 750 LINE",
"521 753 OFFCURVE",
"517 754 OFFCURVE",
"513 754 CURVE SMOOTH",
"496 754 OFFCURVE",
"489 741 OFFCURVE",
"489 719 CURVE SMOOTH",
"489 18 LINE",
"500 24 LINE",
"318 291 LINE",
"302 291 LINE",
"120 25 LINE",
"139 19 LINE",
"115 94 OFFCURVE",
"105 163 OFFCURVE",
"105 260 CURVE SMOOTH",
"105 336 OFFCURVE",
"111 391 OFFCURVE",
"121 439 CURVE",
"124 441 LINE",
"143 409 OFFCURVE",
"171 400 OFFCURVE",
"198 400 CURVE SMOOTH",
"249 400 OFFCURVE",
"283 431 OFFCURVE",
"283 479 CURVE SMOOTH",
"283 526 OFFCURVE",
"250 556 OFFCURVE",
"196 556 CURVE SMOOTH",
"134 556 OFFCURVE",
"68 517 OFFCURVE",
"68 265 CURVE SMOOTH",
"68 90 OFFCURVE",
"100 0 OFFCURVE",
"124 0 CURVE SMOOTH"
);
},
{
closed = 1;
nodes = (
"168 429 OFFCURVE",
"150 449 OFFCURVE",
"150 478 CURVE SMOOTH",
"150 507 OFFCURVE",
"168 526 OFFCURVE",
"198 526 CURVE SMOOTH",
"228 526 OFFCURVE",
"247 507 OFFCURVE",
"247 478 CURVE SMOOTH",
"247 449 OFFCURVE",
"228 429 OFFCURVE",
"198 429 CURVE SMOOTH"
);
}
);
width = 614;
}
);
leftMetricsKey = "phoPhung-thai";
note = uni0E1D;
rightMetricsKey = "moMa-thai";
unicode = 0E1D;
},
{
glyphname = "foFan-thai";
layers = (
{
anchors = (
{
name = bottom;
position = "{558, 0}";
},
{
name = top;
position = "{439, 510}";
}
);
layerId = "45309390-7B6A-4DA2-8B07-FED7B2950A7C";
paths = (
{
closed = 1;
nodes = (
"173 -6 OFFCURVE",
"182 26 OFFCURVE",
"229 160 CURVE SMOOTH",
"335 460 LINE",
"322 460 LINE",
"485 0 LINE",
"491 -2 OFFCURVE",
"499 -4 OFFCURVE",
"506 -4 CURVE SMOOTH",
"527 -4 OFFCURVE",
"538 15 OFFCURVE",
"538 41 CURVE SMOOTH",
"538 750 LINE",
"533 753 OFFCURVE",
"529 754 OFFCURVE",
"525 754 CURVE SMOOTH",
"508 754 OFFCURVE",
"501 741 OFFCURVE",
"501 719 CURVE SMOOTH",
"501 18 LINE",
"510 38 LINE",
"337 526 LINE",
"321 526 LINE",
"196 174 LINE SMOOTH",
"163 81 OFFCURVE",
"147 44 OFFCURVE",
"134 31 CURVE",
"134 11 LINE",
"152 41 OFFCURVE",
"156 66 OFFCURVE",
"156 116 CURVE SMOOTH",
"156 335 LINE SMOOTH",
"156 372 OFFCURVE",
"159 393 OFFCURVE",
"172 422 CURVE SMOOTH",
"183 447 OFFCURVE",
"188 459 OFFCURVE",
"188 476 CURVE SMOOTH",
"188 521 OFFCURVE",
"154 556 OFFCURVE",
"102 556 CURVE SMOOTH",
"52 556 OFFCURVE",
"18 524 OFFCURVE",
"18 478 CURVE SMOOTH",
"18 432 OFFCURVE",
"52 400 OFFCURVE",
"104 400 CURVE SMOOTH",
"130 400 OFFCURVE",
"143 408 OFFCURVE",
"153 421 CURVE",
"136 421 LINE",
"121 397 OFFCURVE",
"119 356 OFFCURVE",
"119 335 CURVE SMOOTH",
"119 116 LINE SMOOTH",
"119 56 OFFCURVE",
"110 28 OFFCURVE",
"95 14 CURVE",
"101 -2 LINE",
"112 -2 OFFCURVE",
"124 -6 OFFCURVE",
"137 -6 CURVE SMOOTH"
);
},
{
closed = 1;
nodes = (
"73 429 OFFCURVE",
"54 449 OFFCURVE",
"54 478 CURVE SMOOTH",
"54 507 OFFCURVE",
"73 526 OFFCURVE",
"103 526 CURVE SMOOTH",
"133 526 OFFCURVE",
"151 507 OFFCURVE",
"151 478 CURVE SMOOTH",
"151 449 OFFCURVE",
"133 429 OFFCURVE",
"103 429 CURVE SMOOTH"
);
}
);
width = 626;
}
);
leftMetricsKey = "boBaimai-thai";
note = uni0E1F;
rightMetricsKey = "moMa-thai";
unicode = 0E1F;
},
{
glyphname = "phoPhan-thai";
layers = (
{
anchors = (
{
name = bottom;
position = "{538, 0}";
},
{
name = top;
position = "{538, 510}";
}
);
layerId = "45309390-7B6A-4DA2-8B07-FED7B2950A7C";
paths = (
{
closed = 1;
nodes = (
"173 -6 OFFCURVE",
"182 26 OFFCURVE",
"229 160 CURVE SMOOTH",
"335 460 LINE",
"322 460 LINE",
"485 0 LINE",
"491 -2 OFFCURVE",
"499 -4 OFFCURVE",
"506 -4 CURVE SMOOTH",
"527 -4 OFFCURVE",
"538 15 OFFCURVE",
"538 41 CURVE SMOOTH",
"538 550 LINE",
"533 553 OFFCURVE",
"529 554 OFFCURVE",
"525 554 CURVE SMOOTH",
"508 554 OFFCURVE",
"501 541 OFFCURVE",
"501 519 CURVE SMOOTH",
"501 18 LINE",
"510 38 LINE",
"337 526 LINE",
"321 526 LINE",
"196 174 LINE SMOOTH",
"163 81 OFFCURVE",
"147 44 OFFCURVE",
"134 31 CURVE",
"134 11 LINE",
"152 41 OFFCURVE",
"156 66 OFFCURVE",
"156 116 CURVE SMOOTH",
"156 335 LINE SMOOTH",
"156 372 OFFCURVE",
"159 393 OFFCURVE",
"172 422 CURVE SMOOTH",
"183 447 OFFCURVE",
"188 459 OFFCURVE",
"188 476 CURVE SMOOTH",
"188 521 OFFCURVE",
"154 556 OFFCURVE",
"102 556 CURVE SMOOTH",
"52 556 OFFCURVE",
"18 524 OFFCURVE",
"18 478 CURVE SMOOTH",
"18 432 OFFCURVE",
"52 400 OFFCURVE",
"104 400 CURVE SMOOTH",
"130 400 OFFCURVE",
"143 408 OFFCURVE",
"153 421 CURVE",
"136 421 LINE",
"121 397 OFFCURVE",
"119 356 OFFCURVE",
"119 335 CURVE SMOOTH",
"119 116 LINE SMOOTH",
"119 56 OFFCURVE",
"110 28 OFFCURVE",
"95 14 CURVE",
"101 -2 LINE",
"112 -2 OFFCURVE",
"124 -6 OFFCURVE",
"137 -6 CURVE SMOOTH"
);
},
{
closed = 1;
nodes = (
"73 429 OFFCURVE",
"54 449 OFFCURVE",
"54 478 CURVE SMOOTH",
"54 507 OFFCURVE",
"73 526 OFFCURVE",
"103 526 CURVE SMOOTH",
"133 526 OFFCURVE",
"151 507 OFFCURVE",
"151 478 CURVE SMOOTH",
"151 449 OFFCURVE",
"133 429 OFFCURVE",
"103 429 CURVE SMOOTH"
);
}
);
width = 626;
}
);
leftMetricsKey = "boBaimai-thai";
note = uni0E1E;
rightMetricsKey = "moMa-thai";
unicode = 0E1E;
},
{
glyphname = "hoHip-thai";
layers = (
{
anchors = (
{
name = bottom;
position = "{465, 0}";
},
{
name = top;
position = "{465, 510}";
}
);
layerId = "45309390-7B6A-4DA2-8B07-FED7B2950A7C";
paths = (
{
closed = 1;
nodes = (
"186 -6 OFFCURVE",
"207 42 OFFCURVE",
"260 172 CURVE SMOOTH",
"309 294 OFFCURVE",
"340 335 OFFCURVE",
"415 379 CURVE SMOOTH",
"464 408 OFFCURVE",
"481 432 OFFCURVE",
"481 469 CURVE SMOOTH",
"481 519 OFFCURVE",
"445 556 OFFCURVE",
"395 556 CURVE SMOOTH",
"344 556 OFFCURVE",
"307 519 OFFCURVE",
"307 469 CURVE SMOOTH",
"307 432 OFFCURVE",
"324 408 OFFCURVE",
"373 379 CURVE SMOOTH",
"409 358 OFFCURVE",
"428 346 OFFCURVE",
"428 297 CURVE SMOOTH",
"428 0 LINE",
"433 -3 OFFCURVE",
"437 -4 OFFCURVE",
"441 -4 CURVE SMOOTH",
"458 -4 OFFCURVE",
"465 9 OFFCURVE",
"465 31 CURVE SMOOTH",
"465 297 LINE SMOOTH",
"465 349 OFFCURVE",
"447 377 OFFCURVE",
"395 403 CURVE SMOOTH",
"357 422 OFFCURVE",
"343 439 OFFCURVE",
"343 469 CURVE SMOOTH",
"343 502 OFFCURVE",
"364 526 OFFCURVE",
"394 526 CURVE SMOOTH",
"424 526 OFFCURVE",
"445 502 OFFCURVE",
"445 469 CURVE SMOOTH",
"445 439 OFFCURVE",
"431 422 OFFCURVE",
"393 403 CURVE SMOOTH",
"311 363 OFFCURVE",
"278 319 OFFCURVE",
"226 186 CURVE SMOOTH",
"183 75 OFFCURVE",
"172 51 OFFCURVE",
"134 28 CURVE",
"134 11 LINE",
"152 41 OFFCURVE",
"156 66 OFFCURVE",
"156 116 CURVE SMOOTH",
"156 335 LINE SMOOTH",
"156 372 OFFCURVE",
"159 393 OFFCURVE",
"172 422 CURVE SMOOTH",
"183 447 OFFCURVE",
"188 459 OFFCURVE",
"188 476 CURVE SMOOTH",
"188 521 OFFCURVE",
"154 556 OFFCURVE",
"102 556 CURVE SMOOTH",
"52 556 OFFCURVE",
"18 524 OFFCURVE",
"18 478 CURVE SMOOTH",
"18 432 OFFCURVE",
"52 400 OFFCURVE",
"104 400 CURVE SMOOTH",
"130 400 OFFCURVE",
"143 408 OFFCURVE",
"153 421 CURVE",
"136 421 LINE",
"121 397 OFFCURVE",
"119 356 OFFCURVE",
"119 335 CURVE SMOOTH",
"119 116 LINE SMOOTH",
"119 56 OFFCURVE",
"110 28 OFFCURVE",
"95 14 CURVE",
"101 -2 LINE",
"113 -2 OFFCURVE",
"123 -6 OFFCURVE",
"137 -6 CURVE SMOOTH"
);
},
{
closed = 1;
nodes = (
"73 429 OFFCURVE",
"54 449 OFFCURVE",
"54 478 CURVE SMOOTH",
"54 507 OFFCURVE",
"73 526 OFFCURVE",
"103 526 CURVE SMOOTH",
"133 526 OFFCURVE",
"151 507 OFFCURVE",
"151 478 CURVE SMOOTH",
"151 449 OFFCURVE",
"133 429 OFFCURVE",
"103 429 CURVE SMOOTH"
);
}
);
width = 547;
}
);
leftMetricsKey = "boBaimai-thai";
note = uni0E2B;
unicode = 0E2B;
},
{
glyphname = "loChula-thai";
layers = (
{
anchors = (
{
name = bottom;
position = "{538, 0}";
}
);
layerId = "45309390-7B6A-4DA2-8B07-FED7B2950A7C";
paths = (
{
closed = 1;
nodes = (
"163 -6 OFFCURVE",
"181 23 OFFCURVE",
"231 140 CURVE SMOOTH",
"333 380 LINE",
"325 380 LINE",
"486 0 LINE",
"492 -2 OFFCURVE",
"499 -4 OFFCURVE",
"508 -4 CURVE SMOOTH",
"526 -4 OFFCURVE",
"538 14 OFFCURVE",
"538 41 CURVE SMOOTH",
"538 591 LINE SMOOTH",
"538 676 OFFCURVE",
"489 730 OFFCURVE",
"413 730 CURVE SMOOTH",
"347 730 OFFCURVE",
"306 690 OFFCURVE",
"306 631 CURVE SMOOTH",
"306 576 OFFCURVE",
"342 544 OFFCURVE",
"403 544 CURVE SMOOTH",
"494 544 OFFCURVE",
"545 597 OFFCURVE",
"569 703 CURVE SMOOTH",
"577 739 OFFCURVE",
"560 747 OFFCURVE",
"539 743 CURVE",
"510 625 OFFCURVE",
"475 574 OFFCURVE",
"403 574 CURVE SMOOTH",
"364 574 OFFCURVE",
"342 595 OFFCURVE",
"342 631 CURVE SMOOTH",
"342 672 OFFCURVE",
"369 700 OFFCURVE",
"413 700 CURVE SMOOTH",
"466 700 OFFCURVE",
"501 658 OFFCURVE",
"501 591 CURVE SMOOTH",
"501 18 LINE",
"510 34 LINE",
"337 446 LINE",
"321 446 LINE",
"196 149 LINE SMOOTH",
"167 81 OFFCURVE",
"151 54 OFFCURVE",
"134 41 CURVE",
"134 11 LINE",
"152 41 OFFCURVE",
"156 66 OFFCURVE",
"156 116 CURVE SMOOTH",
"156 335 LINE SMOOTH",
"156 374 OFFCURVE",
"160 396 OFFCURVE",
"172 422 CURVE SMOOTH",
"184 448 OFFCURVE",
"188 462 OFFCURVE",
"188 478 CURVE SMOOTH",
"188 520 OFFCURVE",
"154 556 OFFCURVE",
"103 556 CURVE SMOOTH",
"52 556 OFFCURVE",
"18 524 OFFCURVE",
"18 478 CURVE SMOOTH",
"18 432 OFFCURVE",
"52 400 OFFCURVE",
"103 400 CURVE SMOOTH",
"130 400 OFFCURVE",
"143 408 OFFCURVE",
"153 421 CURVE",
"136 421 LINE",
"121 397 OFFCURVE",
"119 356 OFFCURVE",
"119 335 CURVE SMOOTH",
"119 116 LINE SMOOTH",
"119 56 OFFCURVE",
"110 28 OFFCURVE",
"95 14 CURVE",
"101 -2 LINE",
"113 -2 OFFCURVE",
"123 -6 OFFCURVE",
"138 -6 CURVE SMOOTH"
);
},
{
closed = 1;
nodes = (
"73 429 OFFCURVE",
"54 449 OFFCURVE",
"54 478 CURVE SMOOTH",
"54 507 OFFCURVE",
"73 526 OFFCURVE",
"103 526 CURVE SMOOTH",
"133 526 OFFCURVE",
"151 507 OFFCURVE",
"151 478 CURVE SMOOTH",
"151 449 OFFCURVE",
"133 429 OFFCURVE",
"103 429 CURVE SMOOTH"
);
}
);
width = 633;
}
);
leftMetricsKey = "boBaimai-thai";
note = uni0E2C;
unicode = 0E2C;
},
{
glyphname = "loChula-thai.short";
layers = (
{
anchors = (
{
name = bottom;
position = "{538, 0}";
},
{
name = top;
position = "{518, 510}";
}
);
layerId = "45309390-7B6A-4DA2-8B07-FED7B2950A7C";
paths = (
{
closed = 1;
nodes = (
"158 -6 OFFCURVE",
"182 17 OFFCURVE",
"230 106 CURVE SMOOTH",
"334 301 LINE",
"324 301 LINE",
"487 0 LINE",
"493 -2 OFFCURVE",
"500 -4 OFFCURVE",
"509 -4 CURVE SMOOTH",
"529 -4 OFFCURVE",
"538 9 OFFCURVE",
"538 31 CURVE SMOOTH",
"538 441 LINE SMOOTH",
"538 526 OFFCURVE",
"489 580 OFFCURVE",
"413 580 CURVE SMOOTH",
"347 580 OFFCURVE",
"306 540 OFFCURVE",
"306 481 CURVE SMOOTH",
"306 426 OFFCURVE",
"342 394 OFFCURVE",
"403 394 CURVE SMOOTH",
"494 394 OFFCURVE",
"545 447 OFFCURVE",
"569 553 CURVE SMOOTH",
"577 589 OFFCURVE",
"560 597 OFFCURVE",
"539 593 CURVE",
"510 475 OFFCURVE",
"475 424 OFFCURVE",
"403 424 CURVE SMOOTH",
"364 424 OFFCURVE",
"342 445 OFFCURVE",
"342 481 CURVE SMOOTH",
"342 522 OFFCURVE",
"369 550 OFFCURVE",
"413 550 CURVE SMOOTH",
"466 550 OFFCURVE",
"501 508 OFFCURVE",
"501 441 CURVE SMOOTH",
"501 18 LINE",
"510 34 LINE",
"337 350 LINE",
"321 350 LINE",
"198 124 LINE SMOOTH",
"165 63 OFFCURVE",
"151 44 OFFCURVE",
"134 31 CURVE",
"134 11 LINE",
"152 41 OFFCURVE",
"156 66 OFFCURVE",
"156 116 CURVE SMOOTH",
"156 335 LINE SMOOTH",
"156 374 OFFCURVE",
"160 396 OFFCURVE",
"172 422 CURVE SMOOTH",
"184 448 OFFCURVE",
"188 462 OFFCURVE",
"188 478 CURVE SMOOTH",
"188 520 OFFCURVE",
"154 556 OFFCURVE",
"103 556 CURVE SMOOTH",
"52 556 OFFCURVE",
"18 524 OFFCURVE",
"18 478 CURVE SMOOTH",
"18 432 OFFCURVE",
"52 400 OFFCURVE",
"103 400 CURVE SMOOTH",
"130 400 OFFCURVE",
"143 408 OFFCURVE",
"153 421 CURVE",
"136 421 LINE",
"121 397 OFFCURVE",
"119 356 OFFCURVE",
"119 335 CURVE SMOOTH",
"119 116 LINE SMOOTH",
"119 56 OFFCURVE",
"110 28 OFFCURVE",
"95 14 CURVE",
"101 -2 LINE",
"113 -2 OFFCURVE",
"123 -6 OFFCURVE",
"138 -6 CURVE SMOOTH"
);
},
{
closed = 1;
nodes = (
"73 429 OFFCURVE",
"54 449 OFFCURVE",
"54 478 CURVE SMOOTH",
"54 507 OFFCURVE",
"73 526 OFFCURVE",
"103 526 CURVE SMOOTH",
"133 526 OFFCURVE",
"151 507 OFFCURVE",
"151 478 CURVE SMOOTH",
"151 449 OFFCURVE",
"133 429 OFFCURVE",
"103 429 CURVE SMOOTH"
);
}
);
width = 593;
}
);
leftMetricsKey = "boBaimai-thai";
note = "loChula-thai.short";
},
